M48
;DRILL file {KiCad 0.201507042246+5884~23~ubuntu14.04.1-product} date vie 16 oct 2015 19:53:26 ART
;FORMAT={-:-/ absolute / inch / decimal}
FMAT,2
INCH,TZ
T1C0.027
T2C0.032
T3C0.036
T4C0.039
T5C0.039
T6C0.040
T7C0.047
%
G90
G05
M72
T1
X3.906Y-4.088
X4.836Y-2.744
X4.898Y-2.912
X5.374Y-4.078
X5.398Y-2.692
X5.398Y-2.836
X5.476Y-2.89
X5.482Y-4.186
X5.498Y-3.158
T2
X2.75Y-3.425
X5.625Y-2.435
X5.725Y-2.435
X5.77Y-3.6113
X5.77Y-3.7687
X5.825Y-2.435
T3
X2.775Y-4.775
T4
X2.05Y-3.35
X2.05Y-3.45
X2.05Y-3.55
X2.05Y-3.65
X2.05Y-3.75
X2.05Y-3.85
X2.05Y-3.95
X2.05Y-4.05
X2.35Y-3.35
X2.35Y-3.45
X2.35Y-3.55
X2.35Y-3.65
X2.35Y-3.75
X2.35Y-3.85
X2.35Y-3.95
X2.35Y-4.05
X2.75Y-2.525
X2.775Y-3.675
X2.85Y-2.525
X2.85Y-3.425
X2.875Y-3.675
X2.875Y-4.775
X2.95Y-2.525
X2.95Y-3.425
X2.975Y-3.675
X2.975Y-4.775
X3.05Y-2.525
X3.05Y-3.425
X3.075Y-3.675
X3.075Y-4.775
X3.15Y-2.525
X3.15Y-3.425
X3.175Y-3.675
X3.175Y-4.775
X3.25Y-2.525
X3.25Y-3.425
X3.275Y-3.675
X3.275Y-4.775
X3.35Y-2.525
X3.35Y-3.425
X3.375Y-3.675
X3.375Y-4.775
X3.45Y-2.525
X3.45Y-3.425
X3.475Y-3.675
X3.475Y-4.775
X3.55Y-2.525
X3.55Y-3.425
X3.575Y-3.675
X3.575Y-4.775
X3.65Y-2.525
X3.65Y-3.425
X3.675Y-3.675
X3.675Y-4.775
X3.75Y-2.525
X3.75Y-3.425
X3.775Y-3.675
X3.775Y-4.775
X3.85Y-2.525
X3.85Y-3.425
X3.875Y-3.675
X3.875Y-4.775
X3.95Y-2.525
X3.95Y-3.425
X3.975Y-3.675
X3.975Y-4.775
X4.05Y-2.525
X4.05Y-3.425
X4.075Y-3.675
X4.075Y-4.775
X4.15Y-2.525
X4.15Y-3.425
X4.175Y-3.675
X4.175Y-4.775
X4.25Y-2.525
X4.25Y-3.425
X4.275Y-3.675
X4.275Y-4.775
X4.35Y-2.525
X4.35Y-3.425
X4.375Y-3.675
X4.375Y-4.775
X4.45Y-2.525
X4.45Y-3.425
X4.475Y-3.675
X4.475Y-4.775
X4.55Y-2.525
X4.55Y-3.425
X4.575Y-3.675
X4.575Y-4.775
X4.65Y-2.525
X4.65Y-3.425
X4.675Y-3.675
X4.675Y-4.775
X5.025Y-3.565
X5.025Y-3.765
X5.085Y-2.71
X5.085Y-2.81
X5.085Y-2.91
X5.085Y-3.01
X5.085Y-3.11
X5.085Y-3.21
X5.085Y-3.31
X5.125Y-3.665
X5.285Y-2.66
X5.285Y-2.76
X5.285Y-2.86
X5.285Y-2.96
X5.285Y-3.06
X5.285Y-3.16
X5.285Y-3.26
X5.285Y-3.36
X5.395Y-3.84
X5.395Y-3.94
X5.405Y-3.555
X5.405Y-3.655
X5.605Y-3.85
X5.605Y-3.9484
X5.61Y-4.145
X5.61Y-4.27
X5.61Y-4.63
X5.61Y-4.78
X5.625Y-2.885
X5.625Y-3.27
X5.625Y-3.41
X5.63Y-2.745
X5.76Y-4.145
X5.76Y-4.27
X5.76Y-4.63
X5.76Y-4.78
X5.775Y-2.885
X5.775Y-3.27
X5.775Y-3.41
X5.78Y-2.745
T5
X2.05Y-2.5
X2.05Y-2.6
X2.05Y-4.77
X2.05Y-4.87
X2.23Y-2.405
X2.25Y-4.95
X2.63Y-2.405
X2.65Y-4.95
X4.9Y-4.16
X4.9Y-4.295
X4.9Y-4.425
X4.9Y-4.55
X4.9Y-4.675
X4.9Y-4.805
X5.3Y-4.16
X5.3Y-4.295
X5.3Y-4.425
X5.3Y-4.55
X5.3Y-4.675
X5.3Y-4.805
T6
X5.76Y-4.495
X5.775Y-3.135
T7
X5.76Y-4.395
X5.775Y-3.035
T0
M30
