G04 #@! TF.FileFunction,Copper,L2,Bot,Signal*
%FSLAX46Y46*%
G04 Gerber Fmt 4.6, Leading zero omitted, Abs format (unit mm)*
G04 Created by KiCad (PCBNEW 0.201507042246+5884~23~ubuntu14.04.1-product) date vie 16 oct 2015 19:53:01 ART*
%MOMM*%
G01*
G04 APERTURE LIST*
%ADD10C,0.100000*%
%ADD11C,2.200000*%
%ADD12R,2.200000X2.000000*%
%ADD13R,2.000000X2.000000*%
%ADD14R,2.000000X1.900000*%
%ADD15R,2.200000X2.200000*%
%ADD16O,2.540000X2.032000*%
%ADD17O,2.400000X2.000000*%
%ADD18O,2.999740X1.998980*%
%ADD19O,1.998980X2.999740*%
%ADD20O,2.200000X1.800000*%
%ADD21C,2.000000*%
%ADD22R,1.778000X1.778000*%
%ADD23R,1.574800X3.048000*%
%ADD24O,1.800000X3.048000*%
%ADD25R,1.800000X1.800000*%
%ADD26C,1.800000*%
%ADD27C,1.998980*%
%ADD28C,1.400000*%
%ADD29C,0.600000*%
%ADD30C,0.406400*%
%ADD31C,0.254000*%
G04 APERTURE END LIST*
D10*
D11*
X137033000Y-97536000D03*
X137033000Y-100076000D03*
D12*
X142367000Y-97790000D03*
D11*
X142367000Y-100290000D03*
X137287000Y-90297000D03*
X137287000Y-92837000D03*
D13*
X52070000Y-121158000D03*
D11*
X52070000Y-123698000D03*
D14*
X52070000Y-66040000D03*
D11*
X52070000Y-63500000D03*
X142494000Y-117602000D03*
D15*
X146304000Y-117602000D03*
D11*
X142494000Y-108458000D03*
D15*
X146304000Y-108458000D03*
D11*
X142875000Y-83058000D03*
D15*
X146685000Y-83058000D03*
D11*
X142875000Y-73279000D03*
D15*
X146685000Y-73279000D03*
D11*
X146304000Y-121412000D03*
D15*
X142494000Y-121412000D03*
D11*
X146304000Y-105283000D03*
D15*
X142494000Y-105283000D03*
D11*
X146685000Y-86614000D03*
D15*
X142875000Y-86614000D03*
D11*
X146812000Y-69723000D03*
D15*
X143002000Y-69723000D03*
D16*
X59690000Y-102870000D03*
X59690000Y-100330000D03*
X59690000Y-97790000D03*
X59690000Y-95250000D03*
X59690000Y-92710000D03*
X59690000Y-90170000D03*
X59690000Y-87630000D03*
X59690000Y-85090000D03*
X52070000Y-85090000D03*
X52070000Y-87630000D03*
X52070000Y-90170000D03*
X52070000Y-92710000D03*
X52070000Y-95250000D03*
X52070000Y-97790000D03*
X52070000Y-100330000D03*
X52070000Y-102870000D03*
D12*
X146685000Y-79629000D03*
D17*
X146685000Y-77089000D03*
D12*
X146304000Y-114173000D03*
D17*
X146304000Y-111633000D03*
D18*
X130175000Y-93091000D03*
D19*
X127635000Y-90551000D03*
X127635000Y-95631000D03*
D20*
X134239000Y-85344000D03*
X129159000Y-84074000D03*
X134239000Y-82804000D03*
X129159000Y-81534000D03*
X134239000Y-80264000D03*
X129159000Y-78994000D03*
X134239000Y-77724000D03*
X129159000Y-76454000D03*
X134239000Y-75184000D03*
X129159000Y-73914000D03*
X134239000Y-72644000D03*
X129159000Y-71374000D03*
X134239000Y-70104000D03*
X129159000Y-68834000D03*
X134239000Y-67564000D03*
D21*
X70485000Y-93345000D03*
X118745000Y-93345000D03*
X116205000Y-93345000D03*
X113665000Y-93345000D03*
X111125000Y-93345000D03*
X108585000Y-93345000D03*
X106045000Y-93345000D03*
X103505000Y-93345000D03*
X100965000Y-93345000D03*
X98425000Y-93345000D03*
X95885000Y-93345000D03*
X93345000Y-93345000D03*
X90805000Y-93345000D03*
X88265000Y-93345000D03*
X85725000Y-93345000D03*
X83185000Y-93345000D03*
X80645000Y-93345000D03*
X78105000Y-93345000D03*
X75565000Y-93345000D03*
X73025000Y-93345000D03*
D22*
X70485000Y-121285000D03*
D21*
X73025000Y-121285000D03*
X75565000Y-121285000D03*
X78105000Y-121285000D03*
X80645000Y-121285000D03*
X83185000Y-121285000D03*
X85725000Y-121285000D03*
X88265000Y-121285000D03*
X90805000Y-121285000D03*
X93345000Y-121285000D03*
X95885000Y-121285000D03*
X98425000Y-121285000D03*
X100965000Y-121285000D03*
X103505000Y-121285000D03*
X106045000Y-121285000D03*
X108585000Y-121285000D03*
X111125000Y-121285000D03*
X113665000Y-121285000D03*
X116205000Y-121285000D03*
X118745000Y-121285000D03*
D23*
X69850000Y-86995000D03*
D24*
X72390000Y-86995000D03*
X74930000Y-86995000D03*
X77470000Y-86995000D03*
X80010000Y-86995000D03*
X82550000Y-86995000D03*
X85090000Y-86995000D03*
X87630000Y-86995000D03*
X90170000Y-86995000D03*
X92710000Y-86995000D03*
X95250000Y-86995000D03*
X97790000Y-86995000D03*
X100330000Y-86995000D03*
X102870000Y-86995000D03*
X105410000Y-86995000D03*
X107950000Y-86995000D03*
X110490000Y-86995000D03*
X113030000Y-86995000D03*
X115570000Y-86995000D03*
X118110000Y-86995000D03*
X118110000Y-64135000D03*
X115570000Y-64135000D03*
X113030000Y-64135000D03*
X110490000Y-64135000D03*
X107950000Y-64135000D03*
X105410000Y-64135000D03*
X102870000Y-64135000D03*
X100330000Y-64135000D03*
X97790000Y-64135000D03*
X95250000Y-64135000D03*
X92710000Y-64135000D03*
X90170000Y-64135000D03*
X87630000Y-64135000D03*
X85090000Y-64135000D03*
X82550000Y-64135000D03*
X80010000Y-64135000D03*
X77470000Y-64135000D03*
X74930000Y-64135000D03*
X72390000Y-64135000D03*
X69850000Y-64135000D03*
D25*
X142875000Y-61849000D03*
D26*
X145415000Y-61849000D03*
X147955000Y-61849000D03*
D27*
X146558000Y-95724980D03*
X146558000Y-91727020D03*
D11*
X67310000Y-125730000D03*
X57150000Y-125730000D03*
X66802000Y-61087000D03*
X56642000Y-61087000D03*
X134620000Y-118745000D03*
X124460000Y-118745000D03*
X134620000Y-122047000D03*
X124460000Y-122047000D03*
X134620000Y-109093000D03*
X124460000Y-109093000D03*
X134620000Y-105664000D03*
X124460000Y-105664000D03*
X134620000Y-115570000D03*
X124460000Y-115570000D03*
X134620000Y-112395000D03*
X124460000Y-112395000D03*
D28*
X99212400Y-103835200D03*
X139090400Y-73406000D03*
X139242800Y-106324400D03*
X136499600Y-103581200D03*
X137109200Y-72034400D03*
X137109200Y-68376800D03*
X139649200Y-80213200D03*
X122834400Y-69697600D03*
X124409200Y-73964800D03*
D29*
X134239000Y-67564000D02*
X134239000Y-67529002D01*
X134239000Y-67529002D02*
X135331200Y-66436802D01*
X141239802Y-66436802D02*
X142367000Y-67564000D01*
X135331200Y-66436802D02*
X141239802Y-66436802D01*
X143002000Y-69723000D02*
X143002000Y-68199000D01*
X143002000Y-68199000D02*
X142367000Y-67564000D01*
X142367000Y-97790000D02*
X137287000Y-97790000D01*
X137287000Y-97790000D02*
X137033000Y-97536000D01*
X132207000Y-90551000D02*
X137033000Y-90551000D01*
X137033000Y-90551000D02*
X137287000Y-90297000D01*
X134239000Y-85344000D02*
X134239000Y-88519000D01*
X134239000Y-88519000D02*
X132207000Y-90551000D01*
X132207000Y-90551000D02*
X127635000Y-90551000D01*
X142494000Y-105283000D02*
X139446000Y-108331000D01*
X139446000Y-108331000D02*
X139446000Y-119380000D01*
X139446000Y-119380000D02*
X141478000Y-121412000D01*
X141478000Y-121412000D02*
X142494000Y-121412000D01*
X146558000Y-91727020D02*
X147962620Y-91727020D01*
X147962620Y-91727020D02*
X148488400Y-92252800D01*
X148488400Y-92252800D02*
X148488400Y-96520000D01*
X148488400Y-96520000D02*
X147116800Y-97891600D01*
X147116800Y-97891600D02*
X145186400Y-97891600D01*
X145186400Y-97891600D02*
X144526000Y-98552000D01*
X144526000Y-98552000D02*
X144526000Y-101650800D01*
X144526000Y-101650800D02*
X142494000Y-103682800D01*
X142494000Y-103682800D02*
X142494000Y-105283000D01*
X146558000Y-91727020D02*
X142069820Y-91727020D01*
X140639800Y-90297000D02*
X137287000Y-90297000D01*
X142069820Y-91727020D02*
X140639800Y-90297000D01*
X69850000Y-86995000D02*
X69850000Y-88900000D01*
X69850000Y-88900000D02*
X70612000Y-89662000D01*
X70612000Y-89662000D02*
X116840000Y-89662000D01*
X116840000Y-89662000D02*
X118745000Y-91567000D01*
X118745000Y-91567000D02*
X118745000Y-93345000D01*
X134239000Y-85344000D02*
X132334000Y-85344000D01*
X132334000Y-85344000D02*
X131699000Y-84709000D01*
X131699000Y-84709000D02*
X131699000Y-78994000D01*
X131699000Y-78994000D02*
X129159000Y-76454000D01*
X129159000Y-76454000D02*
X131699000Y-73914000D01*
X131699000Y-73914000D02*
X131699000Y-68707000D01*
X131699000Y-68707000D02*
X132842000Y-67564000D01*
X132842000Y-67564000D02*
X134239000Y-67564000D01*
X69850000Y-86995000D02*
X69850000Y-79248000D01*
X69850000Y-79248000D02*
X72644000Y-76454000D01*
X72644000Y-76454000D02*
X129159000Y-76454000D01*
X52070000Y-87630000D02*
X54356000Y-87630000D01*
X54356000Y-87630000D02*
X57277000Y-84709000D01*
X57277000Y-84709000D02*
X57277000Y-82677000D01*
X57277000Y-82677000D02*
X57607200Y-82346800D01*
X57607200Y-82346800D02*
X67995800Y-82346800D01*
X67995800Y-82346800D02*
X69850000Y-84201000D01*
X69850000Y-84201000D02*
X69850000Y-86995000D01*
X52070000Y-66040000D02*
X52070000Y-85090000D01*
X52070000Y-85090000D02*
X52070000Y-121158000D01*
D30*
X145186400Y-97891600D02*
X144526000Y-98552000D01*
X147116800Y-97891600D02*
X145186400Y-97891600D01*
X148488400Y-96520000D02*
X147116800Y-97891600D01*
X148488400Y-92252800D02*
X148488400Y-96520000D01*
X147962620Y-91727020D02*
X148488400Y-92252800D01*
X143002000Y-68199000D02*
X142367000Y-67564000D01*
X134239000Y-88519000D02*
X132207000Y-90551000D01*
X127635000Y-90551000D02*
X132207000Y-90551000D01*
X137033000Y-90551000D02*
X137287000Y-90297000D01*
X137287000Y-90297000D02*
X140716000Y-90297000D01*
X142714980Y-91727020D02*
X142951200Y-91727020D01*
X142951200Y-91727020D02*
X146558000Y-91727020D01*
X137033000Y-97536000D02*
X142113000Y-97536000D01*
X142113000Y-97536000D02*
X142367000Y-97790000D01*
X142113000Y-97536000D02*
X142367000Y-97790000D01*
X142494000Y-105283000D02*
X142494000Y-103632000D01*
X142494000Y-103632000D02*
X144526000Y-101600000D01*
X144526000Y-101600000D02*
X144526000Y-98552000D01*
X143764000Y-97790000D02*
X142367000Y-97790000D01*
X144526000Y-98552000D02*
X143764000Y-97790000D01*
X142367000Y-97790000D02*
X142113000Y-97536000D01*
X142494000Y-121412000D02*
X141478000Y-121412000D01*
X139446000Y-119380000D02*
X139446000Y-108331000D01*
X141478000Y-121412000D02*
X139446000Y-119380000D01*
X131699000Y-78994000D02*
X129159000Y-76454000D01*
X131699000Y-84709000D02*
X131699000Y-78994000D01*
X132334000Y-85344000D02*
X131699000Y-84709000D01*
X52070000Y-121158000D02*
X52070000Y-102870000D01*
X134239000Y-67564000D02*
X132842000Y-67564000D01*
X131699000Y-68707000D02*
X131699000Y-73914000D01*
X132842000Y-67564000D02*
X131699000Y-68707000D01*
X118745000Y-91567000D02*
X118745000Y-93345000D01*
X116840000Y-89662000D02*
X118745000Y-91567000D01*
X69850000Y-88900000D02*
X70612000Y-89662000D01*
X129159000Y-76454000D02*
X72644000Y-76454000D01*
X72644000Y-76454000D02*
X69850000Y-79248000D01*
X69850000Y-84201000D02*
X69850000Y-86995000D01*
X68072000Y-82423000D02*
X69850000Y-84201000D01*
X57531000Y-82423000D02*
X68072000Y-82423000D01*
X57277000Y-82677000D02*
X57531000Y-82423000D01*
X57277000Y-84709000D02*
X57277000Y-82677000D01*
X54356000Y-87630000D02*
X57277000Y-84709000D01*
X52070000Y-100330000D02*
X52070000Y-102870000D01*
X52070000Y-97790000D02*
X52070000Y-100330000D01*
X52070000Y-95250000D02*
X52070000Y-97790000D01*
X52070000Y-92710000D02*
X52070000Y-95250000D01*
X52070000Y-90170000D02*
X52070000Y-92710000D01*
X52070000Y-87630000D02*
X52070000Y-90170000D01*
X52070000Y-85090000D02*
X52070000Y-87630000D01*
X140868400Y-88087200D02*
X140868400Y-82194400D01*
X134620000Y-122047000D02*
X138303000Y-125730000D01*
X149098000Y-125730000D02*
X138303000Y-125730000D01*
X151079200Y-123748800D02*
X149098000Y-125730000D01*
X151079200Y-89966800D02*
X151079200Y-123748800D01*
X149656800Y-88544400D02*
X151079200Y-89966800D01*
X141325600Y-88544400D02*
X149656800Y-88544400D01*
X140868400Y-88087200D02*
X141325600Y-88544400D01*
X138023600Y-75184000D02*
X140868400Y-78028800D01*
X138023600Y-75184000D02*
X134239000Y-75184000D01*
X141833600Y-78994000D02*
X140868400Y-78028800D01*
X141833600Y-81229200D02*
X141833600Y-78994000D01*
X140868400Y-82194400D02*
X141833600Y-81229200D01*
D29*
X134620000Y-109093000D02*
X134620000Y-105664000D01*
X134620000Y-112395000D02*
X134620000Y-109093000D01*
X134620000Y-115570000D02*
X134620000Y-112395000D01*
X134620000Y-118745000D02*
X134620000Y-115570000D01*
X134620000Y-122047000D02*
X134620000Y-118745000D01*
D30*
X134620000Y-122047000D02*
X134620000Y-105664000D01*
D29*
X135229600Y-100076000D02*
X135229600Y-100177600D01*
X135229600Y-100177600D02*
X134620000Y-100787200D01*
X134620000Y-100787200D02*
X134620000Y-105664000D01*
X142367000Y-100290000D02*
X137247000Y-100290000D01*
X137247000Y-100290000D02*
X137033000Y-100076000D01*
X137033000Y-100076000D02*
X135229600Y-100076000D01*
X135229600Y-100076000D02*
X128397000Y-100076000D01*
X128397000Y-100076000D02*
X127635000Y-99314000D01*
X127635000Y-99314000D02*
X127635000Y-95631000D01*
D30*
X134620000Y-105664000D02*
X134620000Y-100787200D01*
X134620000Y-100787200D02*
X135331200Y-100076000D01*
X127635000Y-95631000D02*
X127635000Y-99314000D01*
X127635000Y-99314000D02*
X128397000Y-100076000D01*
X128397000Y-100076000D02*
X135331200Y-100076000D01*
X135331200Y-100076000D02*
X137033000Y-100076000D01*
X137033000Y-100076000D02*
X142153000Y-100076000D01*
X142153000Y-100076000D02*
X142367000Y-100290000D01*
X140555980Y-95724980D02*
X146558000Y-95724980D01*
D29*
X137287000Y-92837000D02*
X137668000Y-92837000D01*
X137668000Y-92837000D02*
X140555980Y-95724980D01*
X140555980Y-95724980D02*
X146558000Y-95724980D01*
X130175000Y-93091000D02*
X137033000Y-93091000D01*
X137033000Y-93091000D02*
X137287000Y-92837000D01*
X142494000Y-117602000D02*
X142494000Y-108458000D01*
X142875000Y-73279000D02*
X142875000Y-83058000D01*
X139090400Y-73406000D02*
X142748000Y-73406000D01*
X142748000Y-73406000D02*
X142875000Y-73279000D01*
D30*
X139217400Y-73279000D02*
X142875000Y-73279000D01*
X139090400Y-73406000D02*
X139217400Y-73279000D01*
X137033000Y-93091000D02*
X137287000Y-92837000D01*
X137668000Y-92837000D02*
X140555980Y-95724980D01*
X52070000Y-123698000D02*
X55118000Y-123698000D01*
X55118000Y-123698000D02*
X57150000Y-125730000D01*
D29*
X52070000Y-63500000D02*
X54229000Y-63500000D01*
X54229000Y-63500000D02*
X56642000Y-61087000D01*
D30*
X54229000Y-63500000D02*
X56642000Y-61087000D01*
D29*
X136499600Y-103581200D02*
X139242800Y-106324400D01*
X146304000Y-121412000D02*
X146304000Y-114173000D01*
D30*
X146304000Y-117602000D02*
X146304000Y-121412000D01*
X146304000Y-117602000D02*
X146304000Y-114173000D01*
D29*
X148640800Y-89408000D02*
X140970000Y-89408000D01*
X146304000Y-105283000D02*
X149123400Y-105283000D01*
X149123400Y-105283000D02*
X150114000Y-104292400D01*
X150114000Y-104292400D02*
X150114000Y-90881200D01*
X150114000Y-90881200D02*
X148640800Y-89408000D01*
X140970000Y-89408000D02*
X140060398Y-88498398D01*
X140060398Y-88498398D02*
X140060398Y-84637598D01*
X140060398Y-84637598D02*
X138226800Y-82804000D01*
X138226800Y-82804000D02*
X134239000Y-82804000D01*
X146304000Y-105283000D02*
X146304000Y-111633000D01*
D30*
X134239000Y-82804000D02*
X138226800Y-82804000D01*
X150114000Y-104292400D02*
X149123400Y-105283000D01*
X148640800Y-89408000D02*
X150114000Y-90881200D01*
X140055600Y-88493600D02*
X140970000Y-89408000D01*
X140055600Y-84632800D02*
X140055600Y-88493600D01*
X138226800Y-82804000D02*
X140055600Y-84632800D01*
X146304000Y-108458000D02*
X146304000Y-105283000D01*
X146304000Y-111633000D02*
X146304000Y-108458000D01*
D29*
X146685000Y-79629000D02*
X146685000Y-86614000D01*
D30*
X146685000Y-83058000D02*
X146685000Y-86614000D01*
X146685000Y-79629000D02*
X146685000Y-83058000D01*
D29*
X131191000Y-66167000D02*
X131826000Y-65532000D01*
X144399000Y-65532000D02*
X144907000Y-66040000D01*
X131826000Y-65532000D02*
X144399000Y-65532000D01*
X146812000Y-69723000D02*
X146812000Y-67945000D01*
X146812000Y-67945000D02*
X144907000Y-66040000D01*
X131318000Y-66040000D02*
X131191000Y-66167000D01*
X131191000Y-66167000D02*
X129159000Y-68199000D01*
X129159000Y-68199000D02*
X129159000Y-68834000D01*
X146685000Y-77089000D02*
X146685000Y-69850000D01*
X146685000Y-69850000D02*
X146812000Y-69723000D01*
D30*
X129159000Y-68834000D02*
X129159000Y-68199000D01*
X129159000Y-68199000D02*
X131318000Y-66040000D01*
X144907000Y-66040000D02*
X146812000Y-67945000D01*
X146685000Y-73279000D02*
X146685000Y-69850000D01*
X146685000Y-69850000D02*
X146812000Y-69723000D01*
X146685000Y-73279000D02*
X146685000Y-77089000D01*
D29*
X63627000Y-104648000D02*
X76073000Y-104648000D01*
X76073000Y-104648000D02*
X78105000Y-106680000D01*
X78105000Y-106680000D02*
X78105000Y-121285000D01*
X59690000Y-102870000D02*
X61849000Y-102870000D01*
X61849000Y-102870000D02*
X63627000Y-104648000D01*
D30*
X78105000Y-106680000D02*
X78105000Y-121285000D01*
X76073000Y-104648000D02*
X78105000Y-106680000D01*
X61849000Y-102870000D02*
X63627000Y-104648000D01*
D29*
X80645000Y-121285000D02*
X80645000Y-104775000D01*
X80645000Y-104775000D02*
X78740000Y-102870000D01*
X78740000Y-102870000D02*
X64897000Y-102870000D01*
X64897000Y-102870000D02*
X62357000Y-100330000D01*
X62357000Y-100330000D02*
X59690000Y-100330000D01*
D30*
X59690000Y-100330000D02*
X62357000Y-100330000D01*
X78740000Y-102870000D02*
X80645000Y-104775000D01*
X64897000Y-102870000D02*
X78740000Y-102870000D01*
X62357000Y-100330000D02*
X64897000Y-102870000D01*
X80518000Y-121158000D02*
X80645000Y-121285000D01*
D29*
X59690000Y-97790000D02*
X63627000Y-97790000D01*
X63627000Y-97790000D02*
X66929000Y-101092000D01*
X66929000Y-101092000D02*
X81534000Y-101092000D01*
X81534000Y-101092000D02*
X83185000Y-102743000D01*
X83185000Y-102743000D02*
X83185000Y-121285000D01*
D30*
X83185000Y-102743000D02*
X83185000Y-121285000D01*
X81534000Y-101092000D02*
X83185000Y-102743000D01*
X66929000Y-101092000D02*
X81534000Y-101092000D01*
X63627000Y-97790000D02*
X66929000Y-101092000D01*
D29*
X107061000Y-99695000D02*
X108585000Y-101219000D01*
X108585000Y-101219000D02*
X108585000Y-121285000D01*
X59690000Y-95250000D02*
X62738000Y-95250000D01*
X62738000Y-95250000D02*
X67183000Y-99695000D01*
X67183000Y-99695000D02*
X107061000Y-99695000D01*
D30*
X108585000Y-101219000D02*
X108585000Y-121285000D01*
X67183000Y-99695000D02*
X107061000Y-99695000D01*
X62738000Y-95250000D02*
X67183000Y-99695000D01*
D29*
X111125000Y-121285000D02*
X111125000Y-99695000D01*
X111125000Y-99695000D02*
X109474000Y-98044000D01*
X109474000Y-98044000D02*
X67945000Y-98044000D01*
X67945000Y-98044000D02*
X62611000Y-92710000D01*
X62611000Y-92710000D02*
X59690000Y-92710000D01*
D30*
X59690000Y-92710000D02*
X62611000Y-92710000D01*
X109474000Y-98044000D02*
X111125000Y-99695000D01*
X67945000Y-98044000D02*
X109474000Y-98044000D01*
X62611000Y-92710000D02*
X67945000Y-98044000D01*
D29*
X59690000Y-90170000D02*
X61976000Y-90170000D01*
X61976000Y-90170000D02*
X68326000Y-96520000D01*
X68326000Y-96520000D02*
X110363000Y-96520000D01*
X110363000Y-96520000D02*
X113665000Y-99822000D01*
X113665000Y-99822000D02*
X113665000Y-121285000D01*
D30*
X113665000Y-99822000D02*
X113665000Y-121285000D01*
X110363000Y-96520000D02*
X113665000Y-99822000D01*
X68326000Y-96520000D02*
X110363000Y-96520000D01*
X61976000Y-90170000D02*
X68326000Y-96520000D01*
D29*
X68707000Y-95377000D02*
X86233000Y-95377000D01*
X86233000Y-95377000D02*
X88265000Y-93345000D01*
X59690000Y-87630000D02*
X60960000Y-87630000D01*
X60960000Y-87630000D02*
X68707000Y-95377000D01*
D30*
X86233000Y-95377000D02*
X88265000Y-93345000D01*
D29*
X75565000Y-93345000D02*
X73025000Y-90805000D01*
X73025000Y-90805000D02*
X68453000Y-90805000D01*
X68453000Y-90805000D02*
X62738000Y-85090000D01*
X62738000Y-85090000D02*
X59690000Y-85090000D01*
D30*
X59690000Y-85090000D02*
X62738000Y-85090000D01*
X68453000Y-90805000D02*
X73025000Y-90805000D01*
D29*
X137109200Y-72034400D02*
X137109200Y-68376800D01*
X118110000Y-86995000D02*
X121412000Y-90297000D01*
X121412000Y-90297000D02*
X121412000Y-123444000D01*
X121412000Y-123444000D02*
X119126000Y-125730000D01*
X119126000Y-125730000D02*
X67310000Y-125730000D01*
D30*
X67310000Y-125730000D02*
X119126000Y-125730000D01*
X121412000Y-123444000D02*
X121412000Y-90297000D01*
X119126000Y-125730000D02*
X121412000Y-123444000D01*
D29*
X66802000Y-61087000D02*
X93853000Y-61087000D01*
X93853000Y-61087000D02*
X95250000Y-62484000D01*
X95250000Y-62484000D02*
X95250000Y-64135000D01*
D30*
X95250000Y-62484000D02*
X95250000Y-64135000D01*
X93853000Y-61087000D02*
X95250000Y-62484000D01*
D29*
X134239000Y-80264000D02*
X139598400Y-80264000D01*
X139598400Y-80264000D02*
X139649200Y-80213200D01*
X124460000Y-122047000D02*
X127254000Y-122047000D01*
X127254000Y-122047000D02*
X129159000Y-120142000D01*
X129159000Y-120142000D02*
X129159000Y-103378000D01*
X129159000Y-103378000D02*
X123317000Y-97536000D01*
X123317000Y-97536000D02*
X123317000Y-81788000D01*
X123317000Y-81788000D02*
X126111000Y-78994000D01*
X126111000Y-78994000D02*
X129159000Y-78994000D01*
D30*
X129159000Y-78994000D02*
X126111000Y-78994000D01*
X129159000Y-120142000D02*
X127254000Y-122047000D01*
X129159000Y-103378000D02*
X129159000Y-120142000D01*
X123317000Y-97536000D02*
X129159000Y-103378000D01*
X123317000Y-81788000D02*
X123317000Y-97536000D01*
X126111000Y-78994000D02*
X123317000Y-81788000D01*
D29*
X122834400Y-65836800D02*
X122834400Y-69697600D01*
X122834400Y-65836800D02*
X121132600Y-64135000D01*
X121132600Y-64135000D02*
X118110000Y-64135000D01*
D30*
X122834400Y-65836800D02*
X121132600Y-64135000D01*
X121132600Y-64135000D02*
X118110000Y-64135000D01*
D29*
X129159000Y-73914000D02*
X112014000Y-73914000D01*
X112014000Y-73914000D02*
X107950000Y-69850000D01*
X107950000Y-69850000D02*
X107950000Y-64135000D01*
D30*
X124409200Y-73964800D02*
X124409200Y-73914000D01*
X124409200Y-73914000D02*
X124409200Y-73964800D01*
X124409200Y-73964800D02*
X124409200Y-73914000D01*
X129159000Y-73914000D02*
X124409200Y-73914000D01*
X124409200Y-73914000D02*
X112014000Y-73914000D01*
X107950000Y-69850000D02*
X107950000Y-64135000D01*
X112014000Y-73914000D02*
X107950000Y-69850000D01*
D29*
X110490000Y-64135000D02*
X110490000Y-68580000D01*
X110490000Y-68580000D02*
X113284000Y-71374000D01*
X113284000Y-71374000D02*
X129159000Y-71374000D01*
D30*
X129159000Y-71374000D02*
X113284000Y-71374000D01*
X113284000Y-71374000D02*
X110490000Y-68580000D01*
D31*
G36*
X151838399Y-89623289D02*
X151671897Y-89374103D01*
X150249497Y-87951703D01*
X149977566Y-87770004D01*
X149656800Y-87706200D01*
X148046697Y-87706200D01*
X148155004Y-87598082D01*
X148419699Y-86960627D01*
X148420301Y-86270401D01*
X148156719Y-85632485D01*
X147669082Y-85143996D01*
X147620000Y-85123615D01*
X147620000Y-84805440D01*
X147785000Y-84805440D01*
X148027123Y-84758463D01*
X148239927Y-84618673D01*
X148382377Y-84407640D01*
X148432440Y-84158000D01*
X148432440Y-81958000D01*
X148385463Y-81715877D01*
X148245673Y-81503073D01*
X148034640Y-81360623D01*
X147785000Y-81310560D01*
X147620000Y-81310560D01*
X147620000Y-81276440D01*
X147785000Y-81276440D01*
X148027123Y-81229463D01*
X148239927Y-81089673D01*
X148382377Y-80878640D01*
X148432440Y-80629000D01*
X148432440Y-78629000D01*
X148385463Y-78386877D01*
X148245673Y-78174073D01*
X148162194Y-78117723D01*
X148431493Y-77714687D01*
X148555950Y-77089000D01*
X148431493Y-76463313D01*
X148077070Y-75932880D01*
X147620000Y-75627476D01*
X147620000Y-75026440D01*
X147785000Y-75026440D01*
X148027123Y-74979463D01*
X148239927Y-74839673D01*
X148382377Y-74628640D01*
X148432440Y-74379000D01*
X148432440Y-72179000D01*
X148385463Y-71936877D01*
X148245673Y-71724073D01*
X148034640Y-71581623D01*
X147785000Y-71531560D01*
X147620000Y-71531560D01*
X147620000Y-71266414D01*
X147793515Y-71194719D01*
X148282004Y-70707082D01*
X148546699Y-70069627D01*
X148547301Y-69379401D01*
X148283719Y-68741485D01*
X147796082Y-68252996D01*
X147747000Y-68232615D01*
X147747000Y-67945000D01*
X147675827Y-67587191D01*
X147473145Y-67283855D01*
X145568145Y-65378855D01*
X145568142Y-65378853D01*
X145060145Y-64870855D01*
X144756809Y-64668173D01*
X144399000Y-64597000D01*
X131826000Y-64597000D01*
X131468191Y-64668173D01*
X131164855Y-64870855D01*
X128689955Y-67345755D01*
X128337590Y-67415845D01*
X127839600Y-67748591D01*
X127506854Y-68246581D01*
X127390009Y-68834000D01*
X127506854Y-69421419D01*
X127839600Y-69919409D01*
X128115860Y-70104000D01*
X127839600Y-70288591D01*
X127739100Y-70439000D01*
X124070432Y-70439000D01*
X124104179Y-70357727D01*
X124104620Y-69852490D01*
X123911682Y-69385542D01*
X123769400Y-69243012D01*
X123769400Y-65836800D01*
X123698227Y-65478991D01*
X123495545Y-65175655D01*
X121793745Y-63473855D01*
X121490409Y-63271173D01*
X121132600Y-63200000D01*
X119591552Y-63200000D01*
X119528155Y-62881284D01*
X119195409Y-62383294D01*
X118697419Y-62050548D01*
X118110000Y-61933703D01*
X117522581Y-62050548D01*
X117024591Y-62383294D01*
X116840000Y-62659554D01*
X116655409Y-62383294D01*
X116157419Y-62050548D01*
X115570000Y-61933703D01*
X114982581Y-62050548D01*
X114484591Y-62383294D01*
X114300000Y-62659554D01*
X114115409Y-62383294D01*
X113617419Y-62050548D01*
X113030000Y-61933703D01*
X112442581Y-62050548D01*
X111944591Y-62383294D01*
X111760000Y-62659554D01*
X111575409Y-62383294D01*
X111077419Y-62050548D01*
X110490000Y-61933703D01*
X109902581Y-62050548D01*
X109404591Y-62383294D01*
X109220000Y-62659554D01*
X109035409Y-62383294D01*
X108537419Y-62050548D01*
X107950000Y-61933703D01*
X107362581Y-62050548D01*
X106864591Y-62383294D01*
X106680000Y-62659554D01*
X106495409Y-62383294D01*
X105997419Y-62050548D01*
X105410000Y-61933703D01*
X104822581Y-62050548D01*
X104324591Y-62383294D01*
X104140000Y-62659554D01*
X103955409Y-62383294D01*
X103457419Y-62050548D01*
X102870000Y-61933703D01*
X102282581Y-62050548D01*
X101784591Y-62383294D01*
X101600000Y-62659554D01*
X101415409Y-62383294D01*
X100917419Y-62050548D01*
X100330000Y-61933703D01*
X99742581Y-62050548D01*
X99244591Y-62383294D01*
X99060000Y-62659554D01*
X98875409Y-62383294D01*
X98377419Y-62050548D01*
X97790000Y-61933703D01*
X97202581Y-62050548D01*
X96704591Y-62383294D01*
X96520000Y-62659554D01*
X96335409Y-62383294D01*
X96138843Y-62251953D01*
X96113827Y-62126191D01*
X95911145Y-61822855D01*
X94514145Y-60425855D01*
X94328124Y-60301560D01*
X141975000Y-60301560D01*
X141732877Y-60348537D01*
X141520073Y-60488327D01*
X141377623Y-60699360D01*
X141327560Y-60949000D01*
X141327560Y-62749000D01*
X141374537Y-62991123D01*
X141514327Y-63203927D01*
X141725360Y-63346377D01*
X141975000Y-63396440D01*
X143775000Y-63396440D01*
X144017123Y-63349463D01*
X144229927Y-63209673D01*
X144372377Y-62998640D01*
X144375946Y-62980845D01*
X144544357Y-63149551D01*
X145108330Y-63383733D01*
X145718991Y-63384265D01*
X146283371Y-63151068D01*
X146685323Y-62749818D01*
X147084357Y-63149551D01*
X147648330Y-63383733D01*
X148258991Y-63384265D01*
X148823371Y-63151068D01*
X149255551Y-62719643D01*
X149489733Y-62155670D01*
X149490265Y-61545009D01*
X149257068Y-60980629D01*
X148825643Y-60548449D01*
X148261670Y-60314267D01*
X147651009Y-60313735D01*
X147086629Y-60546932D01*
X146684677Y-60948182D01*
X146285643Y-60548449D01*
X145721670Y-60314267D01*
X145111009Y-60313735D01*
X144546629Y-60546932D01*
X144377238Y-60716027D01*
X144375463Y-60706877D01*
X144235673Y-60494073D01*
X144024640Y-60351623D01*
X143775000Y-60301560D01*
X141975000Y-60301560D01*
X94328124Y-60301560D01*
X94210809Y-60223173D01*
X93853000Y-60152000D01*
X68292939Y-60152000D01*
X68273719Y-60105485D01*
X67786082Y-59616996D01*
X67148627Y-59352301D01*
X66458401Y-59351699D01*
X65820485Y-59615281D01*
X65331996Y-60102918D01*
X65067301Y-60740373D01*
X65066699Y-61430599D01*
X65330281Y-62068515D01*
X65817918Y-62557004D01*
X66455373Y-62821699D01*
X67145599Y-62822301D01*
X67783515Y-62558719D01*
X68272004Y-62071082D01*
X68292385Y-62022000D01*
X69406101Y-62022000D01*
X69262581Y-62050548D01*
X68764591Y-62383294D01*
X68431845Y-62881284D01*
X68315000Y-63468703D01*
X68315000Y-64801297D01*
X68431845Y-65388716D01*
X68764591Y-65886706D01*
X69262581Y-66219452D01*
X69850000Y-66336297D01*
X70437419Y-66219452D01*
X70935409Y-65886706D01*
X71120000Y-65610446D01*
X71304591Y-65886706D01*
X71802581Y-66219452D01*
X72390000Y-66336297D01*
X72977419Y-66219452D01*
X73475409Y-65886706D01*
X73660000Y-65610446D01*
X73844591Y-65886706D01*
X74342581Y-66219452D01*
X74930000Y-66336297D01*
X75517419Y-66219452D01*
X76015409Y-65886706D01*
X76200000Y-65610446D01*
X76384591Y-65886706D01*
X76882581Y-66219452D01*
X77470000Y-66336297D01*
X78057419Y-66219452D01*
X78555409Y-65886706D01*
X78740000Y-65610446D01*
X78924591Y-65886706D01*
X79422581Y-66219452D01*
X80010000Y-66336297D01*
X80597419Y-66219452D01*
X81095409Y-65886706D01*
X81280000Y-65610446D01*
X81464591Y-65886706D01*
X81962581Y-66219452D01*
X82550000Y-66336297D01*
X83137419Y-66219452D01*
X83635409Y-65886706D01*
X83820000Y-65610446D01*
X84004591Y-65886706D01*
X84502581Y-66219452D01*
X85090000Y-66336297D01*
X85677419Y-66219452D01*
X86175409Y-65886706D01*
X86360000Y-65610446D01*
X86544591Y-65886706D01*
X87042581Y-66219452D01*
X87630000Y-66336297D01*
X88217419Y-66219452D01*
X88715409Y-65886706D01*
X88900000Y-65610446D01*
X89084591Y-65886706D01*
X89582581Y-66219452D01*
X90170000Y-66336297D01*
X90757419Y-66219452D01*
X91255409Y-65886706D01*
X91440000Y-65610446D01*
X91624591Y-65886706D01*
X92122581Y-66219452D01*
X92710000Y-66336297D01*
X93297419Y-66219452D01*
X93795409Y-65886706D01*
X93980000Y-65610446D01*
X94164591Y-65886706D01*
X94662581Y-66219452D01*
X95250000Y-66336297D01*
X95837419Y-66219452D01*
X96335409Y-65886706D01*
X96520000Y-65610446D01*
X96704591Y-65886706D01*
X97202581Y-66219452D01*
X97790000Y-66336297D01*
X98377419Y-66219452D01*
X98875409Y-65886706D01*
X99060000Y-65610446D01*
X99244591Y-65886706D01*
X99742581Y-66219452D01*
X100330000Y-66336297D01*
X100917419Y-66219452D01*
X101415409Y-65886706D01*
X101600000Y-65610446D01*
X101784591Y-65886706D01*
X102282581Y-66219452D01*
X102870000Y-66336297D01*
X103457419Y-66219452D01*
X103955409Y-65886706D01*
X104140000Y-65610446D01*
X104324591Y-65886706D01*
X104822581Y-66219452D01*
X105410000Y-66336297D01*
X105997419Y-66219452D01*
X106495409Y-65886706D01*
X106680000Y-65610446D01*
X106864591Y-65886706D01*
X107015000Y-65987206D01*
X107015000Y-69850000D01*
X107086173Y-70207809D01*
X107288855Y-70511145D01*
X111352855Y-74575145D01*
X111656191Y-74777827D01*
X112014000Y-74849000D01*
X123405528Y-74849000D01*
X123651996Y-75095898D01*
X124142487Y-75299568D01*
X124673583Y-75300031D01*
X125164429Y-75097218D01*
X125413080Y-74849000D01*
X127739100Y-74849000D01*
X127839600Y-74999409D01*
X128119828Y-75186651D01*
X127757631Y-75490921D01*
X127480525Y-76023975D01*
X127467964Y-76089260D01*
X127588622Y-76327000D01*
X129032000Y-76327000D01*
X129032000Y-76307000D01*
X129286000Y-76307000D01*
X129286000Y-76327000D01*
X130729378Y-76327000D01*
X130850036Y-76089260D01*
X130837475Y-76023975D01*
X130560369Y-75490921D01*
X130198172Y-75186651D01*
X130478400Y-74999409D01*
X130811146Y-74501419D01*
X130927991Y-73914000D01*
X130811146Y-73326581D01*
X130478400Y-72828591D01*
X130202140Y-72644000D01*
X130478400Y-72459409D01*
X130811146Y-71961419D01*
X130927991Y-71374000D01*
X130811146Y-70786581D01*
X130478400Y-70288591D01*
X130202140Y-70104000D01*
X130478400Y-69919409D01*
X130811146Y-69421419D01*
X130927991Y-68834000D01*
X130811146Y-68246581D01*
X130659966Y-68020324D01*
X132213290Y-66467000D01*
X132997048Y-66467000D01*
X132837631Y-66600921D01*
X132560525Y-67133975D01*
X132547964Y-67199260D01*
X132668622Y-67437000D01*
X134112000Y-67437000D01*
X134112000Y-67417000D01*
X134366000Y-67417000D01*
X134366000Y-67437000D01*
X135809378Y-67437000D01*
X135930036Y-67199260D01*
X135917475Y-67133975D01*
X135640369Y-66600921D01*
X135480952Y-66467000D01*
X144011711Y-66467000D01*
X144245853Y-66701142D01*
X144245855Y-66701145D01*
X145813223Y-68268513D01*
X145341996Y-68738918D01*
X145077301Y-69376373D01*
X145076699Y-70066599D01*
X145340281Y-70704515D01*
X145750000Y-71114950D01*
X145750000Y-71531560D01*
X145585000Y-71531560D01*
X145342877Y-71578537D01*
X145130073Y-71718327D01*
X144987623Y-71929360D01*
X144937560Y-72179000D01*
X144937560Y-74379000D01*
X144984537Y-74621123D01*
X145124327Y-74833927D01*
X145335360Y-74976377D01*
X145585000Y-75026440D01*
X145750000Y-75026440D01*
X145750000Y-75627476D01*
X145292930Y-75932880D01*
X144938507Y-76463313D01*
X144814050Y-77089000D01*
X144938507Y-77714687D01*
X145207593Y-78117404D01*
X145130073Y-78168327D01*
X144987623Y-78379360D01*
X144937560Y-78629000D01*
X144937560Y-80629000D01*
X144984537Y-80871123D01*
X145124327Y-81083927D01*
X145335360Y-81226377D01*
X145585000Y-81276440D01*
X145750000Y-81276440D01*
X145750000Y-81310560D01*
X145585000Y-81310560D01*
X145342877Y-81357537D01*
X145130073Y-81497327D01*
X144987623Y-81708360D01*
X144937560Y-81958000D01*
X144937560Y-84158000D01*
X144984537Y-84400123D01*
X145124327Y-84612927D01*
X145335360Y-84755377D01*
X145585000Y-84805440D01*
X145750000Y-84805440D01*
X145750000Y-85123061D01*
X145703485Y-85142281D01*
X145214996Y-85629918D01*
X144950301Y-86267373D01*
X144949699Y-86957599D01*
X145213281Y-87595515D01*
X145323773Y-87706200D01*
X144610000Y-87706200D01*
X144610000Y-86899750D01*
X144451250Y-86741000D01*
X143002000Y-86741000D01*
X143002000Y-86761000D01*
X142748000Y-86761000D01*
X142748000Y-86741000D01*
X142728000Y-86741000D01*
X142728000Y-86487000D01*
X142748000Y-86487000D01*
X142748000Y-85037750D01*
X142589250Y-84879000D01*
X143160750Y-84879000D01*
X143002000Y-85037750D01*
X143002000Y-86487000D01*
X144451250Y-86487000D01*
X144610000Y-86328250D01*
X144610000Y-85387690D01*
X144513327Y-85154301D01*
X144334698Y-84975673D01*
X144101309Y-84879000D01*
X143160750Y-84879000D01*
X142589250Y-84879000D01*
X142589250Y-84879000D01*
X141706600Y-84879000D01*
X141706600Y-84343364D01*
X141890918Y-84528004D01*
X142528373Y-84792699D01*
X143218599Y-84793301D01*
X143856515Y-84529719D01*
X144345004Y-84042082D01*
X144609699Y-83404627D01*
X144610301Y-82714401D01*
X144346719Y-82076485D01*
X143859082Y-81587996D01*
X143810000Y-81567615D01*
X143810000Y-74769939D01*
X143856515Y-74750719D01*
X144345004Y-74263082D01*
X144609699Y-73625627D01*
X144610301Y-72935401D01*
X144346719Y-72297485D01*
X143859082Y-71808996D01*
X143221627Y-71544301D01*
X142531401Y-71543699D01*
X141893485Y-71807281D01*
X141404996Y-72294918D01*
X141344420Y-72440800D01*
X140013213Y-72440800D01*
X139847604Y-72274902D01*
X139357113Y-72071232D01*
X138826017Y-72070769D01*
X138444031Y-72228602D01*
X138444431Y-71770017D01*
X138241618Y-71279171D01*
X138044200Y-71081408D01*
X138044200Y-69850000D01*
X141425750Y-69850000D01*
X141267000Y-70008750D01*
X141267000Y-70949310D01*
X141363673Y-71182699D01*
X141542302Y-71361327D01*
X141775691Y-71458000D01*
X142716250Y-71458000D01*
X142875000Y-71299250D01*
X142875000Y-69850000D01*
X143129000Y-69850000D01*
X142875000Y-69850000D01*
X142875000Y-69850000D01*
X143129000Y-69850000D01*
X143129000Y-71299250D01*
X143287750Y-71458000D01*
X144228309Y-71458000D01*
X144461698Y-71361327D01*
X144640327Y-71182699D01*
X144737000Y-70949310D01*
X144737000Y-70008750D01*
X144578250Y-69850000D01*
X143129000Y-69850000D01*
X142875000Y-69850000D01*
X142875000Y-69850000D01*
X141425750Y-69850000D01*
X138044200Y-69850000D01*
X138044200Y-69745829D01*
X138236026Y-69554337D01*
X138429779Y-69087727D01*
X138430220Y-68582490D01*
X138237282Y-68115542D01*
X138109963Y-67988000D01*
X141775691Y-67988000D01*
X141542302Y-68084673D01*
X141363673Y-68263301D01*
X141267000Y-68496690D01*
X141267000Y-69437250D01*
X141425750Y-69596000D01*
X142875000Y-69596000D01*
X142875000Y-68146750D01*
X142716250Y-67988000D01*
X143287750Y-67988000D01*
X143129000Y-68146750D01*
X143129000Y-69596000D01*
X144578250Y-69596000D01*
X144737000Y-69437250D01*
X144737000Y-68496690D01*
X144640327Y-68263301D01*
X144461698Y-68084673D01*
X144228309Y-67988000D01*
X143287750Y-67988000D01*
X142716250Y-67988000D01*
X142716250Y-67988000D01*
X141775691Y-67988000D01*
X138109963Y-67988000D01*
X137880337Y-67757974D01*
X137413727Y-67564221D01*
X136908490Y-67563780D01*
X136441542Y-67756718D01*
X136083974Y-68113663D01*
X135890221Y-68580273D01*
X135889780Y-69085510D01*
X136082718Y-69552458D01*
X136174200Y-69644100D01*
X136174200Y-71081440D01*
X135978102Y-71277196D01*
X135774432Y-71767687D01*
X135774333Y-71881757D01*
X135558400Y-71558591D01*
X135282140Y-71374000D01*
X135558400Y-71189409D01*
X135891146Y-70691419D01*
X136007991Y-70104000D01*
X135891146Y-69516581D01*
X135558400Y-69018591D01*
X135278172Y-68831349D01*
X135640369Y-68527079D01*
X135917475Y-67994025D01*
X135930036Y-67928740D01*
X135809378Y-67691000D01*
X134366000Y-67691000D01*
X134366000Y-67711000D01*
X134112000Y-67711000D01*
X134112000Y-67691000D01*
X132668622Y-67691000D01*
X132547964Y-67928740D01*
X132560525Y-67994025D01*
X132837631Y-68527079D01*
X133199828Y-68831349D01*
X132919600Y-69018591D01*
X132586854Y-69516581D01*
X132470009Y-70104000D01*
X132586854Y-70691419D01*
X132919600Y-71189409D01*
X133195860Y-71374000D01*
X132919600Y-71558591D01*
X132586854Y-72056581D01*
X132470009Y-72644000D01*
X132586854Y-73231419D01*
X132919600Y-73729409D01*
X133195860Y-73914000D01*
X132919600Y-74098591D01*
X132586854Y-74596581D01*
X132470009Y-75184000D01*
X132586854Y-75771419D01*
X132919600Y-76269409D01*
X133195860Y-76454000D01*
X132919600Y-76638591D01*
X132586854Y-77136581D01*
X132470009Y-77724000D01*
X132586854Y-78311419D01*
X132919600Y-78809409D01*
X133195860Y-78994000D01*
X132919600Y-79178591D01*
X132586854Y-79676581D01*
X132470009Y-80264000D01*
X132586854Y-80851419D01*
X132919600Y-81349409D01*
X133195860Y-81534000D01*
X132919600Y-81718591D01*
X132586854Y-82216581D01*
X132470009Y-82804000D01*
X132586854Y-83391419D01*
X132919600Y-83889409D01*
X133199828Y-84076651D01*
X132837631Y-84380921D01*
X132560525Y-84913975D01*
X132547964Y-84979260D01*
X132668622Y-85217000D01*
X134112000Y-85217000D01*
X134112000Y-85197000D01*
X134366000Y-85197000D01*
X134366000Y-85217000D01*
X135809378Y-85217000D01*
X135930036Y-84979260D01*
X135917475Y-84913975D01*
X135640369Y-84380921D01*
X135278172Y-84076651D01*
X135558400Y-83889409D01*
X135658900Y-83739000D01*
X137839510Y-83739000D01*
X139125398Y-85024888D01*
X139125398Y-88498398D01*
X139196571Y-88856207D01*
X139399253Y-89159543D01*
X140308853Y-90069142D01*
X140308855Y-90069145D01*
X140612191Y-90271827D01*
X140970000Y-90343000D01*
X145671128Y-90343000D01*
X145585443Y-90574857D01*
X146558000Y-91547415D01*
X147530557Y-90574857D01*
X147444872Y-90343000D01*
X148253510Y-90343000D01*
X149179000Y-91268490D01*
X149179000Y-103905110D01*
X148736110Y-104348000D01*
X147794939Y-104348000D01*
X147775719Y-104301485D01*
X147288082Y-103812996D01*
X146650627Y-103548301D01*
X145960401Y-103547699D01*
X145322485Y-103811281D01*
X144833996Y-104298918D01*
X144569301Y-104936373D01*
X144568699Y-105626599D01*
X144832281Y-106264515D01*
X145277548Y-106710560D01*
X145204000Y-106710560D01*
X144961877Y-106757537D01*
X144749073Y-106897327D01*
X144606623Y-107108360D01*
X144556560Y-107358000D01*
X144556560Y-109558000D01*
X144603537Y-109800123D01*
X144743327Y-110012927D01*
X144954360Y-110155377D01*
X145204000Y-110205440D01*
X145318170Y-110205440D01*
X144911930Y-110476880D01*
X144557507Y-111007313D01*
X144433050Y-111633000D01*
X144557507Y-112258687D01*
X144826593Y-112661404D01*
X144749073Y-112712327D01*
X144606623Y-112923360D01*
X144556560Y-113173000D01*
X144556560Y-115173000D01*
X144603537Y-115415123D01*
X144743327Y-115627927D01*
X144954360Y-115770377D01*
X145204000Y-115820440D01*
X145369000Y-115820440D01*
X145369000Y-115854560D01*
X145204000Y-115854560D01*
X144961877Y-115901537D01*
X144749073Y-116041327D01*
X144606623Y-116252360D01*
X144556560Y-116502000D01*
X144556560Y-118702000D01*
X144603537Y-118944123D01*
X144743327Y-119156927D01*
X144954360Y-119299377D01*
X145204000Y-119349440D01*
X145369000Y-119349440D01*
X145369000Y-119921061D01*
X145322485Y-119940281D01*
X144833996Y-120427918D01*
X144569301Y-121065373D01*
X144568699Y-121755599D01*
X144832281Y-122393515D01*
X145319918Y-122882004D01*
X145957373Y-123146699D01*
X146647599Y-123147301D01*
X147285515Y-122883719D01*
X147774004Y-122396082D01*
X148038699Y-121758627D01*
X148039301Y-121068401D01*
X147775719Y-120430485D01*
X147288082Y-119941996D01*
X147239000Y-119921615D01*
X147239000Y-119349440D01*
X147404000Y-119349440D01*
X147646123Y-119302463D01*
X147858927Y-119162673D01*
X148001377Y-118951640D01*
X148051440Y-118702000D01*
X148051440Y-116502000D01*
X148004463Y-116259877D01*
X147864673Y-116047073D01*
X147653640Y-115904623D01*
X147404000Y-115854560D01*
X147239000Y-115854560D01*
X147239000Y-115820440D01*
X147404000Y-115820440D01*
X147646123Y-115773463D01*
X147858927Y-115633673D01*
X148001377Y-115422640D01*
X148051440Y-115173000D01*
X148051440Y-113173000D01*
X148004463Y-112930877D01*
X147864673Y-112718073D01*
X147781194Y-112661723D01*
X148050493Y-112258687D01*
X148174950Y-111633000D01*
X148050493Y-111007313D01*
X147696070Y-110476880D01*
X147289830Y-110205440D01*
X147404000Y-110205440D01*
X147646123Y-110158463D01*
X147858927Y-110018673D01*
X148001377Y-109807640D01*
X148051440Y-109558000D01*
X148051440Y-107358000D01*
X148004463Y-107115877D01*
X147864673Y-106903073D01*
X147653640Y-106760623D01*
X147404000Y-106710560D01*
X147329751Y-106710560D01*
X147774004Y-106267082D01*
X147794385Y-106218000D01*
X149123400Y-106218000D01*
X149481209Y-106146827D01*
X149784545Y-105944145D01*
X150241000Y-105487690D01*
X150241000Y-123401606D01*
X148750806Y-124891800D01*
X138650194Y-124891800D01*
X136295232Y-122536838D01*
X136354699Y-122393627D01*
X136355301Y-121703401D01*
X136287372Y-121539000D01*
X140917750Y-121539000D01*
X140759000Y-121697750D01*
X140759000Y-122638310D01*
X140855673Y-122871699D01*
X141034302Y-123050327D01*
X141267691Y-123147000D01*
X142208250Y-123147000D01*
X142367000Y-122988250D01*
X142367000Y-121539000D01*
X142621000Y-121539000D01*
X142367000Y-121539000D01*
X142367000Y-121539000D01*
X142621000Y-121539000D01*
X142621000Y-122988250D01*
X142779750Y-123147000D01*
X143720309Y-123147000D01*
X143953698Y-123050327D01*
X144132327Y-122871699D01*
X144229000Y-122638310D01*
X144229000Y-121697750D01*
X144070250Y-121539000D01*
X142621000Y-121539000D01*
X142367000Y-121539000D01*
X142367000Y-121539000D01*
X140917750Y-121539000D01*
X136287372Y-121539000D01*
X136091719Y-121065485D01*
X135604082Y-120576996D01*
X135555000Y-120556615D01*
X135555000Y-120235939D01*
X135601515Y-120216719D01*
X136090004Y-119729082D01*
X136111630Y-119677000D01*
X141267691Y-119677000D01*
X141034302Y-119773673D01*
X140855673Y-119952301D01*
X140759000Y-120185690D01*
X140759000Y-121126250D01*
X140917750Y-121285000D01*
X142367000Y-121285000D01*
X142367000Y-119835750D01*
X142208250Y-119677000D01*
X142779750Y-119677000D01*
X142208250Y-119677000D01*
X142208250Y-119677000D01*
X142779750Y-119677000D01*
X142621000Y-119835750D01*
X142621000Y-121285000D01*
X144070250Y-121285000D01*
X144229000Y-121126250D01*
X144229000Y-120185690D01*
X144132327Y-119952301D01*
X143953698Y-119773673D01*
X143720309Y-119677000D01*
X142779750Y-119677000D01*
X142208250Y-119677000D01*
X142208250Y-119677000D01*
X141267691Y-119677000D01*
X136111630Y-119677000D01*
X136354699Y-119091627D01*
X136355301Y-118401401D01*
X136091719Y-117763485D01*
X135604082Y-117274996D01*
X135555000Y-117254615D01*
X135555000Y-117060939D01*
X135601515Y-117041719D01*
X136090004Y-116554082D01*
X136354699Y-115916627D01*
X136355301Y-115226401D01*
X136091719Y-114588485D01*
X135604082Y-114099996D01*
X135555000Y-114079615D01*
X135555000Y-113885939D01*
X135601515Y-113866719D01*
X136090004Y-113379082D01*
X136354699Y-112741627D01*
X136355301Y-112051401D01*
X136091719Y-111413485D01*
X135604082Y-110924996D01*
X135555000Y-110904615D01*
X135555000Y-110583939D01*
X135601515Y-110564719D01*
X136090004Y-110077082D01*
X136354699Y-109439627D01*
X136355301Y-108749401D01*
X136091719Y-108111485D01*
X135604082Y-107622996D01*
X135555000Y-107602615D01*
X135555000Y-107154939D01*
X135601515Y-107135719D01*
X136090004Y-106648082D01*
X136354699Y-106010627D01*
X136355301Y-105320401D01*
X136143832Y-104808608D01*
X136245873Y-104850979D01*
X136447265Y-104851155D01*
X137972754Y-106376644D01*
X137972580Y-106575910D01*
X138165518Y-107042858D01*
X138522463Y-107400426D01*
X138989073Y-107594179D01*
X139494310Y-107594620D01*
X139961258Y-107401682D01*
X140318826Y-107044737D01*
X140512579Y-106578127D01*
X140513020Y-106072890D01*
X140320082Y-105605942D01*
X140124482Y-105410000D01*
X140917750Y-105410000D01*
X140759000Y-105568750D01*
X140759000Y-106509310D01*
X140855673Y-106742699D01*
X141034302Y-106921327D01*
X141267691Y-107018000D01*
X141480711Y-107018000D01*
X141023996Y-107473918D01*
X140759301Y-108111373D01*
X140758699Y-108801599D01*
X141022281Y-109439515D01*
X141509918Y-109928004D01*
X141559000Y-109948385D01*
X141559000Y-116111061D01*
X141512485Y-116130281D01*
X141023996Y-116617918D01*
X140759301Y-117255373D01*
X140758699Y-117945599D01*
X141022281Y-118583515D01*
X141509918Y-119072004D01*
X142147373Y-119336699D01*
X142837599Y-119337301D01*
X143475515Y-119073719D01*
X143964004Y-118586082D01*
X144228699Y-117948627D01*
X144229301Y-117258401D01*
X143965719Y-116620485D01*
X143478082Y-116131996D01*
X143429000Y-116111615D01*
X143429000Y-109948939D01*
X143475515Y-109929719D01*
X143964004Y-109442082D01*
X144228699Y-108804627D01*
X144229301Y-108114401D01*
X143965719Y-107476485D01*
X143508034Y-107018000D01*
X143720309Y-107018000D01*
X143953698Y-106921327D01*
X144132327Y-106742699D01*
X144229000Y-106509310D01*
X144229000Y-105568750D01*
X144070250Y-105410000D01*
X142621000Y-105410000D01*
X142621000Y-105430000D01*
X142367000Y-105430000D01*
X142367000Y-105410000D01*
X140917750Y-105410000D01*
X140124482Y-105410000D01*
X139963137Y-105248374D01*
X139496527Y-105054621D01*
X139295135Y-105054445D01*
X137788690Y-103548000D01*
X141267691Y-103548000D01*
X141034302Y-103644673D01*
X140855673Y-103823301D01*
X140759000Y-104056690D01*
X140759000Y-104997250D01*
X140917750Y-105156000D01*
X142367000Y-105156000D01*
X142367000Y-103706750D01*
X142208250Y-103548000D01*
X142779750Y-103548000D01*
X142621000Y-103706750D01*
X142621000Y-105156000D01*
X144070250Y-105156000D01*
X144229000Y-104997250D01*
X144229000Y-104056690D01*
X144132327Y-103823301D01*
X143953698Y-103644673D01*
X143720309Y-103548000D01*
X142779750Y-103548000D01*
X142208250Y-103548000D01*
X142208250Y-103548000D01*
X141267691Y-103548000D01*
X137788690Y-103548000D01*
X137769646Y-103528956D01*
X137769820Y-103329690D01*
X137576882Y-102862742D01*
X137219937Y-102505174D01*
X136753327Y-102311421D01*
X136248090Y-102310980D01*
X135781142Y-102503918D01*
X135555000Y-102729666D01*
X135555000Y-101174490D01*
X135616580Y-101112910D01*
X136048918Y-101546004D01*
X136686373Y-101810699D01*
X137376599Y-101811301D01*
X138014515Y-101547719D01*
X138337798Y-101225000D01*
X140876061Y-101225000D01*
X140895281Y-101271515D01*
X141382918Y-101760004D01*
X142020373Y-102024699D01*
X142710599Y-102025301D01*
X143348515Y-101761719D01*
X143837004Y-101274082D01*
X144101699Y-100636627D01*
X144102301Y-99946401D01*
X143841006Y-99314020D01*
X144005327Y-99149698D01*
X144102000Y-98916309D01*
X144102000Y-98075750D01*
X143943250Y-97917000D01*
X142494000Y-97917000D01*
X142494000Y-97937000D01*
X142240000Y-97937000D01*
X142240000Y-97917000D01*
X140790750Y-97917000D01*
X140632000Y-98075750D01*
X140632000Y-98916309D01*
X140728673Y-99149698D01*
X140816775Y-99237800D01*
X138563936Y-99237800D01*
X138504719Y-99094485D01*
X138017082Y-98605996D01*
X137957519Y-98581263D01*
X138257868Y-98581263D01*
X138535099Y-98470359D01*
X138778323Y-97824407D01*
X138755836Y-97134547D01*
X138535099Y-96601641D01*
X138257868Y-96490737D01*
X137212605Y-97536000D01*
X136853395Y-97536000D01*
X136853395Y-97536000D01*
X135808132Y-96490737D01*
X135530901Y-96601641D01*
X135287677Y-97247593D01*
X135310164Y-97937453D01*
X135530901Y-98470359D01*
X135808132Y-98581263D01*
X136853395Y-97536000D01*
X137212605Y-97536000D01*
X136853395Y-97536000D01*
X136853395Y-97536000D01*
X137212605Y-97536000D01*
X138257868Y-98581263D01*
X137957519Y-98581263D01*
X137856861Y-98539466D01*
X137033000Y-97715605D01*
X136209695Y-98538910D01*
X136051485Y-98604281D01*
X135562996Y-99091918D01*
X135542615Y-99141000D01*
X128784290Y-99141000D01*
X128570000Y-98926710D01*
X128570000Y-97476470D01*
X128790759Y-97328964D01*
X129145072Y-96798697D01*
X129269490Y-96173205D01*
X129269490Y-95813164D01*
X136631547Y-95813164D01*
X136098641Y-96033901D01*
X135987737Y-96311132D01*
X137033000Y-97356395D01*
X138078263Y-96311132D01*
X137967359Y-96033901D01*
X137321407Y-95790677D01*
X136631547Y-95813164D01*
X129269490Y-95813164D01*
X129269490Y-95088795D01*
X129179280Y-94635280D01*
X129632795Y-94725490D01*
X130717205Y-94725490D01*
X131342697Y-94601072D01*
X131872964Y-94246759D01*
X132020470Y-94026000D01*
X136022404Y-94026000D01*
X136302918Y-94307004D01*
X136940373Y-94571699D01*
X137630599Y-94572301D01*
X137949319Y-94440608D01*
X139894833Y-96386122D01*
X139894835Y-96386125D01*
X140198171Y-96588807D01*
X140555980Y-96659980D01*
X140633537Y-96659980D01*
X140632000Y-96663691D01*
X140632000Y-97504250D01*
X140790750Y-97663000D01*
X142240000Y-97663000D01*
X142240000Y-97643000D01*
X142494000Y-97643000D01*
X142494000Y-97663000D01*
X143943250Y-97663000D01*
X144102000Y-97504250D01*
X144102000Y-96663691D01*
X144100463Y-96659980D01*
X145181865Y-96659980D01*
X145630927Y-97109826D01*
X146231453Y-97359186D01*
X146881694Y-97359754D01*
X147482655Y-97111442D01*
X147942846Y-96652053D01*
X148192206Y-96051527D01*
X148192774Y-95401286D01*
X147944462Y-94800325D01*
X147485073Y-94340134D01*
X146884547Y-94090774D01*
X146234306Y-94090206D01*
X145633345Y-94338518D01*
X145181095Y-94789980D01*
X140943269Y-94789980D01*
X139032473Y-92879183D01*
X145585443Y-92879183D01*
X145684042Y-93145985D01*
X146293582Y-93372421D01*
X146943377Y-93348361D01*
X147431958Y-93145985D01*
X147530557Y-92879183D01*
X146558000Y-91906625D01*
X145585443Y-92879183D01*
X139032473Y-92879183D01*
X139021974Y-92868684D01*
X139022301Y-92493401D01*
X138758719Y-91855485D01*
X138366522Y-91462602D01*
X144912599Y-91462602D01*
X144936659Y-92112397D01*
X145139035Y-92600978D01*
X145405837Y-92699577D01*
X146378395Y-91727020D01*
X146737605Y-91727020D01*
X147710163Y-92699577D01*
X147976965Y-92600978D01*
X148203401Y-91991438D01*
X148179341Y-91341643D01*
X147976965Y-90853062D01*
X147710163Y-90754463D01*
X146737605Y-91727020D01*
X146378395Y-91727020D01*
X146378395Y-91727020D01*
X145405837Y-90754463D01*
X145139035Y-90853062D01*
X138931541Y-90853062D01*
X139032323Y-90585407D01*
X139009836Y-89895547D01*
X138789099Y-89362641D01*
X138511868Y-89251737D01*
X137466605Y-90297000D01*
X138511868Y-91342263D01*
X138789099Y-91231359D01*
X138931541Y-90853062D01*
X145139035Y-90853062D01*
X138931541Y-90853062D01*
X138931541Y-90853062D01*
X145139035Y-90853062D01*
X144912599Y-91462602D01*
X138366522Y-91462602D01*
X138271082Y-91366996D01*
X138110861Y-91300466D01*
X137287000Y-90476605D01*
X136463695Y-91299910D01*
X136305485Y-91365281D01*
X135816996Y-91852918D01*
X135691145Y-92156000D01*
X132020470Y-92156000D01*
X131872964Y-91935241D01*
X131342697Y-91580928D01*
X130717205Y-91456510D01*
X129632795Y-91456510D01*
X129165217Y-91549517D01*
X129269490Y-91178380D01*
X129269490Y-90698453D01*
X135564164Y-90698453D01*
X135784901Y-91231359D01*
X136062132Y-91342263D01*
X137107395Y-90297000D01*
X136062132Y-89251737D01*
X135784901Y-89362641D01*
X129111881Y-89362641D01*
X129096471Y-89307795D01*
X128700956Y-88805058D01*
X128289626Y-88574164D01*
X136885547Y-88574164D01*
X136352641Y-88794901D01*
X136241737Y-89072132D01*
X137287000Y-90117395D01*
X138332263Y-89072132D01*
X138221359Y-88794901D01*
X137575407Y-88551677D01*
X136885547Y-88574164D01*
X128289626Y-88574164D01*
X128143159Y-88491947D01*
X128015354Y-88461001D01*
X127762000Y-88580355D01*
X127762000Y-90424000D01*
X129269490Y-90424000D01*
X129269490Y-89923620D01*
X129111881Y-89362641D01*
X135784901Y-89362641D01*
X129111881Y-89362641D01*
X129111881Y-89362641D01*
X135784901Y-89362641D01*
X135541677Y-90008593D01*
X135564164Y-90698453D01*
X129269490Y-90698453D01*
X129269490Y-90678000D01*
X127762000Y-90678000D01*
X127762000Y-92521645D01*
X128015354Y-92640999D01*
X128091482Y-92622566D01*
X127998305Y-93091000D01*
X128088515Y-93544515D01*
X127635000Y-93454305D01*
X127009508Y-93578723D01*
X126479241Y-93933036D01*
X126124928Y-94463303D01*
X126000510Y-95088795D01*
X126000510Y-96173205D01*
X126124928Y-96798697D01*
X126479241Y-97328964D01*
X126700000Y-97476470D01*
X126700000Y-99314000D01*
X126770198Y-99666908D01*
X124252000Y-97148710D01*
X124252000Y-90678000D01*
X126000510Y-90678000D01*
X126000510Y-91178380D01*
X126173529Y-91794205D01*
X126569044Y-92296942D01*
X127126841Y-92610053D01*
X127254646Y-92640999D01*
X127508000Y-92521645D01*
X127508000Y-90678000D01*
X126000510Y-90678000D01*
X124252000Y-90678000D01*
X124252000Y-88491947D01*
X127126841Y-88491947D01*
X126569044Y-88805058D01*
X126173529Y-89307795D01*
X126000510Y-89923620D01*
X126000510Y-90424000D01*
X127508000Y-90424000D01*
X127508000Y-88580355D01*
X127254646Y-88461001D01*
X127126841Y-88491947D01*
X124252000Y-88491947D01*
X124252000Y-82175290D01*
X126498290Y-79929000D01*
X127739100Y-79929000D01*
X127839600Y-80079409D01*
X128115860Y-80264000D01*
X127839600Y-80448591D01*
X127506854Y-80946581D01*
X127390009Y-81534000D01*
X127506854Y-82121419D01*
X127839600Y-82619409D01*
X128115860Y-82804000D01*
X127839600Y-82988591D01*
X127506854Y-83486581D01*
X127390009Y-84074000D01*
X127506854Y-84661419D01*
X127839600Y-85159409D01*
X128337590Y-85492155D01*
X128925009Y-85609000D01*
X129392991Y-85609000D01*
X129980410Y-85492155D01*
X130012070Y-85471000D01*
X132668622Y-85471000D01*
X132547964Y-85708740D01*
X132560525Y-85774025D01*
X132837631Y-86307079D01*
X133297634Y-86693513D01*
X133870503Y-86874496D01*
X134112000Y-86723262D01*
X134112000Y-85471000D01*
X134366000Y-85471000D01*
X134366000Y-86723262D01*
X134607497Y-86874496D01*
X135180366Y-86693513D01*
X135640369Y-86307079D01*
X135917475Y-85774025D01*
X135930036Y-85708740D01*
X135809378Y-85471000D01*
X134366000Y-85471000D01*
X134112000Y-85471000D01*
X134112000Y-85471000D01*
X132668622Y-85471000D01*
X130012070Y-85471000D01*
X130478400Y-85159409D01*
X130811146Y-84661419D01*
X130927991Y-84074000D01*
X130811146Y-83486581D01*
X130478400Y-82988591D01*
X130202140Y-82804000D01*
X130478400Y-82619409D01*
X130811146Y-82121419D01*
X130927991Y-81534000D01*
X130811146Y-80946581D01*
X130478400Y-80448591D01*
X130202140Y-80264000D01*
X130478400Y-80079409D01*
X130811146Y-79581419D01*
X130927991Y-78994000D01*
X130811146Y-78406581D01*
X130478400Y-77908591D01*
X130198172Y-77721349D01*
X130560369Y-77417079D01*
X130837475Y-76884025D01*
X130850036Y-76818740D01*
X130729378Y-76581000D01*
X129286000Y-76581000D01*
X129286000Y-76601000D01*
X129032000Y-76601000D01*
X129032000Y-76581000D01*
X127588622Y-76581000D01*
X127467964Y-76818740D01*
X127480525Y-76884025D01*
X127757631Y-77417079D01*
X128119828Y-77721349D01*
X127839600Y-77908591D01*
X127739100Y-78059000D01*
X126111000Y-78059000D01*
X125753191Y-78130173D01*
X125449855Y-78332855D01*
X122655855Y-81126855D01*
X122453173Y-81430191D01*
X122382000Y-81788000D01*
X122382000Y-97536000D01*
X122453173Y-97893809D01*
X122655855Y-98197145D01*
X128224000Y-103765290D01*
X128224000Y-119754710D01*
X126866710Y-121112000D01*
X125950939Y-121112000D01*
X125931719Y-121065485D01*
X125444082Y-120576996D01*
X125007910Y-120395881D01*
X125441515Y-120216719D01*
X125930004Y-119729082D01*
X126194699Y-119091627D01*
X126195301Y-118401401D01*
X125931719Y-117763485D01*
X125444082Y-117274996D01*
X125161212Y-117157538D01*
X125441515Y-117041719D01*
X125930004Y-116554082D01*
X126194699Y-115916627D01*
X126195301Y-115226401D01*
X125931719Y-114588485D01*
X125444082Y-114099996D01*
X125161212Y-113982538D01*
X125441515Y-113866719D01*
X125930004Y-113379082D01*
X126194699Y-112741627D01*
X126195301Y-112051401D01*
X125931719Y-111413485D01*
X125444082Y-110924996D01*
X125007910Y-110743881D01*
X125441515Y-110564719D01*
X125930004Y-110077082D01*
X126194699Y-109439627D01*
X126195301Y-108749401D01*
X125931719Y-108111485D01*
X125444082Y-107622996D01*
X124854608Y-107378224D01*
X125441515Y-107135719D01*
X125930004Y-106648082D01*
X126194699Y-106010627D01*
X126195301Y-105320401D01*
X125931719Y-104682485D01*
X125444082Y-104193996D01*
X124806627Y-103929301D01*
X124116401Y-103928699D01*
X123478485Y-104192281D01*
X122989996Y-104679918D01*
X122725301Y-105317373D01*
X122724699Y-106007599D01*
X122988281Y-106645515D01*
X123475918Y-107134004D01*
X124065392Y-107378776D01*
X123478485Y-107621281D01*
X122989996Y-108108918D01*
X122725301Y-108746373D01*
X122724699Y-109436599D01*
X122988281Y-110074515D01*
X123475918Y-110563004D01*
X123912090Y-110744119D01*
X123478485Y-110923281D01*
X122989996Y-111410918D01*
X122725301Y-112048373D01*
X122724699Y-112738599D01*
X122988281Y-113376515D01*
X123475918Y-113865004D01*
X123758788Y-113982462D01*
X123478485Y-114098281D01*
X122989996Y-114585918D01*
X122725301Y-115223373D01*
X122724699Y-115913599D01*
X122988281Y-116551515D01*
X123475918Y-117040004D01*
X123758788Y-117157462D01*
X123478485Y-117273281D01*
X122989996Y-117760918D01*
X122725301Y-118398373D01*
X122724699Y-119088599D01*
X122988281Y-119726515D01*
X123475918Y-120215004D01*
X123912090Y-120396119D01*
X123478485Y-120575281D01*
X122989996Y-121062918D01*
X122725301Y-121700373D01*
X122724699Y-122390599D01*
X122988281Y-123028515D01*
X123475918Y-123517004D01*
X124113373Y-123781699D01*
X124803599Y-123782301D01*
X125441515Y-123518719D01*
X125930004Y-123031082D01*
X125950385Y-122982000D01*
X127254000Y-122982000D01*
X127611809Y-122910827D01*
X127915145Y-122708145D01*
X129820145Y-120803145D01*
X130022827Y-120499809D01*
X130094000Y-120142000D01*
X130094000Y-103378000D01*
X130022827Y-103020191D01*
X129820145Y-102716855D01*
X128044092Y-100940802D01*
X128397000Y-101011000D01*
X133685000Y-101011000D01*
X133685000Y-104173061D01*
X133638485Y-104192281D01*
X133149996Y-104679918D01*
X132885301Y-105317373D01*
X132884699Y-106007599D01*
X133148281Y-106645515D01*
X133635918Y-107134004D01*
X133685000Y-107154385D01*
X133685000Y-107602061D01*
X133638485Y-107621281D01*
X133149996Y-108108918D01*
X132885301Y-108746373D01*
X132884699Y-109436599D01*
X133148281Y-110074515D01*
X133635918Y-110563004D01*
X133685000Y-110583385D01*
X133685000Y-110904061D01*
X133638485Y-110923281D01*
X133149996Y-111410918D01*
X132885301Y-112048373D01*
X132884699Y-112738599D01*
X133148281Y-113376515D01*
X133635918Y-113865004D01*
X133685000Y-113885385D01*
X133685000Y-114079061D01*
X133638485Y-114098281D01*
X133149996Y-114585918D01*
X132885301Y-115223373D01*
X132884699Y-115913599D01*
X133148281Y-116551515D01*
X133635918Y-117040004D01*
X133685000Y-117060385D01*
X133685000Y-117254061D01*
X133638485Y-117273281D01*
X133149996Y-117760918D01*
X132885301Y-118398373D01*
X132884699Y-119088599D01*
X133148281Y-119726515D01*
X133635918Y-120215004D01*
X133685000Y-120235385D01*
X133685000Y-120556061D01*
X133638485Y-120575281D01*
X133149996Y-121062918D01*
X132885301Y-121700373D01*
X132884699Y-122390599D01*
X133148281Y-123028515D01*
X133635918Y-123517004D01*
X134273373Y-123781699D01*
X134963599Y-123782301D01*
X135109586Y-123721980D01*
X137710303Y-126322697D01*
X137982235Y-126504396D01*
X138303000Y-126568200D01*
X149098000Y-126568200D01*
X149418766Y-126504396D01*
X149690697Y-126322697D01*
X151671897Y-124341497D01*
X151853596Y-124069565D01*
X151863597Y-124019288D01*
X151866506Y-127990662D01*
X49098106Y-128041337D01*
X49093157Y-121285000D01*
X50593750Y-121285000D01*
X50435000Y-121443750D01*
X50435000Y-122284310D01*
X50531673Y-122517699D01*
X50664000Y-122650025D01*
X50599996Y-122713918D01*
X50335301Y-123351373D01*
X50334699Y-124041599D01*
X50598281Y-124679515D01*
X51085918Y-125168004D01*
X51723373Y-125432699D01*
X52413599Y-125433301D01*
X53051515Y-125169719D01*
X53540004Y-124682082D01*
X53600580Y-124536200D01*
X54770806Y-124536200D01*
X55474768Y-125240162D01*
X55415301Y-125383373D01*
X55414699Y-126073599D01*
X55678281Y-126711515D01*
X56165918Y-127200004D01*
X56803373Y-127464699D01*
X57493599Y-127465301D01*
X58131515Y-127201719D01*
X58620004Y-126714082D01*
X58884699Y-126076627D01*
X58885301Y-125386401D01*
X58621719Y-124748485D01*
X58134082Y-124259996D01*
X57496627Y-123995301D01*
X56806401Y-123994699D01*
X56660414Y-124055020D01*
X55710697Y-123105303D01*
X55637973Y-123056710D01*
X120477000Y-123056710D01*
X118738710Y-124795000D01*
X68800939Y-124795000D01*
X68781719Y-124748485D01*
X68294082Y-124259996D01*
X67656627Y-123995301D01*
X66966401Y-123994699D01*
X66328485Y-124258281D01*
X65839996Y-124745918D01*
X65575301Y-125383373D01*
X65574699Y-126073599D01*
X65838281Y-126711515D01*
X66325918Y-127200004D01*
X66963373Y-127464699D01*
X67653599Y-127465301D01*
X68291515Y-127201719D01*
X68780004Y-126714082D01*
X68800385Y-126665000D01*
X119126000Y-126665000D01*
X119483809Y-126593827D01*
X119787145Y-126391145D01*
X122073145Y-124105145D01*
X122275827Y-123801809D01*
X122347000Y-123444000D01*
X122347000Y-90297000D01*
X122275827Y-89939191D01*
X122073145Y-89635855D01*
X119645000Y-87207710D01*
X119645000Y-86328703D01*
X119528155Y-85741284D01*
X119195409Y-85243294D01*
X118697419Y-84910548D01*
X118110000Y-84793703D01*
X117522581Y-84910548D01*
X117024591Y-85243294D01*
X116840000Y-85519554D01*
X116655409Y-85243294D01*
X116157419Y-84910548D01*
X115570000Y-84793703D01*
X114982581Y-84910548D01*
X114484591Y-85243294D01*
X114300000Y-85519554D01*
X114115409Y-85243294D01*
X113617419Y-84910548D01*
X113030000Y-84793703D01*
X112442581Y-84910548D01*
X111944591Y-85243294D01*
X111760000Y-85519554D01*
X111575409Y-85243294D01*
X111077419Y-84910548D01*
X110490000Y-84793703D01*
X109902581Y-84910548D01*
X109404591Y-85243294D01*
X109220000Y-85519554D01*
X109035409Y-85243294D01*
X108537419Y-84910548D01*
X107950000Y-84793703D01*
X107362581Y-84910548D01*
X106864591Y-85243294D01*
X106680000Y-85519554D01*
X106495409Y-85243294D01*
X105997419Y-84910548D01*
X105410000Y-84793703D01*
X104822581Y-84910548D01*
X104324591Y-85243294D01*
X104140000Y-85519554D01*
X103955409Y-85243294D01*
X103457419Y-84910548D01*
X102870000Y-84793703D01*
X102282581Y-84910548D01*
X101784591Y-85243294D01*
X101600000Y-85519554D01*
X101415409Y-85243294D01*
X100917419Y-84910548D01*
X100330000Y-84793703D01*
X99742581Y-84910548D01*
X99244591Y-85243294D01*
X99060000Y-85519554D01*
X98875409Y-85243294D01*
X98377419Y-84910548D01*
X97790000Y-84793703D01*
X97202581Y-84910548D01*
X96704591Y-85243294D01*
X96520000Y-85519554D01*
X96335409Y-85243294D01*
X95837419Y-84910548D01*
X95250000Y-84793703D01*
X94662581Y-84910548D01*
X94164591Y-85243294D01*
X93980000Y-85519554D01*
X93795409Y-85243294D01*
X93297419Y-84910548D01*
X92710000Y-84793703D01*
X92122581Y-84910548D01*
X91624591Y-85243294D01*
X91440000Y-85519554D01*
X91255409Y-85243294D01*
X90757419Y-84910548D01*
X90170000Y-84793703D01*
X89582581Y-84910548D01*
X89084591Y-85243294D01*
X88900000Y-85519554D01*
X88715409Y-85243294D01*
X88217419Y-84910548D01*
X87630000Y-84793703D01*
X87042581Y-84910548D01*
X86544591Y-85243294D01*
X86360000Y-85519554D01*
X86175409Y-85243294D01*
X85677419Y-84910548D01*
X85090000Y-84793703D01*
X84502581Y-84910548D01*
X84004591Y-85243294D01*
X83820000Y-85519554D01*
X83635409Y-85243294D01*
X83137419Y-84910548D01*
X82550000Y-84793703D01*
X81962581Y-84910548D01*
X81464591Y-85243294D01*
X81280000Y-85519554D01*
X81095409Y-85243294D01*
X80597419Y-84910548D01*
X80010000Y-84793703D01*
X79422581Y-84910548D01*
X78924591Y-85243294D01*
X78740000Y-85519554D01*
X78555409Y-85243294D01*
X78057419Y-84910548D01*
X77470000Y-84793703D01*
X76882581Y-84910548D01*
X76384591Y-85243294D01*
X76200000Y-85519554D01*
X76015409Y-85243294D01*
X75517419Y-84910548D01*
X74930000Y-84793703D01*
X74342581Y-84910548D01*
X73844591Y-85243294D01*
X73660000Y-85519554D01*
X73475409Y-85243294D01*
X72977419Y-84910548D01*
X72390000Y-84793703D01*
X63763993Y-84793703D01*
X63399145Y-84428855D01*
X63095809Y-84226173D01*
X62738000Y-84155000D01*
X61304061Y-84155000D01*
X61148754Y-83922567D01*
X60613131Y-83564675D01*
X59981321Y-83439000D01*
X59398679Y-83439000D01*
X58766869Y-83564675D01*
X58231246Y-83922567D01*
X57873354Y-84458190D01*
X57747679Y-85090000D01*
X57873354Y-85721810D01*
X58231246Y-86257433D01*
X58384748Y-86360000D01*
X58231246Y-86462567D01*
X57873354Y-86998190D01*
X57747679Y-87630000D01*
X57873354Y-88261810D01*
X58231246Y-88797433D01*
X58384748Y-88900000D01*
X58231246Y-89002567D01*
X57873354Y-89538190D01*
X57747679Y-90170000D01*
X57873354Y-90801810D01*
X58231246Y-91337433D01*
X58384748Y-91440000D01*
X58231246Y-91542567D01*
X57873354Y-92078190D01*
X57747679Y-92710000D01*
X57873354Y-93341810D01*
X58231246Y-93877433D01*
X58384748Y-93980000D01*
X58231246Y-94082567D01*
X57873354Y-94618190D01*
X57747679Y-95250000D01*
X57873354Y-95881810D01*
X58231246Y-96417433D01*
X58384748Y-96520000D01*
X58231246Y-96622567D01*
X57873354Y-97158190D01*
X57747679Y-97790000D01*
X57873354Y-98421810D01*
X58231246Y-98957433D01*
X58384748Y-99060000D01*
X58231246Y-99162567D01*
X57873354Y-99698190D01*
X57747679Y-100330000D01*
X57873354Y-100961810D01*
X58231246Y-101497433D01*
X58384748Y-101600000D01*
X58231246Y-101702567D01*
X57873354Y-102238190D01*
X57747679Y-102870000D01*
X57873354Y-103501810D01*
X58231246Y-104037433D01*
X58766869Y-104395325D01*
X59398679Y-104521000D01*
X59981321Y-104521000D01*
X60613131Y-104395325D01*
X61148754Y-104037433D01*
X61304061Y-103805000D01*
X61461710Y-103805000D01*
X62965855Y-105309145D01*
X63269191Y-105511827D01*
X63627000Y-105583000D01*
X75685710Y-105583000D01*
X77170000Y-107067290D01*
X77170000Y-119908145D01*
X76834801Y-120242759D01*
X76492363Y-119899722D01*
X75891648Y-119650284D01*
X75241205Y-119649716D01*
X74640057Y-119898106D01*
X74294801Y-120242759D01*
X73952363Y-119899722D01*
X73351648Y-119650284D01*
X72701205Y-119649716D01*
X72100057Y-119898106D01*
X71922730Y-120075123D01*
X71834673Y-119941073D01*
X71623640Y-119798623D01*
X71374000Y-119748560D01*
X69596000Y-119748560D01*
X69353877Y-119795537D01*
X69141073Y-119935327D01*
X68998623Y-120146360D01*
X68948560Y-120396000D01*
X68948560Y-122174000D01*
X68995537Y-122416123D01*
X69135327Y-122628927D01*
X69346360Y-122771377D01*
X69596000Y-122821440D01*
X71374000Y-122821440D01*
X71616123Y-122774463D01*
X71828927Y-122634673D01*
X71922989Y-122495324D01*
X72097637Y-122670278D01*
X72698352Y-122919716D01*
X73348795Y-122920284D01*
X73949943Y-122671894D01*
X74295199Y-122327241D01*
X74637637Y-122670278D01*
X75238352Y-122919716D01*
X75888795Y-122920284D01*
X76489943Y-122671894D01*
X76835199Y-122327241D01*
X77177637Y-122670278D01*
X77778352Y-122919716D01*
X78428795Y-122920284D01*
X79029943Y-122671894D01*
X79375199Y-122327241D01*
X79717637Y-122670278D01*
X80318352Y-122919716D01*
X80968795Y-122920284D01*
X81569943Y-122671894D01*
X81915199Y-122327241D01*
X82257637Y-122670278D01*
X82858352Y-122919716D01*
X83508795Y-122920284D01*
X84109943Y-122671894D01*
X84455199Y-122327241D01*
X84797637Y-122670278D01*
X85398352Y-122919716D01*
X86048795Y-122920284D01*
X86649943Y-122671894D01*
X86995199Y-122327241D01*
X87337637Y-122670278D01*
X87938352Y-122919716D01*
X88588795Y-122920284D01*
X89189943Y-122671894D01*
X89535199Y-122327241D01*
X89877637Y-122670278D01*
X90478352Y-122919716D01*
X91128795Y-122920284D01*
X91729943Y-122671894D01*
X92075199Y-122327241D01*
X92417637Y-122670278D01*
X93018352Y-122919716D01*
X93668795Y-122920284D01*
X94269943Y-122671894D01*
X94615199Y-122327241D01*
X94957637Y-122670278D01*
X95558352Y-122919716D01*
X96208795Y-122920284D01*
X96809943Y-122671894D01*
X97155199Y-122327241D01*
X97497637Y-122670278D01*
X98098352Y-122919716D01*
X98748795Y-122920284D01*
X99349943Y-122671894D01*
X99695199Y-122327241D01*
X100037637Y-122670278D01*
X100638352Y-122919716D01*
X101288795Y-122920284D01*
X101889943Y-122671894D01*
X102235199Y-122327241D01*
X102577637Y-122670278D01*
X103178352Y-122919716D01*
X103828795Y-122920284D01*
X104429943Y-122671894D01*
X104775199Y-122327241D01*
X105117637Y-122670278D01*
X105718352Y-122919716D01*
X106368795Y-122920284D01*
X106969943Y-122671894D01*
X107315199Y-122327241D01*
X107657637Y-122670278D01*
X108258352Y-122919716D01*
X108908795Y-122920284D01*
X109509943Y-122671894D01*
X109855199Y-122327241D01*
X110197637Y-122670278D01*
X110798352Y-122919716D01*
X111448795Y-122920284D01*
X112049943Y-122671894D01*
X112395199Y-122327241D01*
X112737637Y-122670278D01*
X113338352Y-122919716D01*
X113988795Y-122920284D01*
X114589943Y-122671894D01*
X114935199Y-122327241D01*
X115277637Y-122670278D01*
X115878352Y-122919716D01*
X116528795Y-122920284D01*
X117129943Y-122671894D01*
X117475199Y-122327241D01*
X117817637Y-122670278D01*
X118418352Y-122919716D01*
X119068795Y-122920284D01*
X119669943Y-122671894D01*
X120130278Y-122212363D01*
X120379716Y-121611648D01*
X120380284Y-120961205D01*
X120131894Y-120360057D01*
X119672363Y-119899722D01*
X119071648Y-119650284D01*
X118421205Y-119649716D01*
X117820057Y-119898106D01*
X117474801Y-120242759D01*
X117132363Y-119899722D01*
X116531648Y-119650284D01*
X115881205Y-119649716D01*
X115280057Y-119898106D01*
X114934801Y-120242759D01*
X114600000Y-119907372D01*
X114600000Y-99822000D01*
X114528827Y-99464191D01*
X114326145Y-99160855D01*
X111024145Y-95858855D01*
X110720809Y-95656173D01*
X110363000Y-95585000D01*
X87347290Y-95585000D01*
X87952562Y-94979728D01*
X88588795Y-94980284D01*
X89189943Y-94731894D01*
X89535199Y-94387241D01*
X89877637Y-94730278D01*
X90478352Y-94979716D01*
X91128795Y-94980284D01*
X91729943Y-94731894D01*
X92075199Y-94387241D01*
X92417637Y-94730278D01*
X93018352Y-94979716D01*
X93668795Y-94980284D01*
X94269943Y-94731894D01*
X94615199Y-94387241D01*
X94957637Y-94730278D01*
X95558352Y-94979716D01*
X96208795Y-94980284D01*
X96809943Y-94731894D01*
X97155199Y-94387241D01*
X97497637Y-94730278D01*
X98098352Y-94979716D01*
X98748795Y-94980284D01*
X99349943Y-94731894D01*
X99695199Y-94387241D01*
X100037637Y-94730278D01*
X100638352Y-94979716D01*
X101288795Y-94980284D01*
X101889943Y-94731894D01*
X102235199Y-94387241D01*
X102577637Y-94730278D01*
X103178352Y-94979716D01*
X103828795Y-94980284D01*
X104429943Y-94731894D01*
X104775199Y-94387241D01*
X105117637Y-94730278D01*
X105718352Y-94979716D01*
X106368795Y-94980284D01*
X106969943Y-94731894D01*
X107315199Y-94387241D01*
X107657637Y-94730278D01*
X108258352Y-94979716D01*
X108908795Y-94980284D01*
X109509943Y-94731894D01*
X109855199Y-94387241D01*
X110197637Y-94730278D01*
X110798352Y-94979716D01*
X111448795Y-94980284D01*
X112049943Y-94731894D01*
X112395199Y-94387241D01*
X112737637Y-94730278D01*
X113338352Y-94979716D01*
X113988795Y-94980284D01*
X114589943Y-94731894D01*
X114935199Y-94387241D01*
X115277637Y-94730278D01*
X115878352Y-94979716D01*
X116528795Y-94980284D01*
X117129943Y-94731894D01*
X117364715Y-94497532D01*
X117772073Y-94497532D01*
X117870736Y-94764387D01*
X118480461Y-94990908D01*
X119130460Y-94966856D01*
X119619264Y-94764387D01*
X119717927Y-94497532D01*
X118745000Y-93524605D01*
X117772073Y-94497532D01*
X117364715Y-94497532D01*
X117557562Y-94305022D01*
X117592468Y-94317927D01*
X118565395Y-93345000D01*
X118924605Y-93345000D01*
X119897532Y-94317927D01*
X120164387Y-94219264D01*
X120390908Y-93609539D01*
X120366856Y-92959540D01*
X120164387Y-92470736D01*
X119897532Y-92372073D01*
X118924605Y-93345000D01*
X118565395Y-93345000D01*
X118565395Y-93345000D01*
X117592468Y-92372073D01*
X117557062Y-92385164D01*
X117132363Y-91959722D01*
X116562619Y-91723144D01*
X118359540Y-91723144D01*
X117870736Y-91925613D01*
X117772073Y-92192468D01*
X118745000Y-93165395D01*
X119717927Y-92192468D01*
X119619264Y-91925613D01*
X119009539Y-91699092D01*
X118359540Y-91723144D01*
X116562619Y-91723144D01*
X116531648Y-91710284D01*
X115881205Y-91709716D01*
X115280057Y-91958106D01*
X114934801Y-92302759D01*
X114592363Y-91959722D01*
X113991648Y-91710284D01*
X113341205Y-91709716D01*
X112740057Y-91958106D01*
X112394801Y-92302759D01*
X112052363Y-91959722D01*
X111451648Y-91710284D01*
X110801205Y-91709716D01*
X110200057Y-91958106D01*
X109854801Y-92302759D01*
X109512363Y-91959722D01*
X108911648Y-91710284D01*
X108261205Y-91709716D01*
X107660057Y-91958106D01*
X107314801Y-92302759D01*
X106972363Y-91959722D01*
X106371648Y-91710284D01*
X105721205Y-91709716D01*
X105120057Y-91958106D01*
X104774801Y-92302759D01*
X104432363Y-91959722D01*
X103831648Y-91710284D01*
X103181205Y-91709716D01*
X102580057Y-91958106D01*
X102234801Y-92302759D01*
X101892363Y-91959722D01*
X101291648Y-91710284D01*
X100641205Y-91709716D01*
X100040057Y-91958106D01*
X99694801Y-92302759D01*
X99352363Y-91959722D01*
X98751648Y-91710284D01*
X98101205Y-91709716D01*
X97500057Y-91958106D01*
X97154801Y-92302759D01*
X96812363Y-91959722D01*
X96211648Y-91710284D01*
X95561205Y-91709716D01*
X94960057Y-91958106D01*
X94614801Y-92302759D01*
X94272363Y-91959722D01*
X93671648Y-91710284D01*
X93021205Y-91709716D01*
X92420057Y-91958106D01*
X92074801Y-92302759D01*
X91732363Y-91959722D01*
X91131648Y-91710284D01*
X90481205Y-91709716D01*
X89880057Y-91958106D01*
X89534801Y-92302759D01*
X89192363Y-91959722D01*
X88591648Y-91710284D01*
X87941205Y-91709716D01*
X87340057Y-91958106D01*
X86994801Y-92302759D01*
X86652363Y-91959722D01*
X86051648Y-91710284D01*
X85401205Y-91709716D01*
X84800057Y-91958106D01*
X84454801Y-92302759D01*
X84112363Y-91959722D01*
X83511648Y-91710284D01*
X82861205Y-91709716D01*
X82260057Y-91958106D01*
X81914801Y-92302759D01*
X81572363Y-91959722D01*
X80971648Y-91710284D01*
X80321205Y-91709716D01*
X79720057Y-91958106D01*
X79374801Y-92302759D01*
X79032363Y-91959722D01*
X78431648Y-91710284D01*
X77781205Y-91709716D01*
X77180057Y-91958106D01*
X76834801Y-92302759D01*
X76492363Y-91959722D01*
X75891648Y-91710284D01*
X75252015Y-91709725D01*
X73686145Y-90143855D01*
X73382809Y-89941173D01*
X73025000Y-89870000D01*
X68840289Y-89870000D01*
X63763993Y-84793703D01*
X72390000Y-84793703D01*
X63763993Y-84793703D01*
X63763993Y-84793703D01*
X72390000Y-84793703D01*
X71802581Y-84910548D01*
X71304591Y-85243294D01*
X71258792Y-85311837D01*
X71175727Y-85111301D01*
X70997098Y-84932673D01*
X70763709Y-84836000D01*
X70135750Y-84836000D01*
X69564250Y-84836000D01*
X69564250Y-84836000D01*
X68936291Y-84836000D01*
X68702902Y-84932673D01*
X68524273Y-85111301D01*
X68427600Y-85344690D01*
X68427600Y-86709250D01*
X68586350Y-86868000D01*
X69723000Y-86868000D01*
X69723000Y-84994750D01*
X69564250Y-84836000D01*
X70135750Y-84836000D01*
X69564250Y-84836000D01*
X69564250Y-84836000D01*
X70135750Y-84836000D01*
X69977000Y-84994750D01*
X69977000Y-86868000D01*
X69997000Y-86868000D01*
X69997000Y-87122000D01*
X69977000Y-87122000D01*
X69723000Y-87122000D01*
X69723000Y-87122000D01*
X68586350Y-87122000D01*
X68427600Y-87280750D01*
X68427600Y-88645310D01*
X68524273Y-88878699D01*
X68702902Y-89057327D01*
X68936291Y-89154000D01*
X69564250Y-89154000D01*
X69723000Y-88995250D01*
X69723000Y-87122000D01*
X69977000Y-87122000D01*
X69723000Y-87122000D01*
X69723000Y-87122000D01*
X69977000Y-87122000D01*
X69977000Y-88995250D01*
X70135750Y-89154000D01*
X70763709Y-89154000D01*
X70997098Y-89057327D01*
X71175727Y-88878699D01*
X71258792Y-88678163D01*
X71304591Y-88746706D01*
X71802581Y-89079452D01*
X72390000Y-89196297D01*
X72977419Y-89079452D01*
X73475409Y-88746706D01*
X73660000Y-88470446D01*
X73844591Y-88746706D01*
X74342581Y-89079452D01*
X74930000Y-89196297D01*
X75517419Y-89079452D01*
X76015409Y-88746706D01*
X76200000Y-88470446D01*
X76384591Y-88746706D01*
X76882581Y-89079452D01*
X77470000Y-89196297D01*
X78057419Y-89079452D01*
X78555409Y-88746706D01*
X78740000Y-88470446D01*
X78924591Y-88746706D01*
X79422581Y-89079452D01*
X80010000Y-89196297D01*
X80597419Y-89079452D01*
X81095409Y-88746706D01*
X81280000Y-88470446D01*
X81464591Y-88746706D01*
X81962581Y-89079452D01*
X82550000Y-89196297D01*
X83137419Y-89079452D01*
X83635409Y-88746706D01*
X83820000Y-88470446D01*
X84004591Y-88746706D01*
X84502581Y-89079452D01*
X85090000Y-89196297D01*
X85677419Y-89079452D01*
X86175409Y-88746706D01*
X86360000Y-88470446D01*
X86544591Y-88746706D01*
X87042581Y-89079452D01*
X87630000Y-89196297D01*
X88217419Y-89079452D01*
X88715409Y-88746706D01*
X88900000Y-88470446D01*
X89084591Y-88746706D01*
X89582581Y-89079452D01*
X90170000Y-89196297D01*
X90757419Y-89079452D01*
X91255409Y-88746706D01*
X91440000Y-88470446D01*
X91624591Y-88746706D01*
X92122581Y-89079452D01*
X92710000Y-89196297D01*
X93297419Y-89079452D01*
X93795409Y-88746706D01*
X93980000Y-88470446D01*
X94164591Y-88746706D01*
X94662581Y-89079452D01*
X95250000Y-89196297D01*
X95837419Y-89079452D01*
X96335409Y-88746706D01*
X96520000Y-88470446D01*
X96704591Y-88746706D01*
X97202581Y-89079452D01*
X97790000Y-89196297D01*
X98377419Y-89079452D01*
X98875409Y-88746706D01*
X99060000Y-88470446D01*
X99244591Y-88746706D01*
X99742581Y-89079452D01*
X100330000Y-89196297D01*
X100917419Y-89079452D01*
X101415409Y-88746706D01*
X101600000Y-88470446D01*
X101784591Y-88746706D01*
X102282581Y-89079452D01*
X102870000Y-89196297D01*
X103457419Y-89079452D01*
X103955409Y-88746706D01*
X104140000Y-88470446D01*
X104324591Y-88746706D01*
X104822581Y-89079452D01*
X105410000Y-89196297D01*
X105997419Y-89079452D01*
X106495409Y-88746706D01*
X106680000Y-88470446D01*
X106864591Y-88746706D01*
X107362581Y-89079452D01*
X107950000Y-89196297D01*
X108537419Y-89079452D01*
X109035409Y-88746706D01*
X109220000Y-88470446D01*
X109404591Y-88746706D01*
X109902581Y-89079452D01*
X110490000Y-89196297D01*
X111077419Y-89079452D01*
X111575409Y-88746706D01*
X111760000Y-88470446D01*
X111944591Y-88746706D01*
X112442581Y-89079452D01*
X113030000Y-89196297D01*
X113617419Y-89079452D01*
X114115409Y-88746706D01*
X114300000Y-88470446D01*
X114484591Y-88746706D01*
X114982581Y-89079452D01*
X115570000Y-89196297D01*
X116157419Y-89079452D01*
X116655409Y-88746706D01*
X116840000Y-88470446D01*
X117024591Y-88746706D01*
X117522581Y-89079452D01*
X118110000Y-89196297D01*
X118697419Y-89079452D01*
X118802170Y-89009460D01*
X120477000Y-90684290D01*
X120477000Y-123056710D01*
X55637973Y-123056710D01*
X55438766Y-122923604D01*
X55118000Y-122859800D01*
X53600936Y-122859800D01*
X53541719Y-122716485D01*
X53475687Y-122650338D01*
X53608327Y-122517699D01*
X53705000Y-122284310D01*
X53705000Y-121443750D01*
X53546250Y-121285000D01*
X52197000Y-121285000D01*
X52197000Y-121305000D01*
X51943000Y-121305000D01*
X51943000Y-121285000D01*
X50593750Y-121285000D01*
X49093157Y-121285000D01*
X49091867Y-119523000D01*
X50943691Y-119523000D01*
X50710302Y-119619673D01*
X50531673Y-119798301D01*
X50435000Y-120031690D01*
X50435000Y-120872250D01*
X50593750Y-121031000D01*
X51943000Y-121031000D01*
X51943000Y-119681750D01*
X51784250Y-119523000D01*
X52355750Y-119523000D01*
X52197000Y-119681750D01*
X52197000Y-121031000D01*
X53546250Y-121031000D01*
X53705000Y-120872250D01*
X53705000Y-120031690D01*
X53608327Y-119798301D01*
X53429698Y-119619673D01*
X53196309Y-119523000D01*
X52355750Y-119523000D01*
X51784250Y-119523000D01*
X51784250Y-119523000D01*
X50943691Y-119523000D01*
X49091867Y-119523000D01*
X49079760Y-102997000D01*
X50329164Y-102997000D01*
X50210025Y-103252944D01*
X50242074Y-103384477D01*
X50558764Y-103947630D01*
X51066857Y-104346724D01*
X51689000Y-104521000D01*
X51943000Y-104521000D01*
X51943000Y-102997000D01*
X52197000Y-102997000D01*
X52197000Y-104521000D01*
X52451000Y-104521000D01*
X53073143Y-104346724D01*
X53581236Y-103947630D01*
X53897926Y-103384477D01*
X53929975Y-103252944D01*
X53810836Y-102997000D01*
X52197000Y-102997000D01*
X51943000Y-102997000D01*
X51943000Y-102997000D01*
X50329164Y-102997000D01*
X49079760Y-102997000D01*
X49077900Y-100457000D01*
X50329164Y-100457000D01*
X50210025Y-100712944D01*
X50242074Y-100844477D01*
X50558764Y-101407630D01*
X50803673Y-101600000D01*
X50558764Y-101792370D01*
X50242074Y-102355523D01*
X50210025Y-102487056D01*
X50329164Y-102743000D01*
X51943000Y-102743000D01*
X51943000Y-100457000D01*
X52197000Y-100457000D01*
X52197000Y-102743000D01*
X53810836Y-102743000D01*
X53929975Y-102487056D01*
X53897926Y-102355523D01*
X53581236Y-101792370D01*
X53336327Y-101600000D01*
X53581236Y-101407630D01*
X53897926Y-100844477D01*
X53929975Y-100712944D01*
X53810836Y-100457000D01*
X52197000Y-100457000D01*
X51943000Y-100457000D01*
X51943000Y-100457000D01*
X50329164Y-100457000D01*
X49077900Y-100457000D01*
X49076040Y-97917000D01*
X50329164Y-97917000D01*
X50210025Y-98172944D01*
X50242074Y-98304477D01*
X50558764Y-98867630D01*
X50803673Y-99060000D01*
X50558764Y-99252370D01*
X50242074Y-99815523D01*
X50210025Y-99947056D01*
X50329164Y-100203000D01*
X51943000Y-100203000D01*
X51943000Y-97917000D01*
X52197000Y-97917000D01*
X51943000Y-97917000D01*
X51943000Y-97917000D01*
X52197000Y-97917000D01*
X52197000Y-100203000D01*
X53810836Y-100203000D01*
X53929975Y-99947056D01*
X53897926Y-99815523D01*
X53581236Y-99252370D01*
X53336327Y-99060000D01*
X53581236Y-98867630D01*
X53897926Y-98304477D01*
X53929975Y-98172944D01*
X53810836Y-97917000D01*
X52197000Y-97917000D01*
X51943000Y-97917000D01*
X51943000Y-97917000D01*
X50329164Y-97917000D01*
X49076040Y-97917000D01*
X49074180Y-95377000D01*
X50329164Y-95377000D01*
X50210025Y-95632944D01*
X50242074Y-95764477D01*
X50558764Y-96327630D01*
X50803673Y-96520000D01*
X50558764Y-96712370D01*
X50242074Y-97275523D01*
X50210025Y-97407056D01*
X50329164Y-97663000D01*
X51943000Y-97663000D01*
X51943000Y-95377000D01*
X52197000Y-95377000D01*
X52197000Y-97663000D01*
X53810836Y-97663000D01*
X53929975Y-97407056D01*
X53897926Y-97275523D01*
X53581236Y-96712370D01*
X53336327Y-96520000D01*
X53581236Y-96327630D01*
X53897926Y-95764477D01*
X53929975Y-95632944D01*
X53810836Y-95377000D01*
X52197000Y-95377000D01*
X51943000Y-95377000D01*
X51943000Y-95377000D01*
X50329164Y-95377000D01*
X49074180Y-95377000D01*
X49072319Y-92837000D01*
X50329164Y-92837000D01*
X50210025Y-93092944D01*
X50242074Y-93224477D01*
X50558764Y-93787630D01*
X50803673Y-93980000D01*
X50558764Y-94172370D01*
X50242074Y-94735523D01*
X50210025Y-94867056D01*
X50329164Y-95123000D01*
X51943000Y-95123000D01*
X51943000Y-92837000D01*
X52197000Y-92837000D01*
X51943000Y-92837000D01*
X51943000Y-92837000D01*
X52197000Y-92837000D01*
X52197000Y-95123000D01*
X53810836Y-95123000D01*
X53929975Y-94867056D01*
X53897926Y-94735523D01*
X53581236Y-94172370D01*
X53336327Y-93980000D01*
X53581236Y-93787630D01*
X53897926Y-93224477D01*
X53929975Y-93092944D01*
X53810836Y-92837000D01*
X52197000Y-92837000D01*
X51943000Y-92837000D01*
X51943000Y-92837000D01*
X50329164Y-92837000D01*
X49072319Y-92837000D01*
X49070458Y-90297000D01*
X50329164Y-90297000D01*
X50210025Y-90552944D01*
X50242074Y-90684477D01*
X50558764Y-91247630D01*
X50803673Y-91440000D01*
X50558764Y-91632370D01*
X50242074Y-92195523D01*
X50210025Y-92327056D01*
X50329164Y-92583000D01*
X51943000Y-92583000D01*
X51943000Y-90297000D01*
X52197000Y-90297000D01*
X51943000Y-90297000D01*
X51943000Y-90297000D01*
X52197000Y-90297000D01*
X52197000Y-92583000D01*
X53810836Y-92583000D01*
X53929975Y-92327056D01*
X53897926Y-92195523D01*
X53581236Y-91632370D01*
X53336327Y-91440000D01*
X53581236Y-91247630D01*
X53897926Y-90684477D01*
X53929975Y-90552944D01*
X53810836Y-90297000D01*
X52197000Y-90297000D01*
X51943000Y-90297000D01*
X51943000Y-90297000D01*
X50329164Y-90297000D01*
X49070458Y-90297000D01*
X49068597Y-87757000D01*
X50329164Y-87757000D01*
X50210025Y-88012944D01*
X50242074Y-88144477D01*
X50558764Y-88707630D01*
X50803673Y-88900000D01*
X50558764Y-89092370D01*
X50242074Y-89655523D01*
X50210025Y-89787056D01*
X50329164Y-90043000D01*
X51943000Y-90043000D01*
X51943000Y-87757000D01*
X52197000Y-87757000D01*
X51943000Y-87757000D01*
X51943000Y-87757000D01*
X52197000Y-87757000D01*
X52197000Y-90043000D01*
X53810836Y-90043000D01*
X53929975Y-89787056D01*
X53897926Y-89655523D01*
X53581236Y-89092370D01*
X53336327Y-88900000D01*
X53581236Y-88707630D01*
X53897926Y-88144477D01*
X53929975Y-88012944D01*
X53810836Y-87757000D01*
X52197000Y-87757000D01*
X51943000Y-87757000D01*
X51943000Y-87757000D01*
X50329164Y-87757000D01*
X49068597Y-87757000D01*
X49066736Y-85217000D01*
X50329164Y-85217000D01*
X50210025Y-85472944D01*
X50242074Y-85604477D01*
X50558764Y-86167630D01*
X50803673Y-86360000D01*
X50558764Y-86552370D01*
X50242074Y-87115523D01*
X50210025Y-87247056D01*
X50329164Y-87503000D01*
X51943000Y-87503000D01*
X51943000Y-85217000D01*
X52197000Y-85217000D01*
X52197000Y-87503000D01*
X53810836Y-87503000D01*
X53929975Y-87247056D01*
X53897926Y-87115523D01*
X53581236Y-86552370D01*
X53336327Y-86360000D01*
X53581236Y-86167630D01*
X53897926Y-85604477D01*
X53929975Y-85472944D01*
X53810836Y-85217000D01*
X52197000Y-85217000D01*
X51943000Y-85217000D01*
X51943000Y-85217000D01*
X50329164Y-85217000D01*
X49066736Y-85217000D01*
X49065434Y-83439000D01*
X51689000Y-83439000D01*
X51066857Y-83613276D01*
X50558764Y-84012370D01*
X50242074Y-84575523D01*
X50210025Y-84707056D01*
X50329164Y-84963000D01*
X51943000Y-84963000D01*
X51943000Y-83439000D01*
X52197000Y-83439000D01*
X52197000Y-84963000D01*
X53810836Y-84963000D01*
X53929975Y-84707056D01*
X53897926Y-84575523D01*
X53581236Y-84012370D01*
X53073143Y-83613276D01*
X52451000Y-83439000D01*
X52197000Y-83439000D01*
X51943000Y-83439000D01*
X51943000Y-83439000D01*
X51689000Y-83439000D01*
X49065434Y-83439000D01*
X49052779Y-66167000D01*
X50593750Y-66167000D01*
X50435000Y-66325750D01*
X50435000Y-67116310D01*
X50531673Y-67349699D01*
X50710302Y-67528327D01*
X50943691Y-67625000D01*
X51784250Y-67625000D01*
X51943000Y-67466250D01*
X51943000Y-66167000D01*
X52197000Y-66167000D01*
X51943000Y-66167000D01*
X51943000Y-66167000D01*
X52197000Y-66167000D01*
X52197000Y-67466250D01*
X52355750Y-67625000D01*
X53196309Y-67625000D01*
X53429698Y-67528327D01*
X53608327Y-67349699D01*
X53705000Y-67116310D01*
X53705000Y-66325750D01*
X53546250Y-66167000D01*
X52197000Y-66167000D01*
X51943000Y-66167000D01*
X51943000Y-66167000D01*
X50593750Y-66167000D01*
X49052779Y-66167000D01*
X49047979Y-59615281D01*
X55660485Y-59615281D01*
X55171996Y-60102918D01*
X54907301Y-60740373D01*
X54906699Y-61430599D01*
X54926994Y-61479716D01*
X53841710Y-62565000D01*
X53560939Y-62565000D01*
X53541719Y-62518485D01*
X53054082Y-62029996D01*
X52416627Y-61765301D01*
X51726401Y-61764699D01*
X51088485Y-62028281D01*
X50599996Y-62515918D01*
X50335301Y-63153373D01*
X50334699Y-63843599D01*
X50598281Y-64481515D01*
X50689291Y-64572684D01*
X50531673Y-64730301D01*
X50435000Y-64963690D01*
X50435000Y-65754250D01*
X50593750Y-65913000D01*
X51943000Y-65913000D01*
X51943000Y-65893000D01*
X52197000Y-65893000D01*
X52197000Y-65913000D01*
X53546250Y-65913000D01*
X53705000Y-65754250D01*
X53705000Y-64963690D01*
X53608327Y-64730301D01*
X53450978Y-64572953D01*
X53540004Y-64484082D01*
X53560385Y-64435000D01*
X54229000Y-64435000D01*
X54586809Y-64363827D01*
X54890145Y-64161145D01*
X56248892Y-62802398D01*
X56295373Y-62821699D01*
X56985599Y-62822301D01*
X57623515Y-62558719D01*
X58112004Y-62071082D01*
X58376699Y-61433627D01*
X58377301Y-60743401D01*
X58113719Y-60105485D01*
X57626082Y-59616996D01*
X56988627Y-59352301D01*
X56298401Y-59351699D01*
X55660485Y-59615281D01*
X49047979Y-59615281D01*
X49047493Y-58953337D01*
X151815893Y-58902662D01*
X151838399Y-89623289D01*
X151838399Y-89623289D01*
G37*
X151838399Y-89623289D02*
X151671897Y-89374103D01*
X150249497Y-87951703D01*
X149977566Y-87770004D01*
X149656800Y-87706200D01*
X148046697Y-87706200D01*
X148155004Y-87598082D01*
X148419699Y-86960627D01*
X148420301Y-86270401D01*
X148156719Y-85632485D01*
X147669082Y-85143996D01*
X147620000Y-85123615D01*
X147620000Y-84805440D01*
X147785000Y-84805440D01*
X148027123Y-84758463D01*
X148239927Y-84618673D01*
X148382377Y-84407640D01*
X148432440Y-84158000D01*
X148432440Y-81958000D01*
X148385463Y-81715877D01*
X148245673Y-81503073D01*
X148034640Y-81360623D01*
X147785000Y-81310560D01*
X147620000Y-81310560D01*
X147620000Y-81276440D01*
X147785000Y-81276440D01*
X148027123Y-81229463D01*
X148239927Y-81089673D01*
X148382377Y-80878640D01*
X148432440Y-80629000D01*
X148432440Y-78629000D01*
X148385463Y-78386877D01*
X148245673Y-78174073D01*
X148162194Y-78117723D01*
X148431493Y-77714687D01*
X148555950Y-77089000D01*
X148431493Y-76463313D01*
X148077070Y-75932880D01*
X147620000Y-75627476D01*
X147620000Y-75026440D01*
X147785000Y-75026440D01*
X148027123Y-74979463D01*
X148239927Y-74839673D01*
X148382377Y-74628640D01*
X148432440Y-74379000D01*
X148432440Y-72179000D01*
X148385463Y-71936877D01*
X148245673Y-71724073D01*
X148034640Y-71581623D01*
X147785000Y-71531560D01*
X147620000Y-71531560D01*
X147620000Y-71266414D01*
X147793515Y-71194719D01*
X148282004Y-70707082D01*
X148546699Y-70069627D01*
X148547301Y-69379401D01*
X148283719Y-68741485D01*
X147796082Y-68252996D01*
X147747000Y-68232615D01*
X147747000Y-67945000D01*
X147675827Y-67587191D01*
X147473145Y-67283855D01*
X145568145Y-65378855D01*
X145568142Y-65378853D01*
X145060145Y-64870855D01*
X144756809Y-64668173D01*
X144399000Y-64597000D01*
X131826000Y-64597000D01*
X131468191Y-64668173D01*
X131164855Y-64870855D01*
X128689955Y-67345755D01*
X128337590Y-67415845D01*
X127839600Y-67748591D01*
X127506854Y-68246581D01*
X127390009Y-68834000D01*
X127506854Y-69421419D01*
X127839600Y-69919409D01*
X128115860Y-70104000D01*
X127839600Y-70288591D01*
X127739100Y-70439000D01*
X124070432Y-70439000D01*
X124104179Y-70357727D01*
X124104620Y-69852490D01*
X123911682Y-69385542D01*
X123769400Y-69243012D01*
X123769400Y-65836800D01*
X123698227Y-65478991D01*
X123495545Y-65175655D01*
X121793745Y-63473855D01*
X121490409Y-63271173D01*
X121132600Y-63200000D01*
X119591552Y-63200000D01*
X119528155Y-62881284D01*
X119195409Y-62383294D01*
X118697419Y-62050548D01*
X118110000Y-61933703D01*
X117522581Y-62050548D01*
X117024591Y-62383294D01*
X116840000Y-62659554D01*
X116655409Y-62383294D01*
X116157419Y-62050548D01*
X115570000Y-61933703D01*
X114982581Y-62050548D01*
X114484591Y-62383294D01*
X114300000Y-62659554D01*
X114115409Y-62383294D01*
X113617419Y-62050548D01*
X113030000Y-61933703D01*
X112442581Y-62050548D01*
X111944591Y-62383294D01*
X111760000Y-62659554D01*
X111575409Y-62383294D01*
X111077419Y-62050548D01*
X110490000Y-61933703D01*
X109902581Y-62050548D01*
X109404591Y-62383294D01*
X109220000Y-62659554D01*
X109035409Y-62383294D01*
X108537419Y-62050548D01*
X107950000Y-61933703D01*
X107362581Y-62050548D01*
X106864591Y-62383294D01*
X106680000Y-62659554D01*
X106495409Y-62383294D01*
X105997419Y-62050548D01*
X105410000Y-61933703D01*
X104822581Y-62050548D01*
X104324591Y-62383294D01*
X104140000Y-62659554D01*
X103955409Y-62383294D01*
X103457419Y-62050548D01*
X102870000Y-61933703D01*
X102282581Y-62050548D01*
X101784591Y-62383294D01*
X101600000Y-62659554D01*
X101415409Y-62383294D01*
X100917419Y-62050548D01*
X100330000Y-61933703D01*
X99742581Y-62050548D01*
X99244591Y-62383294D01*
X99060000Y-62659554D01*
X98875409Y-62383294D01*
X98377419Y-62050548D01*
X97790000Y-61933703D01*
X97202581Y-62050548D01*
X96704591Y-62383294D01*
X96520000Y-62659554D01*
X96335409Y-62383294D01*
X96138843Y-62251953D01*
X96113827Y-62126191D01*
X95911145Y-61822855D01*
X94514145Y-60425855D01*
X94328124Y-60301560D01*
X141975000Y-60301560D01*
X141732877Y-60348537D01*
X141520073Y-60488327D01*
X141377623Y-60699360D01*
X141327560Y-60949000D01*
X141327560Y-62749000D01*
X141374537Y-62991123D01*
X141514327Y-63203927D01*
X141725360Y-63346377D01*
X141975000Y-63396440D01*
X143775000Y-63396440D01*
X144017123Y-63349463D01*
X144229927Y-63209673D01*
X144372377Y-62998640D01*
X144375946Y-62980845D01*
X144544357Y-63149551D01*
X145108330Y-63383733D01*
X145718991Y-63384265D01*
X146283371Y-63151068D01*
X146685323Y-62749818D01*
X147084357Y-63149551D01*
X147648330Y-63383733D01*
X148258991Y-63384265D01*
X148823371Y-63151068D01*
X149255551Y-62719643D01*
X149489733Y-62155670D01*
X149490265Y-61545009D01*
X149257068Y-60980629D01*
X148825643Y-60548449D01*
X148261670Y-60314267D01*
X147651009Y-60313735D01*
X147086629Y-60546932D01*
X146684677Y-60948182D01*
X146285643Y-60548449D01*
X145721670Y-60314267D01*
X145111009Y-60313735D01*
X144546629Y-60546932D01*
X144377238Y-60716027D01*
X144375463Y-60706877D01*
X144235673Y-60494073D01*
X144024640Y-60351623D01*
X143775000Y-60301560D01*
X141975000Y-60301560D01*
X94328124Y-60301560D01*
X94210809Y-60223173D01*
X93853000Y-60152000D01*
X68292939Y-60152000D01*
X68273719Y-60105485D01*
X67786082Y-59616996D01*
X67148627Y-59352301D01*
X66458401Y-59351699D01*
X65820485Y-59615281D01*
X65331996Y-60102918D01*
X65067301Y-60740373D01*
X65066699Y-61430599D01*
X65330281Y-62068515D01*
X65817918Y-62557004D01*
X66455373Y-62821699D01*
X67145599Y-62822301D01*
X67783515Y-62558719D01*
X68272004Y-62071082D01*
X68292385Y-62022000D01*
X69406101Y-62022000D01*
X69262581Y-62050548D01*
X68764591Y-62383294D01*
X68431845Y-62881284D01*
X68315000Y-63468703D01*
X68315000Y-64801297D01*
X68431845Y-65388716D01*
X68764591Y-65886706D01*
X69262581Y-66219452D01*
X69850000Y-66336297D01*
X70437419Y-66219452D01*
X70935409Y-65886706D01*
X71120000Y-65610446D01*
X71304591Y-65886706D01*
X71802581Y-66219452D01*
X72390000Y-66336297D01*
X72977419Y-66219452D01*
X73475409Y-65886706D01*
X73660000Y-65610446D01*
X73844591Y-65886706D01*
X74342581Y-66219452D01*
X74930000Y-66336297D01*
X75517419Y-66219452D01*
X76015409Y-65886706D01*
X76200000Y-65610446D01*
X76384591Y-65886706D01*
X76882581Y-66219452D01*
X77470000Y-66336297D01*
X78057419Y-66219452D01*
X78555409Y-65886706D01*
X78740000Y-65610446D01*
X78924591Y-65886706D01*
X79422581Y-66219452D01*
X80010000Y-66336297D01*
X80597419Y-66219452D01*
X81095409Y-65886706D01*
X81280000Y-65610446D01*
X81464591Y-65886706D01*
X81962581Y-66219452D01*
X82550000Y-66336297D01*
X83137419Y-66219452D01*
X83635409Y-65886706D01*
X83820000Y-65610446D01*
X84004591Y-65886706D01*
X84502581Y-66219452D01*
X85090000Y-66336297D01*
X85677419Y-66219452D01*
X86175409Y-65886706D01*
X86360000Y-65610446D01*
X86544591Y-65886706D01*
X87042581Y-66219452D01*
X87630000Y-66336297D01*
X88217419Y-66219452D01*
X88715409Y-65886706D01*
X88900000Y-65610446D01*
X89084591Y-65886706D01*
X89582581Y-66219452D01*
X90170000Y-66336297D01*
X90757419Y-66219452D01*
X91255409Y-65886706D01*
X91440000Y-65610446D01*
X91624591Y-65886706D01*
X92122581Y-66219452D01*
X92710000Y-66336297D01*
X93297419Y-66219452D01*
X93795409Y-65886706D01*
X93980000Y-65610446D01*
X94164591Y-65886706D01*
X94662581Y-66219452D01*
X95250000Y-66336297D01*
X95837419Y-66219452D01*
X96335409Y-65886706D01*
X96520000Y-65610446D01*
X96704591Y-65886706D01*
X97202581Y-66219452D01*
X97790000Y-66336297D01*
X98377419Y-66219452D01*
X98875409Y-65886706D01*
X99060000Y-65610446D01*
X99244591Y-65886706D01*
X99742581Y-66219452D01*
X100330000Y-66336297D01*
X100917419Y-66219452D01*
X101415409Y-65886706D01*
X101600000Y-65610446D01*
X101784591Y-65886706D01*
X102282581Y-66219452D01*
X102870000Y-66336297D01*
X103457419Y-66219452D01*
X103955409Y-65886706D01*
X104140000Y-65610446D01*
X104324591Y-65886706D01*
X104822581Y-66219452D01*
X105410000Y-66336297D01*
X105997419Y-66219452D01*
X106495409Y-65886706D01*
X106680000Y-65610446D01*
X106864591Y-65886706D01*
X107015000Y-65987206D01*
X107015000Y-69850000D01*
X107086173Y-70207809D01*
X107288855Y-70511145D01*
X111352855Y-74575145D01*
X111656191Y-74777827D01*
X112014000Y-74849000D01*
X123405528Y-74849000D01*
X123651996Y-75095898D01*
X124142487Y-75299568D01*
X124673583Y-75300031D01*
X125164429Y-75097218D01*
X125413080Y-74849000D01*
X127739100Y-74849000D01*
X127839600Y-74999409D01*
X128119828Y-75186651D01*
X127757631Y-75490921D01*
X127480525Y-76023975D01*
X127467964Y-76089260D01*
X127588622Y-76327000D01*
X129032000Y-76327000D01*
X129032000Y-76307000D01*
X129286000Y-76307000D01*
X129286000Y-76327000D01*
X130729378Y-76327000D01*
X130850036Y-76089260D01*
X130837475Y-76023975D01*
X130560369Y-75490921D01*
X130198172Y-75186651D01*
X130478400Y-74999409D01*
X130811146Y-74501419D01*
X130927991Y-73914000D01*
X130811146Y-73326581D01*
X130478400Y-72828591D01*
X130202140Y-72644000D01*
X130478400Y-72459409D01*
X130811146Y-71961419D01*
X130927991Y-71374000D01*
X130811146Y-70786581D01*
X130478400Y-70288591D01*
X130202140Y-70104000D01*
X130478400Y-69919409D01*
X130811146Y-69421419D01*
X130927991Y-68834000D01*
X130811146Y-68246581D01*
X130659966Y-68020324D01*
X132213290Y-66467000D01*
X132997048Y-66467000D01*
X132837631Y-66600921D01*
X132560525Y-67133975D01*
X132547964Y-67199260D01*
X132668622Y-67437000D01*
X134112000Y-67437000D01*
X134112000Y-67417000D01*
X134366000Y-67417000D01*
X134366000Y-67437000D01*
X135809378Y-67437000D01*
X135930036Y-67199260D01*
X135917475Y-67133975D01*
X135640369Y-66600921D01*
X135480952Y-66467000D01*
X144011711Y-66467000D01*
X144245853Y-66701142D01*
X144245855Y-66701145D01*
X145813223Y-68268513D01*
X145341996Y-68738918D01*
X145077301Y-69376373D01*
X145076699Y-70066599D01*
X145340281Y-70704515D01*
X145750000Y-71114950D01*
X145750000Y-71531560D01*
X145585000Y-71531560D01*
X145342877Y-71578537D01*
X145130073Y-71718327D01*
X144987623Y-71929360D01*
X144937560Y-72179000D01*
X144937560Y-74379000D01*
X144984537Y-74621123D01*
X145124327Y-74833927D01*
X145335360Y-74976377D01*
X145585000Y-75026440D01*
X145750000Y-75026440D01*
X145750000Y-75627476D01*
X145292930Y-75932880D01*
X144938507Y-76463313D01*
X144814050Y-77089000D01*
X144938507Y-77714687D01*
X145207593Y-78117404D01*
X145130073Y-78168327D01*
X144987623Y-78379360D01*
X144937560Y-78629000D01*
X144937560Y-80629000D01*
X144984537Y-80871123D01*
X145124327Y-81083927D01*
X145335360Y-81226377D01*
X145585000Y-81276440D01*
X145750000Y-81276440D01*
X145750000Y-81310560D01*
X145585000Y-81310560D01*
X145342877Y-81357537D01*
X145130073Y-81497327D01*
X144987623Y-81708360D01*
X144937560Y-81958000D01*
X144937560Y-84158000D01*
X144984537Y-84400123D01*
X145124327Y-84612927D01*
X145335360Y-84755377D01*
X145585000Y-84805440D01*
X145750000Y-84805440D01*
X145750000Y-85123061D01*
X145703485Y-85142281D01*
X145214996Y-85629918D01*
X144950301Y-86267373D01*
X144949699Y-86957599D01*
X145213281Y-87595515D01*
X145323773Y-87706200D01*
X144610000Y-87706200D01*
X144610000Y-86899750D01*
X144451250Y-86741000D01*
X143002000Y-86741000D01*
X143002000Y-86761000D01*
X142748000Y-86761000D01*
X142748000Y-86741000D01*
X142728000Y-86741000D01*
X142728000Y-86487000D01*
X142748000Y-86487000D01*
X142748000Y-85037750D01*
X142589250Y-84879000D01*
X143160750Y-84879000D01*
X143002000Y-85037750D01*
X143002000Y-86487000D01*
X144451250Y-86487000D01*
X144610000Y-86328250D01*
X144610000Y-85387690D01*
X144513327Y-85154301D01*
X144334698Y-84975673D01*
X144101309Y-84879000D01*
X143160750Y-84879000D01*
X142589250Y-84879000D01*
X142589250Y-84879000D01*
X141706600Y-84879000D01*
X141706600Y-84343364D01*
X141890918Y-84528004D01*
X142528373Y-84792699D01*
X143218599Y-84793301D01*
X143856515Y-84529719D01*
X144345004Y-84042082D01*
X144609699Y-83404627D01*
X144610301Y-82714401D01*
X144346719Y-82076485D01*
X143859082Y-81587996D01*
X143810000Y-81567615D01*
X143810000Y-74769939D01*
X143856515Y-74750719D01*
X144345004Y-74263082D01*
X144609699Y-73625627D01*
X144610301Y-72935401D01*
X144346719Y-72297485D01*
X143859082Y-71808996D01*
X143221627Y-71544301D01*
X142531401Y-71543699D01*
X141893485Y-71807281D01*
X141404996Y-72294918D01*
X141344420Y-72440800D01*
X140013213Y-72440800D01*
X139847604Y-72274902D01*
X139357113Y-72071232D01*
X138826017Y-72070769D01*
X138444031Y-72228602D01*
X138444431Y-71770017D01*
X138241618Y-71279171D01*
X138044200Y-71081408D01*
X138044200Y-69850000D01*
X141425750Y-69850000D01*
X141267000Y-70008750D01*
X141267000Y-70949310D01*
X141363673Y-71182699D01*
X141542302Y-71361327D01*
X141775691Y-71458000D01*
X142716250Y-71458000D01*
X142875000Y-71299250D01*
X142875000Y-69850000D01*
X143129000Y-69850000D01*
X142875000Y-69850000D01*
X142875000Y-69850000D01*
X143129000Y-69850000D01*
X143129000Y-71299250D01*
X143287750Y-71458000D01*
X144228309Y-71458000D01*
X144461698Y-71361327D01*
X144640327Y-71182699D01*
X144737000Y-70949310D01*
X144737000Y-70008750D01*
X144578250Y-69850000D01*
X143129000Y-69850000D01*
X142875000Y-69850000D01*
X142875000Y-69850000D01*
X141425750Y-69850000D01*
X138044200Y-69850000D01*
X138044200Y-69745829D01*
X138236026Y-69554337D01*
X138429779Y-69087727D01*
X138430220Y-68582490D01*
X138237282Y-68115542D01*
X138109963Y-67988000D01*
X141775691Y-67988000D01*
X141542302Y-68084673D01*
X141363673Y-68263301D01*
X141267000Y-68496690D01*
X141267000Y-69437250D01*
X141425750Y-69596000D01*
X142875000Y-69596000D01*
X142875000Y-68146750D01*
X142716250Y-67988000D01*
X143287750Y-67988000D01*
X143129000Y-68146750D01*
X143129000Y-69596000D01*
X144578250Y-69596000D01*
X144737000Y-69437250D01*
X144737000Y-68496690D01*
X144640327Y-68263301D01*
X144461698Y-68084673D01*
X144228309Y-67988000D01*
X143287750Y-67988000D01*
X142716250Y-67988000D01*
X142716250Y-67988000D01*
X141775691Y-67988000D01*
X138109963Y-67988000D01*
X137880337Y-67757974D01*
X137413727Y-67564221D01*
X136908490Y-67563780D01*
X136441542Y-67756718D01*
X136083974Y-68113663D01*
X135890221Y-68580273D01*
X135889780Y-69085510D01*
X136082718Y-69552458D01*
X136174200Y-69644100D01*
X136174200Y-71081440D01*
X135978102Y-71277196D01*
X135774432Y-71767687D01*
X135774333Y-71881757D01*
X135558400Y-71558591D01*
X135282140Y-71374000D01*
X135558400Y-71189409D01*
X135891146Y-70691419D01*
X136007991Y-70104000D01*
X135891146Y-69516581D01*
X135558400Y-69018591D01*
X135278172Y-68831349D01*
X135640369Y-68527079D01*
X135917475Y-67994025D01*
X135930036Y-67928740D01*
X135809378Y-67691000D01*
X134366000Y-67691000D01*
X134366000Y-67711000D01*
X134112000Y-67711000D01*
X134112000Y-67691000D01*
X132668622Y-67691000D01*
X132547964Y-67928740D01*
X132560525Y-67994025D01*
X132837631Y-68527079D01*
X133199828Y-68831349D01*
X132919600Y-69018591D01*
X132586854Y-69516581D01*
X132470009Y-70104000D01*
X132586854Y-70691419D01*
X132919600Y-71189409D01*
X133195860Y-71374000D01*
X132919600Y-71558591D01*
X132586854Y-72056581D01*
X132470009Y-72644000D01*
X132586854Y-73231419D01*
X132919600Y-73729409D01*
X133195860Y-73914000D01*
X132919600Y-74098591D01*
X132586854Y-74596581D01*
X132470009Y-75184000D01*
X132586854Y-75771419D01*
X132919600Y-76269409D01*
X133195860Y-76454000D01*
X132919600Y-76638591D01*
X132586854Y-77136581D01*
X132470009Y-77724000D01*
X132586854Y-78311419D01*
X132919600Y-78809409D01*
X133195860Y-78994000D01*
X132919600Y-79178591D01*
X132586854Y-79676581D01*
X132470009Y-80264000D01*
X132586854Y-80851419D01*
X132919600Y-81349409D01*
X133195860Y-81534000D01*
X132919600Y-81718591D01*
X132586854Y-82216581D01*
X132470009Y-82804000D01*
X132586854Y-83391419D01*
X132919600Y-83889409D01*
X133199828Y-84076651D01*
X132837631Y-84380921D01*
X132560525Y-84913975D01*
X132547964Y-84979260D01*
X132668622Y-85217000D01*
X134112000Y-85217000D01*
X134112000Y-85197000D01*
X134366000Y-85197000D01*
X134366000Y-85217000D01*
X135809378Y-85217000D01*
X135930036Y-84979260D01*
X135917475Y-84913975D01*
X135640369Y-84380921D01*
X135278172Y-84076651D01*
X135558400Y-83889409D01*
X135658900Y-83739000D01*
X137839510Y-83739000D01*
X139125398Y-85024888D01*
X139125398Y-88498398D01*
X139196571Y-88856207D01*
X139399253Y-89159543D01*
X140308853Y-90069142D01*
X140308855Y-90069145D01*
X140612191Y-90271827D01*
X140970000Y-90343000D01*
X145671128Y-90343000D01*
X145585443Y-90574857D01*
X146558000Y-91547415D01*
X147530557Y-90574857D01*
X147444872Y-90343000D01*
X148253510Y-90343000D01*
X149179000Y-91268490D01*
X149179000Y-103905110D01*
X148736110Y-104348000D01*
X147794939Y-104348000D01*
X147775719Y-104301485D01*
X147288082Y-103812996D01*
X146650627Y-103548301D01*
X145960401Y-103547699D01*
X145322485Y-103811281D01*
X144833996Y-104298918D01*
X144569301Y-104936373D01*
X144568699Y-105626599D01*
X144832281Y-106264515D01*
X145277548Y-106710560D01*
X145204000Y-106710560D01*
X144961877Y-106757537D01*
X144749073Y-106897327D01*
X144606623Y-107108360D01*
X144556560Y-107358000D01*
X144556560Y-109558000D01*
X144603537Y-109800123D01*
X144743327Y-110012927D01*
X144954360Y-110155377D01*
X145204000Y-110205440D01*
X145318170Y-110205440D01*
X144911930Y-110476880D01*
X144557507Y-111007313D01*
X144433050Y-111633000D01*
X144557507Y-112258687D01*
X144826593Y-112661404D01*
X144749073Y-112712327D01*
X144606623Y-112923360D01*
X144556560Y-113173000D01*
X144556560Y-115173000D01*
X144603537Y-115415123D01*
X144743327Y-115627927D01*
X144954360Y-115770377D01*
X145204000Y-115820440D01*
X145369000Y-115820440D01*
X145369000Y-115854560D01*
X145204000Y-115854560D01*
X144961877Y-115901537D01*
X144749073Y-116041327D01*
X144606623Y-116252360D01*
X144556560Y-116502000D01*
X144556560Y-118702000D01*
X144603537Y-118944123D01*
X144743327Y-119156927D01*
X144954360Y-119299377D01*
X145204000Y-119349440D01*
X145369000Y-119349440D01*
X145369000Y-119921061D01*
X145322485Y-119940281D01*
X144833996Y-120427918D01*
X144569301Y-121065373D01*
X144568699Y-121755599D01*
X144832281Y-122393515D01*
X145319918Y-122882004D01*
X145957373Y-123146699D01*
X146647599Y-123147301D01*
X147285515Y-122883719D01*
X147774004Y-122396082D01*
X148038699Y-121758627D01*
X148039301Y-121068401D01*
X147775719Y-120430485D01*
X147288082Y-119941996D01*
X147239000Y-119921615D01*
X147239000Y-119349440D01*
X147404000Y-119349440D01*
X147646123Y-119302463D01*
X147858927Y-119162673D01*
X148001377Y-118951640D01*
X148051440Y-118702000D01*
X148051440Y-116502000D01*
X148004463Y-116259877D01*
X147864673Y-116047073D01*
X147653640Y-115904623D01*
X147404000Y-115854560D01*
X147239000Y-115854560D01*
X147239000Y-115820440D01*
X147404000Y-115820440D01*
X147646123Y-115773463D01*
X147858927Y-115633673D01*
X148001377Y-115422640D01*
X148051440Y-115173000D01*
X148051440Y-113173000D01*
X148004463Y-112930877D01*
X147864673Y-112718073D01*
X147781194Y-112661723D01*
X148050493Y-112258687D01*
X148174950Y-111633000D01*
X148050493Y-111007313D01*
X147696070Y-110476880D01*
X147289830Y-110205440D01*
X147404000Y-110205440D01*
X147646123Y-110158463D01*
X147858927Y-110018673D01*
X148001377Y-109807640D01*
X148051440Y-109558000D01*
X148051440Y-107358000D01*
X148004463Y-107115877D01*
X147864673Y-106903073D01*
X147653640Y-106760623D01*
X147404000Y-106710560D01*
X147329751Y-106710560D01*
X147774004Y-106267082D01*
X147794385Y-106218000D01*
X149123400Y-106218000D01*
X149481209Y-106146827D01*
X149784545Y-105944145D01*
X150241000Y-105487690D01*
X150241000Y-123401606D01*
X148750806Y-124891800D01*
X138650194Y-124891800D01*
X136295232Y-122536838D01*
X136354699Y-122393627D01*
X136355301Y-121703401D01*
X136287372Y-121539000D01*
X140917750Y-121539000D01*
X140759000Y-121697750D01*
X140759000Y-122638310D01*
X140855673Y-122871699D01*
X141034302Y-123050327D01*
X141267691Y-123147000D01*
X142208250Y-123147000D01*
X142367000Y-122988250D01*
X142367000Y-121539000D01*
X142621000Y-121539000D01*
X142367000Y-121539000D01*
X142367000Y-121539000D01*
X142621000Y-121539000D01*
X142621000Y-122988250D01*
X142779750Y-123147000D01*
X143720309Y-123147000D01*
X143953698Y-123050327D01*
X144132327Y-122871699D01*
X144229000Y-122638310D01*
X144229000Y-121697750D01*
X144070250Y-121539000D01*
X142621000Y-121539000D01*
X142367000Y-121539000D01*
X142367000Y-121539000D01*
X140917750Y-121539000D01*
X136287372Y-121539000D01*
X136091719Y-121065485D01*
X135604082Y-120576996D01*
X135555000Y-120556615D01*
X135555000Y-120235939D01*
X135601515Y-120216719D01*
X136090004Y-119729082D01*
X136111630Y-119677000D01*
X141267691Y-119677000D01*
X141034302Y-119773673D01*
X140855673Y-119952301D01*
X140759000Y-120185690D01*
X140759000Y-121126250D01*
X140917750Y-121285000D01*
X142367000Y-121285000D01*
X142367000Y-119835750D01*
X142208250Y-119677000D01*
X142779750Y-119677000D01*
X142208250Y-119677000D01*
X142208250Y-119677000D01*
X142779750Y-119677000D01*
X142621000Y-119835750D01*
X142621000Y-121285000D01*
X144070250Y-121285000D01*
X144229000Y-121126250D01*
X144229000Y-120185690D01*
X144132327Y-119952301D01*
X143953698Y-119773673D01*
X143720309Y-119677000D01*
X142779750Y-119677000D01*
X142208250Y-119677000D01*
X142208250Y-119677000D01*
X141267691Y-119677000D01*
X136111630Y-119677000D01*
X136354699Y-119091627D01*
X136355301Y-118401401D01*
X136091719Y-117763485D01*
X135604082Y-117274996D01*
X135555000Y-117254615D01*
X135555000Y-117060939D01*
X135601515Y-117041719D01*
X136090004Y-116554082D01*
X136354699Y-115916627D01*
X136355301Y-115226401D01*
X136091719Y-114588485D01*
X135604082Y-114099996D01*
X135555000Y-114079615D01*
X135555000Y-113885939D01*
X135601515Y-113866719D01*
X136090004Y-113379082D01*
X136354699Y-112741627D01*
X136355301Y-112051401D01*
X136091719Y-111413485D01*
X135604082Y-110924996D01*
X135555000Y-110904615D01*
X135555000Y-110583939D01*
X135601515Y-110564719D01*
X136090004Y-110077082D01*
X136354699Y-109439627D01*
X136355301Y-108749401D01*
X136091719Y-108111485D01*
X135604082Y-107622996D01*
X135555000Y-107602615D01*
X135555000Y-107154939D01*
X135601515Y-107135719D01*
X136090004Y-106648082D01*
X136354699Y-106010627D01*
X136355301Y-105320401D01*
X136143832Y-104808608D01*
X136245873Y-104850979D01*
X136447265Y-104851155D01*
X137972754Y-106376644D01*
X137972580Y-106575910D01*
X138165518Y-107042858D01*
X138522463Y-107400426D01*
X138989073Y-107594179D01*
X139494310Y-107594620D01*
X139961258Y-107401682D01*
X140318826Y-107044737D01*
X140512579Y-106578127D01*
X140513020Y-106072890D01*
X140320082Y-105605942D01*
X140124482Y-105410000D01*
X140917750Y-105410000D01*
X140759000Y-105568750D01*
X140759000Y-106509310D01*
X140855673Y-106742699D01*
X141034302Y-106921327D01*
X141267691Y-107018000D01*
X141480711Y-107018000D01*
X141023996Y-107473918D01*
X140759301Y-108111373D01*
X140758699Y-108801599D01*
X141022281Y-109439515D01*
X141509918Y-109928004D01*
X141559000Y-109948385D01*
X141559000Y-116111061D01*
X141512485Y-116130281D01*
X141023996Y-116617918D01*
X140759301Y-117255373D01*
X140758699Y-117945599D01*
X141022281Y-118583515D01*
X141509918Y-119072004D01*
X142147373Y-119336699D01*
X142837599Y-119337301D01*
X143475515Y-119073719D01*
X143964004Y-118586082D01*
X144228699Y-117948627D01*
X144229301Y-117258401D01*
X143965719Y-116620485D01*
X143478082Y-116131996D01*
X143429000Y-116111615D01*
X143429000Y-109948939D01*
X143475515Y-109929719D01*
X143964004Y-109442082D01*
X144228699Y-108804627D01*
X144229301Y-108114401D01*
X143965719Y-107476485D01*
X143508034Y-107018000D01*
X143720309Y-107018000D01*
X143953698Y-106921327D01*
X144132327Y-106742699D01*
X144229000Y-106509310D01*
X144229000Y-105568750D01*
X144070250Y-105410000D01*
X142621000Y-105410000D01*
X142621000Y-105430000D01*
X142367000Y-105430000D01*
X142367000Y-105410000D01*
X140917750Y-105410000D01*
X140124482Y-105410000D01*
X139963137Y-105248374D01*
X139496527Y-105054621D01*
X139295135Y-105054445D01*
X137788690Y-103548000D01*
X141267691Y-103548000D01*
X141034302Y-103644673D01*
X140855673Y-103823301D01*
X140759000Y-104056690D01*
X140759000Y-104997250D01*
X140917750Y-105156000D01*
X142367000Y-105156000D01*
X142367000Y-103706750D01*
X142208250Y-103548000D01*
X142779750Y-103548000D01*
X142621000Y-103706750D01*
X142621000Y-105156000D01*
X144070250Y-105156000D01*
X144229000Y-104997250D01*
X144229000Y-104056690D01*
X144132327Y-103823301D01*
X143953698Y-103644673D01*
X143720309Y-103548000D01*
X142779750Y-103548000D01*
X142208250Y-103548000D01*
X142208250Y-103548000D01*
X141267691Y-103548000D01*
X137788690Y-103548000D01*
X137769646Y-103528956D01*
X137769820Y-103329690D01*
X137576882Y-102862742D01*
X137219937Y-102505174D01*
X136753327Y-102311421D01*
X136248090Y-102310980D01*
X135781142Y-102503918D01*
X135555000Y-102729666D01*
X135555000Y-101174490D01*
X135616580Y-101112910D01*
X136048918Y-101546004D01*
X136686373Y-101810699D01*
X137376599Y-101811301D01*
X138014515Y-101547719D01*
X138337798Y-101225000D01*
X140876061Y-101225000D01*
X140895281Y-101271515D01*
X141382918Y-101760004D01*
X142020373Y-102024699D01*
X142710599Y-102025301D01*
X143348515Y-101761719D01*
X143837004Y-101274082D01*
X144101699Y-100636627D01*
X144102301Y-99946401D01*
X143841006Y-99314020D01*
X144005327Y-99149698D01*
X144102000Y-98916309D01*
X144102000Y-98075750D01*
X143943250Y-97917000D01*
X142494000Y-97917000D01*
X142494000Y-97937000D01*
X142240000Y-97937000D01*
X142240000Y-97917000D01*
X140790750Y-97917000D01*
X140632000Y-98075750D01*
X140632000Y-98916309D01*
X140728673Y-99149698D01*
X140816775Y-99237800D01*
X138563936Y-99237800D01*
X138504719Y-99094485D01*
X138017082Y-98605996D01*
X137957519Y-98581263D01*
X138257868Y-98581263D01*
X138535099Y-98470359D01*
X138778323Y-97824407D01*
X138755836Y-97134547D01*
X138535099Y-96601641D01*
X138257868Y-96490737D01*
X137212605Y-97536000D01*
X136853395Y-97536000D01*
X136853395Y-97536000D01*
X135808132Y-96490737D01*
X135530901Y-96601641D01*
X135287677Y-97247593D01*
X135310164Y-97937453D01*
X135530901Y-98470359D01*
X135808132Y-98581263D01*
X136853395Y-97536000D01*
X137212605Y-97536000D01*
X136853395Y-97536000D01*
X136853395Y-97536000D01*
X137212605Y-97536000D01*
X138257868Y-98581263D01*
X137957519Y-98581263D01*
X137856861Y-98539466D01*
X137033000Y-97715605D01*
X136209695Y-98538910D01*
X136051485Y-98604281D01*
X135562996Y-99091918D01*
X135542615Y-99141000D01*
X128784290Y-99141000D01*
X128570000Y-98926710D01*
X128570000Y-97476470D01*
X128790759Y-97328964D01*
X129145072Y-96798697D01*
X129269490Y-96173205D01*
X129269490Y-95813164D01*
X136631547Y-95813164D01*
X136098641Y-96033901D01*
X135987737Y-96311132D01*
X137033000Y-97356395D01*
X138078263Y-96311132D01*
X137967359Y-96033901D01*
X137321407Y-95790677D01*
X136631547Y-95813164D01*
X129269490Y-95813164D01*
X129269490Y-95088795D01*
X129179280Y-94635280D01*
X129632795Y-94725490D01*
X130717205Y-94725490D01*
X131342697Y-94601072D01*
X131872964Y-94246759D01*
X132020470Y-94026000D01*
X136022404Y-94026000D01*
X136302918Y-94307004D01*
X136940373Y-94571699D01*
X137630599Y-94572301D01*
X137949319Y-94440608D01*
X139894833Y-96386122D01*
X139894835Y-96386125D01*
X140198171Y-96588807D01*
X140555980Y-96659980D01*
X140633537Y-96659980D01*
X140632000Y-96663691D01*
X140632000Y-97504250D01*
X140790750Y-97663000D01*
X142240000Y-97663000D01*
X142240000Y-97643000D01*
X142494000Y-97643000D01*
X142494000Y-97663000D01*
X143943250Y-97663000D01*
X144102000Y-97504250D01*
X144102000Y-96663691D01*
X144100463Y-96659980D01*
X145181865Y-96659980D01*
X145630927Y-97109826D01*
X146231453Y-97359186D01*
X146881694Y-97359754D01*
X147482655Y-97111442D01*
X147942846Y-96652053D01*
X148192206Y-96051527D01*
X148192774Y-95401286D01*
X147944462Y-94800325D01*
X147485073Y-94340134D01*
X146884547Y-94090774D01*
X146234306Y-94090206D01*
X145633345Y-94338518D01*
X145181095Y-94789980D01*
X140943269Y-94789980D01*
X139032473Y-92879183D01*
X145585443Y-92879183D01*
X145684042Y-93145985D01*
X146293582Y-93372421D01*
X146943377Y-93348361D01*
X147431958Y-93145985D01*
X147530557Y-92879183D01*
X146558000Y-91906625D01*
X145585443Y-92879183D01*
X139032473Y-92879183D01*
X139021974Y-92868684D01*
X139022301Y-92493401D01*
X138758719Y-91855485D01*
X138366522Y-91462602D01*
X144912599Y-91462602D01*
X144936659Y-92112397D01*
X145139035Y-92600978D01*
X145405837Y-92699577D01*
X146378395Y-91727020D01*
X146737605Y-91727020D01*
X147710163Y-92699577D01*
X147976965Y-92600978D01*
X148203401Y-91991438D01*
X148179341Y-91341643D01*
X147976965Y-90853062D01*
X147710163Y-90754463D01*
X146737605Y-91727020D01*
X146378395Y-91727020D01*
X146378395Y-91727020D01*
X145405837Y-90754463D01*
X145139035Y-90853062D01*
X138931541Y-90853062D01*
X139032323Y-90585407D01*
X139009836Y-89895547D01*
X138789099Y-89362641D01*
X138511868Y-89251737D01*
X137466605Y-90297000D01*
X138511868Y-91342263D01*
X138789099Y-91231359D01*
X138931541Y-90853062D01*
X145139035Y-90853062D01*
X138931541Y-90853062D01*
X138931541Y-90853062D01*
X145139035Y-90853062D01*
X144912599Y-91462602D01*
X138366522Y-91462602D01*
X138271082Y-91366996D01*
X138110861Y-91300466D01*
X137287000Y-90476605D01*
X136463695Y-91299910D01*
X136305485Y-91365281D01*
X135816996Y-91852918D01*
X135691145Y-92156000D01*
X132020470Y-92156000D01*
X131872964Y-91935241D01*
X131342697Y-91580928D01*
X130717205Y-91456510D01*
X129632795Y-91456510D01*
X129165217Y-91549517D01*
X129269490Y-91178380D01*
X129269490Y-90698453D01*
X135564164Y-90698453D01*
X135784901Y-91231359D01*
X136062132Y-91342263D01*
X137107395Y-90297000D01*
X136062132Y-89251737D01*
X135784901Y-89362641D01*
X129111881Y-89362641D01*
X129096471Y-89307795D01*
X128700956Y-88805058D01*
X128289626Y-88574164D01*
X136885547Y-88574164D01*
X136352641Y-88794901D01*
X136241737Y-89072132D01*
X137287000Y-90117395D01*
X138332263Y-89072132D01*
X138221359Y-88794901D01*
X137575407Y-88551677D01*
X136885547Y-88574164D01*
X128289626Y-88574164D01*
X128143159Y-88491947D01*
X128015354Y-88461001D01*
X127762000Y-88580355D01*
X127762000Y-90424000D01*
X129269490Y-90424000D01*
X129269490Y-89923620D01*
X129111881Y-89362641D01*
X135784901Y-89362641D01*
X129111881Y-89362641D01*
X129111881Y-89362641D01*
X135784901Y-89362641D01*
X135541677Y-90008593D01*
X135564164Y-90698453D01*
X129269490Y-90698453D01*
X129269490Y-90678000D01*
X127762000Y-90678000D01*
X127762000Y-92521645D01*
X128015354Y-92640999D01*
X128091482Y-92622566D01*
X127998305Y-93091000D01*
X128088515Y-93544515D01*
X127635000Y-93454305D01*
X127009508Y-93578723D01*
X126479241Y-93933036D01*
X126124928Y-94463303D01*
X126000510Y-95088795D01*
X126000510Y-96173205D01*
X126124928Y-96798697D01*
X126479241Y-97328964D01*
X126700000Y-97476470D01*
X126700000Y-99314000D01*
X126770198Y-99666908D01*
X124252000Y-97148710D01*
X124252000Y-90678000D01*
X126000510Y-90678000D01*
X126000510Y-91178380D01*
X126173529Y-91794205D01*
X126569044Y-92296942D01*
X127126841Y-92610053D01*
X127254646Y-92640999D01*
X127508000Y-92521645D01*
X127508000Y-90678000D01*
X126000510Y-90678000D01*
X124252000Y-90678000D01*
X124252000Y-88491947D01*
X127126841Y-88491947D01*
X126569044Y-88805058D01*
X126173529Y-89307795D01*
X126000510Y-89923620D01*
X126000510Y-90424000D01*
X127508000Y-90424000D01*
X127508000Y-88580355D01*
X127254646Y-88461001D01*
X127126841Y-88491947D01*
X124252000Y-88491947D01*
X124252000Y-82175290D01*
X126498290Y-79929000D01*
X127739100Y-79929000D01*
X127839600Y-80079409D01*
X128115860Y-80264000D01*
X127839600Y-80448591D01*
X127506854Y-80946581D01*
X127390009Y-81534000D01*
X127506854Y-82121419D01*
X127839600Y-82619409D01*
X128115860Y-82804000D01*
X127839600Y-82988591D01*
X127506854Y-83486581D01*
X127390009Y-84074000D01*
X127506854Y-84661419D01*
X127839600Y-85159409D01*
X128337590Y-85492155D01*
X128925009Y-85609000D01*
X129392991Y-85609000D01*
X129980410Y-85492155D01*
X130012070Y-85471000D01*
X132668622Y-85471000D01*
X132547964Y-85708740D01*
X132560525Y-85774025D01*
X132837631Y-86307079D01*
X133297634Y-86693513D01*
X133870503Y-86874496D01*
X134112000Y-86723262D01*
X134112000Y-85471000D01*
X134366000Y-85471000D01*
X134366000Y-86723262D01*
X134607497Y-86874496D01*
X135180366Y-86693513D01*
X135640369Y-86307079D01*
X135917475Y-85774025D01*
X135930036Y-85708740D01*
X135809378Y-85471000D01*
X134366000Y-85471000D01*
X134112000Y-85471000D01*
X134112000Y-85471000D01*
X132668622Y-85471000D01*
X130012070Y-85471000D01*
X130478400Y-85159409D01*
X130811146Y-84661419D01*
X130927991Y-84074000D01*
X130811146Y-83486581D01*
X130478400Y-82988591D01*
X130202140Y-82804000D01*
X130478400Y-82619409D01*
X130811146Y-82121419D01*
X130927991Y-81534000D01*
X130811146Y-80946581D01*
X130478400Y-80448591D01*
X130202140Y-80264000D01*
X130478400Y-80079409D01*
X130811146Y-79581419D01*
X130927991Y-78994000D01*
X130811146Y-78406581D01*
X130478400Y-77908591D01*
X130198172Y-77721349D01*
X130560369Y-77417079D01*
X130837475Y-76884025D01*
X130850036Y-76818740D01*
X130729378Y-76581000D01*
X129286000Y-76581000D01*
X129286000Y-76601000D01*
X129032000Y-76601000D01*
X129032000Y-76581000D01*
X127588622Y-76581000D01*
X127467964Y-76818740D01*
X127480525Y-76884025D01*
X127757631Y-77417079D01*
X128119828Y-77721349D01*
X127839600Y-77908591D01*
X127739100Y-78059000D01*
X126111000Y-78059000D01*
X125753191Y-78130173D01*
X125449855Y-78332855D01*
X122655855Y-81126855D01*
X122453173Y-81430191D01*
X122382000Y-81788000D01*
X122382000Y-97536000D01*
X122453173Y-97893809D01*
X122655855Y-98197145D01*
X128224000Y-103765290D01*
X128224000Y-119754710D01*
X126866710Y-121112000D01*
X125950939Y-121112000D01*
X125931719Y-121065485D01*
X125444082Y-120576996D01*
X125007910Y-120395881D01*
X125441515Y-120216719D01*
X125930004Y-119729082D01*
X126194699Y-119091627D01*
X126195301Y-118401401D01*
X125931719Y-117763485D01*
X125444082Y-117274996D01*
X125161212Y-117157538D01*
X125441515Y-117041719D01*
X125930004Y-116554082D01*
X126194699Y-115916627D01*
X126195301Y-115226401D01*
X125931719Y-114588485D01*
X125444082Y-114099996D01*
X125161212Y-113982538D01*
X125441515Y-113866719D01*
X125930004Y-113379082D01*
X126194699Y-112741627D01*
X126195301Y-112051401D01*
X125931719Y-111413485D01*
X125444082Y-110924996D01*
X125007910Y-110743881D01*
X125441515Y-110564719D01*
X125930004Y-110077082D01*
X126194699Y-109439627D01*
X126195301Y-108749401D01*
X125931719Y-108111485D01*
X125444082Y-107622996D01*
X124854608Y-107378224D01*
X125441515Y-107135719D01*
X125930004Y-106648082D01*
X126194699Y-106010627D01*
X126195301Y-105320401D01*
X125931719Y-104682485D01*
X125444082Y-104193996D01*
X124806627Y-103929301D01*
X124116401Y-103928699D01*
X123478485Y-104192281D01*
X122989996Y-104679918D01*
X122725301Y-105317373D01*
X122724699Y-106007599D01*
X122988281Y-106645515D01*
X123475918Y-107134004D01*
X124065392Y-107378776D01*
X123478485Y-107621281D01*
X122989996Y-108108918D01*
X122725301Y-108746373D01*
X122724699Y-109436599D01*
X122988281Y-110074515D01*
X123475918Y-110563004D01*
X123912090Y-110744119D01*
X123478485Y-110923281D01*
X122989996Y-111410918D01*
X122725301Y-112048373D01*
X122724699Y-112738599D01*
X122988281Y-113376515D01*
X123475918Y-113865004D01*
X123758788Y-113982462D01*
X123478485Y-114098281D01*
X122989996Y-114585918D01*
X122725301Y-115223373D01*
X122724699Y-115913599D01*
X122988281Y-116551515D01*
X123475918Y-117040004D01*
X123758788Y-117157462D01*
X123478485Y-117273281D01*
X122989996Y-117760918D01*
X122725301Y-118398373D01*
X122724699Y-119088599D01*
X122988281Y-119726515D01*
X123475918Y-120215004D01*
X123912090Y-120396119D01*
X123478485Y-120575281D01*
X122989996Y-121062918D01*
X122725301Y-121700373D01*
X122724699Y-122390599D01*
X122988281Y-123028515D01*
X123475918Y-123517004D01*
X124113373Y-123781699D01*
X124803599Y-123782301D01*
X125441515Y-123518719D01*
X125930004Y-123031082D01*
X125950385Y-122982000D01*
X127254000Y-122982000D01*
X127611809Y-122910827D01*
X127915145Y-122708145D01*
X129820145Y-120803145D01*
X130022827Y-120499809D01*
X130094000Y-120142000D01*
X130094000Y-103378000D01*
X130022827Y-103020191D01*
X129820145Y-102716855D01*
X128044092Y-100940802D01*
X128397000Y-101011000D01*
X133685000Y-101011000D01*
X133685000Y-104173061D01*
X133638485Y-104192281D01*
X133149996Y-104679918D01*
X132885301Y-105317373D01*
X132884699Y-106007599D01*
X133148281Y-106645515D01*
X133635918Y-107134004D01*
X133685000Y-107154385D01*
X133685000Y-107602061D01*
X133638485Y-107621281D01*
X133149996Y-108108918D01*
X132885301Y-108746373D01*
X132884699Y-109436599D01*
X133148281Y-110074515D01*
X133635918Y-110563004D01*
X133685000Y-110583385D01*
X133685000Y-110904061D01*
X133638485Y-110923281D01*
X133149996Y-111410918D01*
X132885301Y-112048373D01*
X132884699Y-112738599D01*
X133148281Y-113376515D01*
X133635918Y-113865004D01*
X133685000Y-113885385D01*
X133685000Y-114079061D01*
X133638485Y-114098281D01*
X133149996Y-114585918D01*
X132885301Y-115223373D01*
X132884699Y-115913599D01*
X133148281Y-116551515D01*
X133635918Y-117040004D01*
X133685000Y-117060385D01*
X133685000Y-117254061D01*
X133638485Y-117273281D01*
X133149996Y-117760918D01*
X132885301Y-118398373D01*
X132884699Y-119088599D01*
X133148281Y-119726515D01*
X133635918Y-120215004D01*
X133685000Y-120235385D01*
X133685000Y-120556061D01*
X133638485Y-120575281D01*
X133149996Y-121062918D01*
X132885301Y-121700373D01*
X132884699Y-122390599D01*
X133148281Y-123028515D01*
X133635918Y-123517004D01*
X134273373Y-123781699D01*
X134963599Y-123782301D01*
X135109586Y-123721980D01*
X137710303Y-126322697D01*
X137982235Y-126504396D01*
X138303000Y-126568200D01*
X149098000Y-126568200D01*
X149418766Y-126504396D01*
X149690697Y-126322697D01*
X151671897Y-124341497D01*
X151853596Y-124069565D01*
X151863597Y-124019288D01*
X151866506Y-127990662D01*
X49098106Y-128041337D01*
X49093157Y-121285000D01*
X50593750Y-121285000D01*
X50435000Y-121443750D01*
X50435000Y-122284310D01*
X50531673Y-122517699D01*
X50664000Y-122650025D01*
X50599996Y-122713918D01*
X50335301Y-123351373D01*
X50334699Y-124041599D01*
X50598281Y-124679515D01*
X51085918Y-125168004D01*
X51723373Y-125432699D01*
X52413599Y-125433301D01*
X53051515Y-125169719D01*
X53540004Y-124682082D01*
X53600580Y-124536200D01*
X54770806Y-124536200D01*
X55474768Y-125240162D01*
X55415301Y-125383373D01*
X55414699Y-126073599D01*
X55678281Y-126711515D01*
X56165918Y-127200004D01*
X56803373Y-127464699D01*
X57493599Y-127465301D01*
X58131515Y-127201719D01*
X58620004Y-126714082D01*
X58884699Y-126076627D01*
X58885301Y-125386401D01*
X58621719Y-124748485D01*
X58134082Y-124259996D01*
X57496627Y-123995301D01*
X56806401Y-123994699D01*
X56660414Y-124055020D01*
X55710697Y-123105303D01*
X55637973Y-123056710D01*
X120477000Y-123056710D01*
X118738710Y-124795000D01*
X68800939Y-124795000D01*
X68781719Y-124748485D01*
X68294082Y-124259996D01*
X67656627Y-123995301D01*
X66966401Y-123994699D01*
X66328485Y-124258281D01*
X65839996Y-124745918D01*
X65575301Y-125383373D01*
X65574699Y-126073599D01*
X65838281Y-126711515D01*
X66325918Y-127200004D01*
X66963373Y-127464699D01*
X67653599Y-127465301D01*
X68291515Y-127201719D01*
X68780004Y-126714082D01*
X68800385Y-126665000D01*
X119126000Y-126665000D01*
X119483809Y-126593827D01*
X119787145Y-126391145D01*
X122073145Y-124105145D01*
X122275827Y-123801809D01*
X122347000Y-123444000D01*
X122347000Y-90297000D01*
X122275827Y-89939191D01*
X122073145Y-89635855D01*
X119645000Y-87207710D01*
X119645000Y-86328703D01*
X119528155Y-85741284D01*
X119195409Y-85243294D01*
X118697419Y-84910548D01*
X118110000Y-84793703D01*
X117522581Y-84910548D01*
X117024591Y-85243294D01*
X116840000Y-85519554D01*
X116655409Y-85243294D01*
X116157419Y-84910548D01*
X115570000Y-84793703D01*
X114982581Y-84910548D01*
X114484591Y-85243294D01*
X114300000Y-85519554D01*
X114115409Y-85243294D01*
X113617419Y-84910548D01*
X113030000Y-84793703D01*
X112442581Y-84910548D01*
X111944591Y-85243294D01*
X111760000Y-85519554D01*
X111575409Y-85243294D01*
X111077419Y-84910548D01*
X110490000Y-84793703D01*
X109902581Y-84910548D01*
X109404591Y-85243294D01*
X109220000Y-85519554D01*
X109035409Y-85243294D01*
X108537419Y-84910548D01*
X107950000Y-84793703D01*
X107362581Y-84910548D01*
X106864591Y-85243294D01*
X106680000Y-85519554D01*
X106495409Y-85243294D01*
X105997419Y-84910548D01*
X105410000Y-84793703D01*
X104822581Y-84910548D01*
X104324591Y-85243294D01*
X104140000Y-85519554D01*
X103955409Y-85243294D01*
X103457419Y-84910548D01*
X102870000Y-84793703D01*
X102282581Y-84910548D01*
X101784591Y-85243294D01*
X101600000Y-85519554D01*
X101415409Y-85243294D01*
X100917419Y-84910548D01*
X100330000Y-84793703D01*
X99742581Y-84910548D01*
X99244591Y-85243294D01*
X99060000Y-85519554D01*
X98875409Y-85243294D01*
X98377419Y-84910548D01*
X97790000Y-84793703D01*
X97202581Y-84910548D01*
X96704591Y-85243294D01*
X96520000Y-85519554D01*
X96335409Y-85243294D01*
X95837419Y-84910548D01*
X95250000Y-84793703D01*
X94662581Y-84910548D01*
X94164591Y-85243294D01*
X93980000Y-85519554D01*
X93795409Y-85243294D01*
X93297419Y-84910548D01*
X92710000Y-84793703D01*
X92122581Y-84910548D01*
X91624591Y-85243294D01*
X91440000Y-85519554D01*
X91255409Y-85243294D01*
X90757419Y-84910548D01*
X90170000Y-84793703D01*
X89582581Y-84910548D01*
X89084591Y-85243294D01*
X88900000Y-85519554D01*
X88715409Y-85243294D01*
X88217419Y-84910548D01*
X87630000Y-84793703D01*
X87042581Y-84910548D01*
X86544591Y-85243294D01*
X86360000Y-85519554D01*
X86175409Y-85243294D01*
X85677419Y-84910548D01*
X85090000Y-84793703D01*
X84502581Y-84910548D01*
X84004591Y-85243294D01*
X83820000Y-85519554D01*
X83635409Y-85243294D01*
X83137419Y-84910548D01*
X82550000Y-84793703D01*
X81962581Y-84910548D01*
X81464591Y-85243294D01*
X81280000Y-85519554D01*
X81095409Y-85243294D01*
X80597419Y-84910548D01*
X80010000Y-84793703D01*
X79422581Y-84910548D01*
X78924591Y-85243294D01*
X78740000Y-85519554D01*
X78555409Y-85243294D01*
X78057419Y-84910548D01*
X77470000Y-84793703D01*
X76882581Y-84910548D01*
X76384591Y-85243294D01*
X76200000Y-85519554D01*
X76015409Y-85243294D01*
X75517419Y-84910548D01*
X74930000Y-84793703D01*
X74342581Y-84910548D01*
X73844591Y-85243294D01*
X73660000Y-85519554D01*
X73475409Y-85243294D01*
X72977419Y-84910548D01*
X72390000Y-84793703D01*
X63763993Y-84793703D01*
X63399145Y-84428855D01*
X63095809Y-84226173D01*
X62738000Y-84155000D01*
X61304061Y-84155000D01*
X61148754Y-83922567D01*
X60613131Y-83564675D01*
X59981321Y-83439000D01*
X59398679Y-83439000D01*
X58766869Y-83564675D01*
X58231246Y-83922567D01*
X57873354Y-84458190D01*
X57747679Y-85090000D01*
X57873354Y-85721810D01*
X58231246Y-86257433D01*
X58384748Y-86360000D01*
X58231246Y-86462567D01*
X57873354Y-86998190D01*
X57747679Y-87630000D01*
X57873354Y-88261810D01*
X58231246Y-88797433D01*
X58384748Y-88900000D01*
X58231246Y-89002567D01*
X57873354Y-89538190D01*
X57747679Y-90170000D01*
X57873354Y-90801810D01*
X58231246Y-91337433D01*
X58384748Y-91440000D01*
X58231246Y-91542567D01*
X57873354Y-92078190D01*
X57747679Y-92710000D01*
X57873354Y-93341810D01*
X58231246Y-93877433D01*
X58384748Y-93980000D01*
X58231246Y-94082567D01*
X57873354Y-94618190D01*
X57747679Y-95250000D01*
X57873354Y-95881810D01*
X58231246Y-96417433D01*
X58384748Y-96520000D01*
X58231246Y-96622567D01*
X57873354Y-97158190D01*
X57747679Y-97790000D01*
X57873354Y-98421810D01*
X58231246Y-98957433D01*
X58384748Y-99060000D01*
X58231246Y-99162567D01*
X57873354Y-99698190D01*
X57747679Y-100330000D01*
X57873354Y-100961810D01*
X58231246Y-101497433D01*
X58384748Y-101600000D01*
X58231246Y-101702567D01*
X57873354Y-102238190D01*
X57747679Y-102870000D01*
X57873354Y-103501810D01*
X58231246Y-104037433D01*
X58766869Y-104395325D01*
X59398679Y-104521000D01*
X59981321Y-104521000D01*
X60613131Y-104395325D01*
X61148754Y-104037433D01*
X61304061Y-103805000D01*
X61461710Y-103805000D01*
X62965855Y-105309145D01*
X63269191Y-105511827D01*
X63627000Y-105583000D01*
X75685710Y-105583000D01*
X77170000Y-107067290D01*
X77170000Y-119908145D01*
X76834801Y-120242759D01*
X76492363Y-119899722D01*
X75891648Y-119650284D01*
X75241205Y-119649716D01*
X74640057Y-119898106D01*
X74294801Y-120242759D01*
X73952363Y-119899722D01*
X73351648Y-119650284D01*
X72701205Y-119649716D01*
X72100057Y-119898106D01*
X71922730Y-120075123D01*
X71834673Y-119941073D01*
X71623640Y-119798623D01*
X71374000Y-119748560D01*
X69596000Y-119748560D01*
X69353877Y-119795537D01*
X69141073Y-119935327D01*
X68998623Y-120146360D01*
X68948560Y-120396000D01*
X68948560Y-122174000D01*
X68995537Y-122416123D01*
X69135327Y-122628927D01*
X69346360Y-122771377D01*
X69596000Y-122821440D01*
X71374000Y-122821440D01*
X71616123Y-122774463D01*
X71828927Y-122634673D01*
X71922989Y-122495324D01*
X72097637Y-122670278D01*
X72698352Y-122919716D01*
X73348795Y-122920284D01*
X73949943Y-122671894D01*
X74295199Y-122327241D01*
X74637637Y-122670278D01*
X75238352Y-122919716D01*
X75888795Y-122920284D01*
X76489943Y-122671894D01*
X76835199Y-122327241D01*
X77177637Y-122670278D01*
X77778352Y-122919716D01*
X78428795Y-122920284D01*
X79029943Y-122671894D01*
X79375199Y-122327241D01*
X79717637Y-122670278D01*
X80318352Y-122919716D01*
X80968795Y-122920284D01*
X81569943Y-122671894D01*
X81915199Y-122327241D01*
X82257637Y-122670278D01*
X82858352Y-122919716D01*
X83508795Y-122920284D01*
X84109943Y-122671894D01*
X84455199Y-122327241D01*
X84797637Y-122670278D01*
X85398352Y-122919716D01*
X86048795Y-122920284D01*
X86649943Y-122671894D01*
X86995199Y-122327241D01*
X87337637Y-122670278D01*
X87938352Y-122919716D01*
X88588795Y-122920284D01*
X89189943Y-122671894D01*
X89535199Y-122327241D01*
X89877637Y-122670278D01*
X90478352Y-122919716D01*
X91128795Y-122920284D01*
X91729943Y-122671894D01*
X92075199Y-122327241D01*
X92417637Y-122670278D01*
X93018352Y-122919716D01*
X93668795Y-122920284D01*
X94269943Y-122671894D01*
X94615199Y-122327241D01*
X94957637Y-122670278D01*
X95558352Y-122919716D01*
X96208795Y-122920284D01*
X96809943Y-122671894D01*
X97155199Y-122327241D01*
X97497637Y-122670278D01*
X98098352Y-122919716D01*
X98748795Y-122920284D01*
X99349943Y-122671894D01*
X99695199Y-122327241D01*
X100037637Y-122670278D01*
X100638352Y-122919716D01*
X101288795Y-122920284D01*
X101889943Y-122671894D01*
X102235199Y-122327241D01*
X102577637Y-122670278D01*
X103178352Y-122919716D01*
X103828795Y-122920284D01*
X104429943Y-122671894D01*
X104775199Y-122327241D01*
X105117637Y-122670278D01*
X105718352Y-122919716D01*
X106368795Y-122920284D01*
X106969943Y-122671894D01*
X107315199Y-122327241D01*
X107657637Y-122670278D01*
X108258352Y-122919716D01*
X108908795Y-122920284D01*
X109509943Y-122671894D01*
X109855199Y-122327241D01*
X110197637Y-122670278D01*
X110798352Y-122919716D01*
X111448795Y-122920284D01*
X112049943Y-122671894D01*
X112395199Y-122327241D01*
X112737637Y-122670278D01*
X113338352Y-122919716D01*
X113988795Y-122920284D01*
X114589943Y-122671894D01*
X114935199Y-122327241D01*
X115277637Y-122670278D01*
X115878352Y-122919716D01*
X116528795Y-122920284D01*
X117129943Y-122671894D01*
X117475199Y-122327241D01*
X117817637Y-122670278D01*
X118418352Y-122919716D01*
X119068795Y-122920284D01*
X119669943Y-122671894D01*
X120130278Y-122212363D01*
X120379716Y-121611648D01*
X120380284Y-120961205D01*
X120131894Y-120360057D01*
X119672363Y-119899722D01*
X119071648Y-119650284D01*
X118421205Y-119649716D01*
X117820057Y-119898106D01*
X117474801Y-120242759D01*
X117132363Y-119899722D01*
X116531648Y-119650284D01*
X115881205Y-119649716D01*
X115280057Y-119898106D01*
X114934801Y-120242759D01*
X114600000Y-119907372D01*
X114600000Y-99822000D01*
X114528827Y-99464191D01*
X114326145Y-99160855D01*
X111024145Y-95858855D01*
X110720809Y-95656173D01*
X110363000Y-95585000D01*
X87347290Y-95585000D01*
X87952562Y-94979728D01*
X88588795Y-94980284D01*
X89189943Y-94731894D01*
X89535199Y-94387241D01*
X89877637Y-94730278D01*
X90478352Y-94979716D01*
X91128795Y-94980284D01*
X91729943Y-94731894D01*
X92075199Y-94387241D01*
X92417637Y-94730278D01*
X93018352Y-94979716D01*
X93668795Y-94980284D01*
X94269943Y-94731894D01*
X94615199Y-94387241D01*
X94957637Y-94730278D01*
X95558352Y-94979716D01*
X96208795Y-94980284D01*
X96809943Y-94731894D01*
X97155199Y-94387241D01*
X97497637Y-94730278D01*
X98098352Y-94979716D01*
X98748795Y-94980284D01*
X99349943Y-94731894D01*
X99695199Y-94387241D01*
X100037637Y-94730278D01*
X100638352Y-94979716D01*
X101288795Y-94980284D01*
X101889943Y-94731894D01*
X102235199Y-94387241D01*
X102577637Y-94730278D01*
X103178352Y-94979716D01*
X103828795Y-94980284D01*
X104429943Y-94731894D01*
X104775199Y-94387241D01*
X105117637Y-94730278D01*
X105718352Y-94979716D01*
X106368795Y-94980284D01*
X106969943Y-94731894D01*
X107315199Y-94387241D01*
X107657637Y-94730278D01*
X108258352Y-94979716D01*
X108908795Y-94980284D01*
X109509943Y-94731894D01*
X109855199Y-94387241D01*
X110197637Y-94730278D01*
X110798352Y-94979716D01*
X111448795Y-94980284D01*
X112049943Y-94731894D01*
X112395199Y-94387241D01*
X112737637Y-94730278D01*
X113338352Y-94979716D01*
X113988795Y-94980284D01*
X114589943Y-94731894D01*
X114935199Y-94387241D01*
X115277637Y-94730278D01*
X115878352Y-94979716D01*
X116528795Y-94980284D01*
X117129943Y-94731894D01*
X117364715Y-94497532D01*
X117772073Y-94497532D01*
X117870736Y-94764387D01*
X118480461Y-94990908D01*
X119130460Y-94966856D01*
X119619264Y-94764387D01*
X119717927Y-94497532D01*
X118745000Y-93524605D01*
X117772073Y-94497532D01*
X117364715Y-94497532D01*
X117557562Y-94305022D01*
X117592468Y-94317927D01*
X118565395Y-93345000D01*
X118924605Y-93345000D01*
X119897532Y-94317927D01*
X120164387Y-94219264D01*
X120390908Y-93609539D01*
X120366856Y-92959540D01*
X120164387Y-92470736D01*
X119897532Y-92372073D01*
X118924605Y-93345000D01*
X118565395Y-93345000D01*
X118565395Y-93345000D01*
X117592468Y-92372073D01*
X117557062Y-92385164D01*
X117132363Y-91959722D01*
X116562619Y-91723144D01*
X118359540Y-91723144D01*
X117870736Y-91925613D01*
X117772073Y-92192468D01*
X118745000Y-93165395D01*
X119717927Y-92192468D01*
X119619264Y-91925613D01*
X119009539Y-91699092D01*
X118359540Y-91723144D01*
X116562619Y-91723144D01*
X116531648Y-91710284D01*
X115881205Y-91709716D01*
X115280057Y-91958106D01*
X114934801Y-92302759D01*
X114592363Y-91959722D01*
X113991648Y-91710284D01*
X113341205Y-91709716D01*
X112740057Y-91958106D01*
X112394801Y-92302759D01*
X112052363Y-91959722D01*
X111451648Y-91710284D01*
X110801205Y-91709716D01*
X110200057Y-91958106D01*
X109854801Y-92302759D01*
X109512363Y-91959722D01*
X108911648Y-91710284D01*
X108261205Y-91709716D01*
X107660057Y-91958106D01*
X107314801Y-92302759D01*
X106972363Y-91959722D01*
X106371648Y-91710284D01*
X105721205Y-91709716D01*
X105120057Y-91958106D01*
X104774801Y-92302759D01*
X104432363Y-91959722D01*
X103831648Y-91710284D01*
X103181205Y-91709716D01*
X102580057Y-91958106D01*
X102234801Y-92302759D01*
X101892363Y-91959722D01*
X101291648Y-91710284D01*
X100641205Y-91709716D01*
X100040057Y-91958106D01*
X99694801Y-92302759D01*
X99352363Y-91959722D01*
X98751648Y-91710284D01*
X98101205Y-91709716D01*
X97500057Y-91958106D01*
X97154801Y-92302759D01*
X96812363Y-91959722D01*
X96211648Y-91710284D01*
X95561205Y-91709716D01*
X94960057Y-91958106D01*
X94614801Y-92302759D01*
X94272363Y-91959722D01*
X93671648Y-91710284D01*
X93021205Y-91709716D01*
X92420057Y-91958106D01*
X92074801Y-92302759D01*
X91732363Y-91959722D01*
X91131648Y-91710284D01*
X90481205Y-91709716D01*
X89880057Y-91958106D01*
X89534801Y-92302759D01*
X89192363Y-91959722D01*
X88591648Y-91710284D01*
X87941205Y-91709716D01*
X87340057Y-91958106D01*
X86994801Y-92302759D01*
X86652363Y-91959722D01*
X86051648Y-91710284D01*
X85401205Y-91709716D01*
X84800057Y-91958106D01*
X84454801Y-92302759D01*
X84112363Y-91959722D01*
X83511648Y-91710284D01*
X82861205Y-91709716D01*
X82260057Y-91958106D01*
X81914801Y-92302759D01*
X81572363Y-91959722D01*
X80971648Y-91710284D01*
X80321205Y-91709716D01*
X79720057Y-91958106D01*
X79374801Y-92302759D01*
X79032363Y-91959722D01*
X78431648Y-91710284D01*
X77781205Y-91709716D01*
X77180057Y-91958106D01*
X76834801Y-92302759D01*
X76492363Y-91959722D01*
X75891648Y-91710284D01*
X75252015Y-91709725D01*
X73686145Y-90143855D01*
X73382809Y-89941173D01*
X73025000Y-89870000D01*
X68840289Y-89870000D01*
X63763993Y-84793703D01*
X72390000Y-84793703D01*
X63763993Y-84793703D01*
X63763993Y-84793703D01*
X72390000Y-84793703D01*
X71802581Y-84910548D01*
X71304591Y-85243294D01*
X71258792Y-85311837D01*
X71175727Y-85111301D01*
X70997098Y-84932673D01*
X70763709Y-84836000D01*
X70135750Y-84836000D01*
X69564250Y-84836000D01*
X69564250Y-84836000D01*
X68936291Y-84836000D01*
X68702902Y-84932673D01*
X68524273Y-85111301D01*
X68427600Y-85344690D01*
X68427600Y-86709250D01*
X68586350Y-86868000D01*
X69723000Y-86868000D01*
X69723000Y-84994750D01*
X69564250Y-84836000D01*
X70135750Y-84836000D01*
X69564250Y-84836000D01*
X69564250Y-84836000D01*
X70135750Y-84836000D01*
X69977000Y-84994750D01*
X69977000Y-86868000D01*
X69997000Y-86868000D01*
X69997000Y-87122000D01*
X69977000Y-87122000D01*
X69723000Y-87122000D01*
X69723000Y-87122000D01*
X68586350Y-87122000D01*
X68427600Y-87280750D01*
X68427600Y-88645310D01*
X68524273Y-88878699D01*
X68702902Y-89057327D01*
X68936291Y-89154000D01*
X69564250Y-89154000D01*
X69723000Y-88995250D01*
X69723000Y-87122000D01*
X69977000Y-87122000D01*
X69723000Y-87122000D01*
X69723000Y-87122000D01*
X69977000Y-87122000D01*
X69977000Y-88995250D01*
X70135750Y-89154000D01*
X70763709Y-89154000D01*
X70997098Y-89057327D01*
X71175727Y-88878699D01*
X71258792Y-88678163D01*
X71304591Y-88746706D01*
X71802581Y-89079452D01*
X72390000Y-89196297D01*
X72977419Y-89079452D01*
X73475409Y-88746706D01*
X73660000Y-88470446D01*
X73844591Y-88746706D01*
X74342581Y-89079452D01*
X74930000Y-89196297D01*
X75517419Y-89079452D01*
X76015409Y-88746706D01*
X76200000Y-88470446D01*
X76384591Y-88746706D01*
X76882581Y-89079452D01*
X77470000Y-89196297D01*
X78057419Y-89079452D01*
X78555409Y-88746706D01*
X78740000Y-88470446D01*
X78924591Y-88746706D01*
X79422581Y-89079452D01*
X80010000Y-89196297D01*
X80597419Y-89079452D01*
X81095409Y-88746706D01*
X81280000Y-88470446D01*
X81464591Y-88746706D01*
X81962581Y-89079452D01*
X82550000Y-89196297D01*
X83137419Y-89079452D01*
X83635409Y-88746706D01*
X83820000Y-88470446D01*
X84004591Y-88746706D01*
X84502581Y-89079452D01*
X85090000Y-89196297D01*
X85677419Y-89079452D01*
X86175409Y-88746706D01*
X86360000Y-88470446D01*
X86544591Y-88746706D01*
X87042581Y-89079452D01*
X87630000Y-89196297D01*
X88217419Y-89079452D01*
X88715409Y-88746706D01*
X88900000Y-88470446D01*
X89084591Y-88746706D01*
X89582581Y-89079452D01*
X90170000Y-89196297D01*
X90757419Y-89079452D01*
X91255409Y-88746706D01*
X91440000Y-88470446D01*
X91624591Y-88746706D01*
X92122581Y-89079452D01*
X92710000Y-89196297D01*
X93297419Y-89079452D01*
X93795409Y-88746706D01*
X93980000Y-88470446D01*
X94164591Y-88746706D01*
X94662581Y-89079452D01*
X95250000Y-89196297D01*
X95837419Y-89079452D01*
X96335409Y-88746706D01*
X96520000Y-88470446D01*
X96704591Y-88746706D01*
X97202581Y-89079452D01*
X97790000Y-89196297D01*
X98377419Y-89079452D01*
X98875409Y-88746706D01*
X99060000Y-88470446D01*
X99244591Y-88746706D01*
X99742581Y-89079452D01*
X100330000Y-89196297D01*
X100917419Y-89079452D01*
X101415409Y-88746706D01*
X101600000Y-88470446D01*
X101784591Y-88746706D01*
X102282581Y-89079452D01*
X102870000Y-89196297D01*
X103457419Y-89079452D01*
X103955409Y-88746706D01*
X104140000Y-88470446D01*
X104324591Y-88746706D01*
X104822581Y-89079452D01*
X105410000Y-89196297D01*
X105997419Y-89079452D01*
X106495409Y-88746706D01*
X106680000Y-88470446D01*
X106864591Y-88746706D01*
X107362581Y-89079452D01*
X107950000Y-89196297D01*
X108537419Y-89079452D01*
X109035409Y-88746706D01*
X109220000Y-88470446D01*
X109404591Y-88746706D01*
X109902581Y-89079452D01*
X110490000Y-89196297D01*
X111077419Y-89079452D01*
X111575409Y-88746706D01*
X111760000Y-88470446D01*
X111944591Y-88746706D01*
X112442581Y-89079452D01*
X113030000Y-89196297D01*
X113617419Y-89079452D01*
X114115409Y-88746706D01*
X114300000Y-88470446D01*
X114484591Y-88746706D01*
X114982581Y-89079452D01*
X115570000Y-89196297D01*
X116157419Y-89079452D01*
X116655409Y-88746706D01*
X116840000Y-88470446D01*
X117024591Y-88746706D01*
X117522581Y-89079452D01*
X118110000Y-89196297D01*
X118697419Y-89079452D01*
X118802170Y-89009460D01*
X120477000Y-90684290D01*
X120477000Y-123056710D01*
X55637973Y-123056710D01*
X55438766Y-122923604D01*
X55118000Y-122859800D01*
X53600936Y-122859800D01*
X53541719Y-122716485D01*
X53475687Y-122650338D01*
X53608327Y-122517699D01*
X53705000Y-122284310D01*
X53705000Y-121443750D01*
X53546250Y-121285000D01*
X52197000Y-121285000D01*
X52197000Y-121305000D01*
X51943000Y-121305000D01*
X51943000Y-121285000D01*
X50593750Y-121285000D01*
X49093157Y-121285000D01*
X49091867Y-119523000D01*
X50943691Y-119523000D01*
X50710302Y-119619673D01*
X50531673Y-119798301D01*
X50435000Y-120031690D01*
X50435000Y-120872250D01*
X50593750Y-121031000D01*
X51943000Y-121031000D01*
X51943000Y-119681750D01*
X51784250Y-119523000D01*
X52355750Y-119523000D01*
X52197000Y-119681750D01*
X52197000Y-121031000D01*
X53546250Y-121031000D01*
X53705000Y-120872250D01*
X53705000Y-120031690D01*
X53608327Y-119798301D01*
X53429698Y-119619673D01*
X53196309Y-119523000D01*
X52355750Y-119523000D01*
X51784250Y-119523000D01*
X51784250Y-119523000D01*
X50943691Y-119523000D01*
X49091867Y-119523000D01*
X49079760Y-102997000D01*
X50329164Y-102997000D01*
X50210025Y-103252944D01*
X50242074Y-103384477D01*
X50558764Y-103947630D01*
X51066857Y-104346724D01*
X51689000Y-104521000D01*
X51943000Y-104521000D01*
X51943000Y-102997000D01*
X52197000Y-102997000D01*
X52197000Y-104521000D01*
X52451000Y-104521000D01*
X53073143Y-104346724D01*
X53581236Y-103947630D01*
X53897926Y-103384477D01*
X53929975Y-103252944D01*
X53810836Y-102997000D01*
X52197000Y-102997000D01*
X51943000Y-102997000D01*
X51943000Y-102997000D01*
X50329164Y-102997000D01*
X49079760Y-102997000D01*
X49077900Y-100457000D01*
X50329164Y-100457000D01*
X50210025Y-100712944D01*
X50242074Y-100844477D01*
X50558764Y-101407630D01*
X50803673Y-101600000D01*
X50558764Y-101792370D01*
X50242074Y-102355523D01*
X50210025Y-102487056D01*
X50329164Y-102743000D01*
X51943000Y-102743000D01*
X51943000Y-100457000D01*
X52197000Y-100457000D01*
X52197000Y-102743000D01*
X53810836Y-102743000D01*
X53929975Y-102487056D01*
X53897926Y-102355523D01*
X53581236Y-101792370D01*
X53336327Y-101600000D01*
X53581236Y-101407630D01*
X53897926Y-100844477D01*
X53929975Y-100712944D01*
X53810836Y-100457000D01*
X52197000Y-100457000D01*
X51943000Y-100457000D01*
X51943000Y-100457000D01*
X50329164Y-100457000D01*
X49077900Y-100457000D01*
X49076040Y-97917000D01*
X50329164Y-97917000D01*
X50210025Y-98172944D01*
X50242074Y-98304477D01*
X50558764Y-98867630D01*
X50803673Y-99060000D01*
X50558764Y-99252370D01*
X50242074Y-99815523D01*
X50210025Y-99947056D01*
X50329164Y-100203000D01*
X51943000Y-100203000D01*
X51943000Y-97917000D01*
X52197000Y-97917000D01*
X51943000Y-97917000D01*
X51943000Y-97917000D01*
X52197000Y-97917000D01*
X52197000Y-100203000D01*
X53810836Y-100203000D01*
X53929975Y-99947056D01*
X53897926Y-99815523D01*
X53581236Y-99252370D01*
X53336327Y-99060000D01*
X53581236Y-98867630D01*
X53897926Y-98304477D01*
X53929975Y-98172944D01*
X53810836Y-97917000D01*
X52197000Y-97917000D01*
X51943000Y-97917000D01*
X51943000Y-97917000D01*
X50329164Y-97917000D01*
X49076040Y-97917000D01*
X49074180Y-95377000D01*
X50329164Y-95377000D01*
X50210025Y-95632944D01*
X50242074Y-95764477D01*
X50558764Y-96327630D01*
X50803673Y-96520000D01*
X50558764Y-96712370D01*
X50242074Y-97275523D01*
X50210025Y-97407056D01*
X50329164Y-97663000D01*
X51943000Y-97663000D01*
X51943000Y-95377000D01*
X52197000Y-95377000D01*
X52197000Y-97663000D01*
X53810836Y-97663000D01*
X53929975Y-97407056D01*
X53897926Y-97275523D01*
X53581236Y-96712370D01*
X53336327Y-96520000D01*
X53581236Y-96327630D01*
X53897926Y-95764477D01*
X53929975Y-95632944D01*
X53810836Y-95377000D01*
X52197000Y-95377000D01*
X51943000Y-95377000D01*
X51943000Y-95377000D01*
X50329164Y-95377000D01*
X49074180Y-95377000D01*
X49072319Y-92837000D01*
X50329164Y-92837000D01*
X50210025Y-93092944D01*
X50242074Y-93224477D01*
X50558764Y-93787630D01*
X50803673Y-93980000D01*
X50558764Y-94172370D01*
X50242074Y-94735523D01*
X50210025Y-94867056D01*
X50329164Y-95123000D01*
X51943000Y-95123000D01*
X51943000Y-92837000D01*
X52197000Y-92837000D01*
X51943000Y-92837000D01*
X51943000Y-92837000D01*
X52197000Y-92837000D01*
X52197000Y-95123000D01*
X53810836Y-95123000D01*
X53929975Y-94867056D01*
X53897926Y-94735523D01*
X53581236Y-94172370D01*
X53336327Y-93980000D01*
X53581236Y-93787630D01*
X53897926Y-93224477D01*
X53929975Y-93092944D01*
X53810836Y-92837000D01*
X52197000Y-92837000D01*
X51943000Y-92837000D01*
X51943000Y-92837000D01*
X50329164Y-92837000D01*
X49072319Y-92837000D01*
X49070458Y-90297000D01*
X50329164Y-90297000D01*
X50210025Y-90552944D01*
X50242074Y-90684477D01*
X50558764Y-91247630D01*
X50803673Y-91440000D01*
X50558764Y-91632370D01*
X50242074Y-92195523D01*
X50210025Y-92327056D01*
X50329164Y-92583000D01*
X51943000Y-92583000D01*
X51943000Y-90297000D01*
X52197000Y-90297000D01*
X51943000Y-90297000D01*
X51943000Y-90297000D01*
X52197000Y-90297000D01*
X52197000Y-92583000D01*
X53810836Y-92583000D01*
X53929975Y-92327056D01*
X53897926Y-92195523D01*
X53581236Y-91632370D01*
X53336327Y-91440000D01*
X53581236Y-91247630D01*
X53897926Y-90684477D01*
X53929975Y-90552944D01*
X53810836Y-90297000D01*
X52197000Y-90297000D01*
X51943000Y-90297000D01*
X51943000Y-90297000D01*
X50329164Y-90297000D01*
X49070458Y-90297000D01*
X49068597Y-87757000D01*
X50329164Y-87757000D01*
X50210025Y-88012944D01*
X50242074Y-88144477D01*
X50558764Y-88707630D01*
X50803673Y-88900000D01*
X50558764Y-89092370D01*
X50242074Y-89655523D01*
X50210025Y-89787056D01*
X50329164Y-90043000D01*
X51943000Y-90043000D01*
X51943000Y-87757000D01*
X52197000Y-87757000D01*
X51943000Y-87757000D01*
X51943000Y-87757000D01*
X52197000Y-87757000D01*
X52197000Y-90043000D01*
X53810836Y-90043000D01*
X53929975Y-89787056D01*
X53897926Y-89655523D01*
X53581236Y-89092370D01*
X53336327Y-88900000D01*
X53581236Y-88707630D01*
X53897926Y-88144477D01*
X53929975Y-88012944D01*
X53810836Y-87757000D01*
X52197000Y-87757000D01*
X51943000Y-87757000D01*
X51943000Y-87757000D01*
X50329164Y-87757000D01*
X49068597Y-87757000D01*
X49066736Y-85217000D01*
X50329164Y-85217000D01*
X50210025Y-85472944D01*
X50242074Y-85604477D01*
X50558764Y-86167630D01*
X50803673Y-86360000D01*
X50558764Y-86552370D01*
X50242074Y-87115523D01*
X50210025Y-87247056D01*
X50329164Y-87503000D01*
X51943000Y-87503000D01*
X51943000Y-85217000D01*
X52197000Y-85217000D01*
X52197000Y-87503000D01*
X53810836Y-87503000D01*
X53929975Y-87247056D01*
X53897926Y-87115523D01*
X53581236Y-86552370D01*
X53336327Y-86360000D01*
X53581236Y-86167630D01*
X53897926Y-85604477D01*
X53929975Y-85472944D01*
X53810836Y-85217000D01*
X52197000Y-85217000D01*
X51943000Y-85217000D01*
X51943000Y-85217000D01*
X50329164Y-85217000D01*
X49066736Y-85217000D01*
X49065434Y-83439000D01*
X51689000Y-83439000D01*
X51066857Y-83613276D01*
X50558764Y-84012370D01*
X50242074Y-84575523D01*
X50210025Y-84707056D01*
X50329164Y-84963000D01*
X51943000Y-84963000D01*
X51943000Y-83439000D01*
X52197000Y-83439000D01*
X52197000Y-84963000D01*
X53810836Y-84963000D01*
X53929975Y-84707056D01*
X53897926Y-84575523D01*
X53581236Y-84012370D01*
X53073143Y-83613276D01*
X52451000Y-83439000D01*
X52197000Y-83439000D01*
X51943000Y-83439000D01*
X51943000Y-83439000D01*
X51689000Y-83439000D01*
X49065434Y-83439000D01*
X49052779Y-66167000D01*
X50593750Y-66167000D01*
X50435000Y-66325750D01*
X50435000Y-67116310D01*
X50531673Y-67349699D01*
X50710302Y-67528327D01*
X50943691Y-67625000D01*
X51784250Y-67625000D01*
X51943000Y-67466250D01*
X51943000Y-66167000D01*
X52197000Y-66167000D01*
X51943000Y-66167000D01*
X51943000Y-66167000D01*
X52197000Y-66167000D01*
X52197000Y-67466250D01*
X52355750Y-67625000D01*
X53196309Y-67625000D01*
X53429698Y-67528327D01*
X53608327Y-67349699D01*
X53705000Y-67116310D01*
X53705000Y-66325750D01*
X53546250Y-66167000D01*
X52197000Y-66167000D01*
X51943000Y-66167000D01*
X51943000Y-66167000D01*
X50593750Y-66167000D01*
X49052779Y-66167000D01*
X49047979Y-59615281D01*
X55660485Y-59615281D01*
X55171996Y-60102918D01*
X54907301Y-60740373D01*
X54906699Y-61430599D01*
X54926994Y-61479716D01*
X53841710Y-62565000D01*
X53560939Y-62565000D01*
X53541719Y-62518485D01*
X53054082Y-62029996D01*
X52416627Y-61765301D01*
X51726401Y-61764699D01*
X51088485Y-62028281D01*
X50599996Y-62515918D01*
X50335301Y-63153373D01*
X50334699Y-63843599D01*
X50598281Y-64481515D01*
X50689291Y-64572684D01*
X50531673Y-64730301D01*
X50435000Y-64963690D01*
X50435000Y-65754250D01*
X50593750Y-65913000D01*
X51943000Y-65913000D01*
X51943000Y-65893000D01*
X52197000Y-65893000D01*
X52197000Y-65913000D01*
X53546250Y-65913000D01*
X53705000Y-65754250D01*
X53705000Y-64963690D01*
X53608327Y-64730301D01*
X53450978Y-64572953D01*
X53540004Y-64484082D01*
X53560385Y-64435000D01*
X54229000Y-64435000D01*
X54586809Y-64363827D01*
X54890145Y-64161145D01*
X56248892Y-62802398D01*
X56295373Y-62821699D01*
X56985599Y-62822301D01*
X57623515Y-62558719D01*
X58112004Y-62071082D01*
X58376699Y-61433627D01*
X58377301Y-60743401D01*
X58113719Y-60105485D01*
X57626082Y-59616996D01*
X56988627Y-59352301D01*
X56298401Y-59351699D01*
X55660485Y-59615281D01*
X49047979Y-59615281D01*
X49047493Y-58953337D01*
X151815893Y-58902662D01*
X151838399Y-89623289D01*
G36*
X107650000Y-101606290D02*
X107650000Y-119908145D01*
X107314801Y-120242759D01*
X106972363Y-119899722D01*
X106371648Y-119650284D01*
X105721205Y-119649716D01*
X105120057Y-119898106D01*
X104774801Y-120242759D01*
X104432363Y-119899722D01*
X103831648Y-119650284D01*
X103181205Y-119649716D01*
X102580057Y-119898106D01*
X102234801Y-120242759D01*
X101892363Y-119899722D01*
X101291648Y-119650284D01*
X100641205Y-119649716D01*
X100040057Y-119898106D01*
X99694801Y-120242759D01*
X99352363Y-119899722D01*
X98751648Y-119650284D01*
X98101205Y-119649716D01*
X97500057Y-119898106D01*
X97154801Y-120242759D01*
X96812363Y-119899722D01*
X96211648Y-119650284D01*
X95561205Y-119649716D01*
X94960057Y-119898106D01*
X94614801Y-120242759D01*
X94272363Y-119899722D01*
X93671648Y-119650284D01*
X93021205Y-119649716D01*
X92420057Y-119898106D01*
X92074801Y-120242759D01*
X91732363Y-119899722D01*
X91131648Y-119650284D01*
X90481205Y-119649716D01*
X89880057Y-119898106D01*
X89534801Y-120242759D01*
X89192363Y-119899722D01*
X88591648Y-119650284D01*
X87941205Y-119649716D01*
X87340057Y-119898106D01*
X86994801Y-120242759D01*
X86652363Y-119899722D01*
X86051648Y-119650284D01*
X85401205Y-119649716D01*
X84800057Y-119898106D01*
X84454801Y-120242759D01*
X84120000Y-119907372D01*
X84120000Y-102743005D01*
X84120001Y-102743000D01*
X84060326Y-102443000D01*
X84048827Y-102385191D01*
X83846145Y-102081855D01*
X82394290Y-100630000D01*
X106673710Y-100630000D01*
X107650000Y-101606290D01*
X107650000Y-101606290D01*
G37*
X107650000Y-101606290D02*
X107650000Y-119908145D01*
X107314801Y-120242759D01*
X106972363Y-119899722D01*
X106371648Y-119650284D01*
X105721205Y-119649716D01*
X105120057Y-119898106D01*
X104774801Y-120242759D01*
X104432363Y-119899722D01*
X103831648Y-119650284D01*
X103181205Y-119649716D01*
X102580057Y-119898106D01*
X102234801Y-120242759D01*
X101892363Y-119899722D01*
X101291648Y-119650284D01*
X100641205Y-119649716D01*
X100040057Y-119898106D01*
X99694801Y-120242759D01*
X99352363Y-119899722D01*
X98751648Y-119650284D01*
X98101205Y-119649716D01*
X97500057Y-119898106D01*
X97154801Y-120242759D01*
X96812363Y-119899722D01*
X96211648Y-119650284D01*
X95561205Y-119649716D01*
X94960057Y-119898106D01*
X94614801Y-120242759D01*
X94272363Y-119899722D01*
X93671648Y-119650284D01*
X93021205Y-119649716D01*
X92420057Y-119898106D01*
X92074801Y-120242759D01*
X91732363Y-119899722D01*
X91131648Y-119650284D01*
X90481205Y-119649716D01*
X89880057Y-119898106D01*
X89534801Y-120242759D01*
X89192363Y-119899722D01*
X88591648Y-119650284D01*
X87941205Y-119649716D01*
X87340057Y-119898106D01*
X86994801Y-120242759D01*
X86652363Y-119899722D01*
X86051648Y-119650284D01*
X85401205Y-119649716D01*
X84800057Y-119898106D01*
X84454801Y-120242759D01*
X84120000Y-119907372D01*
X84120000Y-102743005D01*
X84120001Y-102743000D01*
X84060326Y-102443000D01*
X84048827Y-102385191D01*
X83846145Y-102081855D01*
X82394290Y-100630000D01*
X106673710Y-100630000D01*
X107650000Y-101606290D01*
M02*
